<svg width="48" height="48" viewBox="0 0 48 48" fill="none" xmlns="http://www.w3.org/2000/svg">
<rect width="48" height="48" fill="#343434"/>
<rect x="17" y="22" width="6" height="6" fill="white"/>
<rect x="25" y="22" width="6" height="6" fill="white"/>
<rect x="17" y="14" width="6" height="6" fill="white"/>
<rect x="25" y="14" width="6" height="6" fill="white"/>
<rect x="10" y="32" width="28" height="3" fill="white"/>
<rect x="11" y="36" width="26" height="1" fill="white"/>
<path d="M11 31H37V31.5H11V31Z" fill="white"/>
<path fill-rule="evenodd" clip-rule="evenodd" d="M15 30L15 12L16 12L33 12L33 13L33 30L32 30L16 30L15 30ZM16 13L32 13L32 29L16 29L16 13Z" fill="white"/>
</svg>
