<svg width="48" height="48" viewBox="0 0 48 48" fill="none" xmlns="http://www.w3.org/2000/svg">
<rect width="48" height="48" fill="#343434"/>
<path d="M40.282 17L38.9276 24L37.5732 31L36.2188 38L28.6641 38L21.1094 38L13.5547 38L6 38L7.13382 31L8.26763 24L9.40145 17L10.5353 10L18.3105 10L26.0858 10L29.9735 10L33.8611 10L37.7487 10L41.6364 10L40.9592 13.5L40.282 17Z" fill="white"/>
<path d="M8.26763 24L38.9276 24M8.26763 24L9.40145 17L10.5353 10L18.3105 10M8.26763 24L7.13382 31L6 38L13.5547 38M38.9276 24L40.282 17L40.9592 13.5L41.6364 10L37.7487 10L33.8611 10M38.9276 24L37.5732 31L36.2188 38L28.6641 38M26.0858 10L18.3105 10M26.0858 10L25.446 13.6L21.1094 38M26.0858 10L29.9735 10L33.8611 10M21.1094 38L28.6641 38M21.1094 38L13.5547 38M28.6641 38L31.2626 24L33.8611 10M13.5547 38L18.3105 10" stroke="#343434" stroke-width="3"/>
</svg>
