<svg width="48" height="48" viewBox="0 0 48 48" fill="none" xmlns="http://www.w3.org/2000/svg">
<rect width="48" height="48" fill="#343434"/>
<path d="M10 40.0002V12.0002L15.25 13.0034L20.5 14.0066L25.75 15.0098L31 16.013V36.6117L25.75 37.4588L20.5 38.306L15.25 39.1531L10 40.0002Z" fill="#343434"/>
<path d="M20.5 14.0066V38.306M20.5 14.0066L25.75 15.0098M20.5 14.0066L15.25 13.0034M20.5 38.306L25.75 37.4588M20.5 38.306L15.25 39.1531M25.75 37.4588L31 36.6117V16.013L25.75 15.0098M25.75 37.4588V15.0098M15.25 13.0034L10 12.0002V40.0002L15.25 39.1531M15.25 13.0034V39.1531" stroke="white" stroke-width="2.6"/>
<path d="M22.377 22.6843C23.3393 21.842 24.197 21.737 25.1053 21.9736C29.7503 15.9936 36.6683 7.32654 36.9956 6.96724C37.323 6.60793 38.1056 4.98746 40.2662 6.60791C42.4268 8.22837 41.4926 9.30584 41.3169 9.66789C41.1412 10.0299 28.3362 24.6171 28.3362 24.6171C28.3362 24.6171 29.2132 25.4132 28.6299 26.9669L23.8236 33.7644L16.963 28.0115L22.377 22.6843Z" fill="white"/>
<path d="M28.3362 24.6171C28.3362 24.6171 29.2132 25.4132 28.6299 26.9669L23.8236 33.7644L16.963 28.0115L22.377 22.6843C23.3393 21.842 24.197 21.737 25.1053 21.9736M28.3362 24.6171C28.3362 24.6171 41.1412 10.0299 41.3169 9.66789C41.4926 9.30584 42.4268 8.22837 40.2662 6.60791C38.1056 4.98746 37.323 6.60793 36.9956 6.96724C36.6683 7.32654 29.7503 15.9936 25.1053 21.9736M28.3362 24.6171C28.3362 24.6171 27.474 23.6546 26.8676 23.1485C26.2775 22.656 25.1053 21.9736 25.1053 21.9736" stroke="#343434" stroke-width="2"/>
</svg>
