<svg width="48" height="48" viewBox="0 0 48 48" fill="none" xmlns="http://www.w3.org/2000/svg">
<rect width="48" height="48" fill="#343434"/>
<rect x="15.3159" y="10.8777" width="17.3684" height="27.2275" fill="#04C4FF"/>
<path d="M14 7.5H11.4998V38.1052H14V9.93884H33.9998V38.1052H36.4998V7.5H33.9998H14Z" fill="#04C4FF"/>
<rect x="18.1323" y="13.2554" width="3.63158" height="4.63327" fill="#343434" stroke="#343434"/>
<rect x="26.2368" y="13.2554" width="3.63158" height="4.63327" fill="#343434" stroke="#343434"/>
<rect x="18.1323" y="19.8276" width="3.63158" height="3.6944" fill="#343434" stroke="#343434"/>
<rect x="26.2368" y="19.8276" width="3.63158" height="3.6944" fill="#343434" stroke="#343434"/>
<mask id="path-8-inside-1" fill="white">
<path d="M21 26.5C21 27.3284 20.3284 28 19.5 28C18.6716 28 18 27.3284 18 26.5C18 25.6716 18.6716 25 19.5 25C20.3284 25 21 25.6716 21 26.5ZM18.6756 26.5C18.6756 26.9553 19.0447 27.3244 19.5 27.3244C19.9553 27.3244 20.3244 26.9553 20.3244 26.5C20.3244 26.0447 19.9553 25.6756 19.5 25.6756C19.0447 25.6756 18.6756 26.0447 18.6756 26.5Z"/>
</mask>
<path d="M21 26.5C21 27.3284 20.3284 28 19.5 28C18.6716 28 18 27.3284 18 26.5C18 25.6716 18.6716 25 19.5 25C20.3284 25 21 25.6716 21 26.5ZM18.6756 26.5C18.6756 26.9553 19.0447 27.3244 19.5 27.3244C19.9553 27.3244 20.3244 26.9553 20.3244 26.5C20.3244 26.0447 19.9553 25.6756 19.5 25.6756C19.0447 25.6756 18.6756 26.0447 18.6756 26.5Z" fill="#04C4FF" stroke="#343434" stroke-width="2" mask="url(#path-8-inside-1)"/>
</svg>
