<svg width="48" height="48" viewBox="0 0 48 48" fill="none" xmlns="http://www.w3.org/2000/svg">
<rect width="48" height="48" fill="#343434"/>
<path d="M10 40.0001V12.0001L15.25 13.0033L20.5 14.0065L25.75 15.0097L31 16.0129V36.6116L25.75 37.4587L20.5 38.3059L15.25 39.153L10 40.0001Z" fill="#343434"/>
<path d="M20.5 14.0065V38.3059M20.5 14.0065L25.75 15.0097M20.5 14.0065L15.25 13.0033M20.5 38.3059L25.75 37.4587M20.5 38.3059L15.25 39.153M25.75 37.4587L31 36.6116V16.0129L25.75 15.0097M25.75 37.4587V15.0097M15.25 13.0033L10 12.0001V40.0001L15.25 39.153M15.25 13.0033V39.153" stroke="#04C4FF" stroke-width="2.6"/>
<path d="M22.377 22.6842C23.3393 21.8419 24.197 21.7368 25.1053 21.9734C29.7503 15.9934 36.6683 7.32642 36.9956 6.96711C37.323 6.60781 38.1056 4.98734 40.2662 6.60779C42.4268 8.22824 41.4926 9.30571 41.3169 9.66777C41.1412 10.0298 28.3362 24.617 28.3362 24.617C28.3362 24.617 29.2132 25.4131 28.6299 26.9667L23.8236 33.7643L16.963 28.0113L22.377 22.6842Z" fill="#04C4FF"/>
<path d="M28.3362 24.617C28.3362 24.617 29.2132 25.4131 28.6299 26.9667L23.8236 33.7643L16.963 28.0113L22.377 22.6842C23.3393 21.8419 24.197 21.7368 25.1053 21.9734M28.3362 24.617C28.3362 24.617 41.1412 10.0298 41.3169 9.66777C41.4926 9.30572 42.4268 8.22824 40.2662 6.60779C38.1056 4.98734 37.323 6.60781 36.9956 6.96711C36.6683 7.32642 29.7503 15.9934 25.1053 21.9734M28.3362 24.617C28.3362 24.617 27.474 23.6544 26.8676 23.1483C26.2775 22.6558 25.1053 21.9734 25.1053 21.9734" stroke="#343434" stroke-width="2"/>
</svg>
