<svg width="48" height="48" viewBox="0 0 48 48" fill="none" xmlns="http://www.w3.org/2000/svg">
<rect width="48" height="48" fill="#343434"/>
<path d="M36.264 26.8666L32.667 28.6453L29.2196 26.875L32.75 25.0621L36.264 26.8666ZM31.6554 24.5L28.125 26.3129L24.5946 24.5L28.125 22.6871L31.6554 24.5ZM23.5 25.0621L27.0304 26.875L23.3675 28.756L19.8714 26.9254L23.5 25.0621ZM27.0304 22.125L23.5 23.9379L19.9696 22.125L23.5 20.3121L27.0304 22.125ZM18.875 22.6871L22.4054 24.5L18.7874 26.3579L15.2913 24.5274L18.875 22.6871ZM22.4054 19.75L18.875 21.5629L15.3446 19.75L18.875 17.9371L22.4054 19.75ZM14.25 20.3121L17.7804 22.125L14.2073 23.9598L10.7112 22.1293L14.25 20.3121ZM23.5 19.1879L19.9696 17.375L23.5 15.5621L27.0304 17.375L23.5 19.1879ZM24.5946 19.75L28.125 17.9371L31.6554 19.75L28.125 21.5629L24.5946 19.75ZM29.2196 22.125L32.75 20.3121L36.2804 22.125L32.75 23.9379L29.2196 22.125ZM37.375 22.6871L40.9054 24.5L37.375 26.3129L33.8446 24.5L37.375 22.6871ZM9.62277 22.6882L13.1189 24.5187L9.625 26.3129L6.09456 24.5L9.62277 22.6882ZM23.5 33.4379L19.9696 31.625L23.3631 29.8824L26.8592 31.7129L23.5 33.4379ZM18.783 27.4843L22.2791 29.3149L18.875 31.0629L15.3446 29.25L18.783 27.4843ZM17.699 26.9168L14.25 28.6879L10.7196 26.875L14.2029 25.0863L17.699 26.9168ZM24.4515 29.3235L28.125 27.4371L31.5518 29.1968L27.7757 31.064L24.4515 29.3235Z" fill="#04C4FF" stroke="#343434"/>
</svg>
