<svg width="380" height="380" viewBox="0 0 380 380" fill="none" xmlns="http://www.w3.org/2000/svg">
<g filter="url(#filter0_dddd)">
<path d="M176.119 136.039C174.102 136.09 168.919 136.513 167.931 136.708C166.952 136.902 166.327 138.841 166.226 141.999C166.116 145.445 166.766 148.044 167.897 148.637C168.159 148.781 170.886 148.975 174.305 149.111C175.672 149.162 176.812 149.212 176.829 149.229C176.845 149.246 176.862 151.354 176.871 153.903L176.879 158.542L176.406 157.882C175.664 156.84 174.668 155.757 173.199 154.385C171.789 153.073 170.953 152.404 170.168 151.964C169.915 151.82 169.4 151.498 169.029 151.261C168.387 150.838 167.636 150.423 167.636 150.482C167.636 150.499 167.813 150.635 168.024 150.787C168.235 150.94 168.387 151.083 168.37 151.1C168.353 151.117 168.058 151.075 167.712 150.99C167.146 150.863 167.104 150.846 167.323 150.779C167.45 150.728 167.551 150.66 167.551 150.618C167.551 150.406 167.036 150.355 165.357 150.398C161.76 150.499 153.547 151.685 151.707 152.37C151.327 152.506 151.268 152.599 151.453 152.717C151.521 152.751 151.588 152.853 151.622 152.929C151.698 153.149 152.314 153.556 153.505 154.191C154.087 154.504 154.695 154.885 154.864 155.037C155.86 155.994 159.532 160.456 160.604 162.013L160.781 162.276L155.961 163.233C153.302 163.766 150.905 164.274 150.634 164.359C150.356 164.452 149.917 164.663 149.664 164.833C149.402 165.002 149.047 165.214 148.87 165.298C148.364 165.561 148.246 165.781 147.925 167.093C147.359 169.371 147.249 170.42 147.325 173.104C147.351 174.222 147.418 175.669 147.469 176.321C147.536 177.193 147.528 178.159 147.46 179.962C147.401 181.316 147.376 183.23 147.41 184.237C147.435 185.236 147.469 186.667 147.469 187.404L147.486 188.758L146.608 188.945C144.075 189.478 142.058 190.087 140.167 190.892C138.149 191.747 137.449 192.314 137.018 193.423C136.765 194.092 136.41 195.472 136.242 196.471C135.921 198.334 135.921 200.857 136.233 205.657C136.377 207.934 136.402 209.035 136.385 213.192L136.36 218.06L136.596 218.593C137.339 220.278 138.968 221.836 141.855 223.622C143.071 224.376 144.996 225.586 147.587 227.22C153.716 231.081 160.764 234.696 169.088 238.218C172.017 239.463 174.608 240.453 178.669 241.884C182.029 243.069 182.94 243.366 183.776 243.543C184.114 243.62 184.713 243.764 185.11 243.857C186.106 244.102 187.338 244.034 189.499 243.637C192.184 243.129 192.758 242.968 202.626 239.759C211.084 237.016 219.028 233.892 226.136 230.505C227.275 229.964 228.854 229.261 229.639 228.939C237.413 225.807 240.723 224.063 242.723 222.039C243.356 221.404 243.415 221.32 243.652 220.6L243.905 219.838V214.123C243.905 210.982 243.939 207.325 243.981 205.996C244.057 203.38 243.897 199.604 243.66 198.249C243.441 197.021 243.027 196.082 242.428 195.438C242.065 195.049 242.512 195.226 231.732 191.171C229.174 190.206 227.841 189.664 227.866 189.596C227.883 189.537 227.959 189.215 228.026 188.877C228.482 186.659 228.432 183.89 227.824 177.295C227.773 176.804 227.739 176.135 227.739 175.796C227.739 174.603 227.461 173.841 226.726 173.036C226.068 172.317 224.675 171.58 223.097 171.115C222.75 171.013 221.687 170.666 220.733 170.353C219.779 170.031 218.125 169.54 217.061 169.269C214.073 168.49 207.649 166.416 206.99 166.018C205.918 165.366 204.871 164.545 201.908 162.056C201.233 161.488 200.347 160.76 199.925 160.439C199.511 160.117 198.844 159.609 198.447 159.304C197.62 158.661 195.611 157.628 194.412 157.23C193.121 156.798 191.914 156.553 190.766 156.502L189.71 156.451L186.553 157.094C184.814 157.442 183.371 157.721 183.354 157.696C183.337 157.679 183.371 157.306 183.43 156.874C183.666 155.257 183.54 151.354 183.202 149.475L183.151 149.212L184.958 149.153C186.908 149.094 190.833 148.882 192.099 148.772C192.791 148.713 192.918 148.671 193.129 148.467C193.872 147.756 194.345 145.58 194.345 142.837C194.345 139.629 193.703 137.283 192.69 136.801C192.251 136.589 187.828 136.225 183.843 136.064C181.986 135.988 178.416 135.98 176.119 136.039ZM182.822 150.389C182.814 151.058 182.788 151.812 182.746 152.066C182.704 152.387 182.679 152.015 182.67 150.855C182.67 149.797 182.695 149.187 182.746 149.187C182.797 149.187 182.83 149.644 182.822 150.389ZM152.078 152.963C152.053 152.988 151.977 152.997 151.918 152.971C151.85 152.946 151.875 152.921 151.968 152.921C152.061 152.912 152.112 152.938 152.078 152.963ZM177.327 157.823C177.318 158.822 177.31 158.847 177.259 158.246C177.166 157.247 177.166 156.493 177.259 156.637C177.301 156.705 177.335 157.238 177.327 157.823ZM149.318 165.586C149.123 165.755 148.845 166.052 148.718 166.23C148.448 166.602 148.406 166.585 148.6 166.213C148.735 165.95 149.453 165.273 149.596 165.273C149.647 165.273 149.52 165.417 149.318 165.586ZM148.592 165.908C148.516 166.026 148.44 166.12 148.414 166.12C148.372 166.12 148.457 165.967 148.583 165.798C148.727 165.612 148.735 165.688 148.592 165.908Z" fill="#505050"/>
</g>
<defs>
<filter id="filter0_dddd" x="130" y="130" width="120" height="120" filterUnits="userSpaceOnUse" color-interpolation-filters="sRGB">
<feFlood flood-opacity="0" result="BackgroundImageFix"/>
<feColorMatrix in="SourceAlpha" type="matrix" values="0 0 0 0 0 0 0 0 0 0 0 0 0 0 0 0 0 0 127 0"/>
<feOffset dy="2"/>
<feGaussianBlur stdDeviation="0.5"/>
<feColorMatrix type="matrix" values="0 0 0 0 1 0 0 0 0 1 0 0 0 0 1 0 0 0 0.16 0"/>
<feBlend mode="normal" in2="BackgroundImageFix" result="effect1_dropShadow"/>
<feColorMatrix in="SourceAlpha" type="matrix" values="0 0 0 0 0 0 0 0 0 0 0 0 0 0 0 0 0 0 127 0"/>
<feOffset/>
<feGaussianBlur stdDeviation="1.5"/>
<feColorMatrix type="matrix" values="0 0 0 0 1 0 0 0 0 1 0 0 0 0 1 0 0 0 0.5 0"/>
<feBlend mode="normal" in2="effect1_dropShadow" result="effect2_dropShadow"/>
<feColorMatrix in="SourceAlpha" type="matrix" values="0 0 0 0 0 0 0 0 0 0 0 0 0 0 0 0 0 0 127 0"/>
<feOffset/>
<feGaussianBlur stdDeviation="3"/>
<feColorMatrix type="matrix" values="0 0 0 0 1 0 0 0 0 1 0 0 0 0 1 0 0 0 0.5 0"/>
<feBlend mode="normal" in2="effect2_dropShadow" result="effect3_dropShadow"/>
<feColorMatrix in="SourceAlpha" type="matrix" values="0 0 0 0 0 0 0 0 0 0 0 0 0 0 0 0 0 0 127 0"/>
<feOffset/>
<feGaussianBlur stdDeviation="2"/>
<feColorMatrix type="matrix" values="0 0 0 0 1 0 0 0 0 1 0 0 0 0 1 0 0 0 0.64 0"/>
<feBlend mode="normal" in2="effect3_dropShadow" result="effect4_dropShadow"/>
<feBlend mode="normal" in="SourceGraphic" in2="effect4_dropShadow" result="shape"/>
</filter>
</defs>
</svg>
