<svg width="380" height="380" viewBox="0 0 380 380" fill="none" xmlns="http://www.w3.org/2000/svg">
<g filter="url(#filter0_dddd)">
<path d="M166.538 159.007C150.86 160.69 137.254 162.154 136.314 162.27C134.564 162.475 133.946 162.681 133.714 163.104C133.521 163.464 134.165 163.952 135.233 164.26C135.709 164.402 142.467 166.225 150.255 168.319C158.042 170.412 164.53 172.159 164.671 172.223C164.916 172.326 164.942 172.698 165.456 184.257C165.74 190.82 165.959 196.215 165.946 196.227C165.933 196.253 161.839 195.431 156.871 194.404C148.118 192.58 147.822 192.503 147.371 192.118C146.831 191.642 145.711 191.116 145.054 191.026C144.784 190.987 144.385 191.039 144.14 191.142L143.69 191.334L133.585 187.044C128.025 184.681 122.966 182.575 122.322 182.369C119.362 181.368 116.401 182.19 113.428 184.835C111.548 186.505 110.21 188.47 109.437 190.666C108.935 192.105 108.858 194.108 109.244 195.534C109.914 197.987 111.394 199.798 113.582 200.864C114.02 201.082 119.156 202.726 124.987 204.524L135.58 207.799L136.301 208.493L137.022 209.199L136.559 209.328C136.301 209.405 135.413 209.61 134.564 209.79C132.955 210.137 132.337 210.394 131.474 211.074C131.178 211.306 130.638 211.678 130.264 211.922C129.582 212.346 129.338 212.693 129.338 213.258C129.338 213.425 129.222 213.656 129.093 213.772C128.694 214.131 128.501 214.709 128.694 214.94C128.835 215.107 128.771 215.133 128.282 215.133C127.548 215.133 125.708 214.812 125.012 214.581C124.665 214.452 124.202 214.414 123.558 214.465C122.477 214.542 122.502 214.722 123.609 214.812C124.034 214.838 124.845 214.992 125.412 215.146C126.081 215.313 127.085 215.441 128.308 215.505C129.981 215.582 130.239 215.634 130.844 215.942C131.204 216.135 131.551 216.353 131.603 216.43C131.809 216.777 132.761 217.059 133.778 217.072H134.808L133.778 217.586C133.225 217.856 132.697 218.087 132.607 218.087C132.53 218.087 132.388 218.177 132.298 218.28C132.208 218.382 131.925 218.524 131.667 218.601C131.41 218.665 131.088 218.806 130.947 218.896C130.728 219.063 130.766 219.076 131.294 219.063C131.629 219.05 131.989 218.947 132.118 218.858C132.311 218.678 132.324 218.691 132.247 218.986L132.169 219.307L132.324 218.999C132.427 218.793 133.07 218.421 134.345 217.804L136.224 216.892L137.537 216.97C139.455 217.072 140.317 216.918 141.798 216.173C142.48 215.826 143.535 215.39 144.14 215.197C145.531 214.748 146.161 214.427 146.612 213.951L146.972 213.566L156.33 218.935C161.492 221.876 166.036 224.432 166.448 224.599C167.387 224.984 168.945 225.112 169.897 224.894C172.935 224.2 176.321 221.028 178.419 216.918C178.715 216.315 178.998 215.916 179.088 215.955C179.732 216.199 182.113 216.867 183.658 217.239C188.794 218.485 193.582 219.076 199.683 219.204C208.694 219.397 216.945 218.177 223.098 215.749C228.607 213.579 231.876 210.689 232.34 207.581C232.417 207.106 233.035 199.862 233.717 191.475C234.399 183.089 234.991 176.205 235.017 176.166C235.12 176.076 247.593 172.493 247.825 172.493C247.954 172.493 248.159 172.775 248.365 173.212C248.636 173.803 248.7 174.201 248.764 175.306C248.829 176.847 248.752 177.874 247.954 186.235C247.22 193.89 247.258 193.556 247.065 193.556C246.975 193.556 246.795 193.672 246.653 193.826C246.46 194.031 246.447 194.134 246.576 194.327C246.705 194.532 246.692 194.596 246.46 194.725C246.023 194.956 245.701 195.881 245.559 197.371C245.379 199.246 244.723 202.739 244.349 203.946C243.822 205.577 243.925 206.091 244.826 206.464C245.714 206.823 247.361 206.939 247.851 206.669C248.237 206.477 248.378 205.577 248.262 204.075C248.185 202.868 248.275 200.003 248.481 197.191C248.584 195.932 248.494 195.367 248.134 194.995C247.902 194.738 247.889 194.686 248.069 194.506C248.34 194.25 248.327 194.211 247.954 193.813L247.645 193.492L248.147 189.189C249.64 176.5 249.717 174.561 248.867 172.84L248.571 172.236L249.228 172.043C249.588 171.928 253.707 170.746 258.38 169.398C263.052 168.049 267.429 166.778 268.098 166.572C270.364 165.891 270.814 165.326 269.604 164.697C269.102 164.44 270.325 164.594 247.696 161.974C205.077 157.03 196.697 156.066 195.886 156.002C195.307 155.951 186.464 156.863 166.538 159.007ZM146.136 191.604C147.011 192.015 147.513 192.464 146.959 192.349C146.792 192.31 146.251 192.195 145.775 192.079C145.299 191.976 144.72 191.797 144.488 191.681C144.115 191.475 144.102 191.45 144.333 191.36C144.823 191.167 145.363 191.244 146.136 191.604ZM137.55 208.403C138.683 208.75 138.734 208.853 137.807 209.019C137.37 209.097 137.267 209.058 136.778 208.596C136.469 208.313 136.276 208.069 136.34 208.069C136.391 208.069 136.945 208.223 137.55 208.403Z" fill="#505050"/>
</g>
<defs>
<filter id="filter0_dddd" x="103" y="150" width="173.258" height="81" filterUnits="userSpaceOnUse" color-interpolation-filters="sRGB">
<feFlood flood-opacity="0" result="BackgroundImageFix"/>
<feColorMatrix in="SourceAlpha" type="matrix" values="0 0 0 0 0 0 0 0 0 0 0 0 0 0 0 0 0 0 127 0"/>
<feOffset dy="2"/>
<feGaussianBlur stdDeviation="0.5"/>
<feColorMatrix type="matrix" values="0 0 0 0 1 0 0 0 0 1 0 0 0 0 1 0 0 0 0.16 0"/>
<feBlend mode="normal" in2="BackgroundImageFix" result="effect1_dropShadow"/>
<feColorMatrix in="SourceAlpha" type="matrix" values="0 0 0 0 0 0 0 0 0 0 0 0 0 0 0 0 0 0 127 0"/>
<feOffset/>
<feGaussianBlur stdDeviation="1.5"/>
<feColorMatrix type="matrix" values="0 0 0 0 1 0 0 0 0 1 0 0 0 0 1 0 0 0 0.5 0"/>
<feBlend mode="normal" in2="effect1_dropShadow" result="effect2_dropShadow"/>
<feColorMatrix in="SourceAlpha" type="matrix" values="0 0 0 0 0 0 0 0 0 0 0 0 0 0 0 0 0 0 127 0"/>
<feOffset/>
<feGaussianBlur stdDeviation="3"/>
<feColorMatrix type="matrix" values="0 0 0 0 1 0 0 0 0 1 0 0 0 0 1 0 0 0 0.5 0"/>
<feBlend mode="normal" in2="effect2_dropShadow" result="effect3_dropShadow"/>
<feColorMatrix in="SourceAlpha" type="matrix" values="0 0 0 0 0 0 0 0 0 0 0 0 0 0 0 0 0 0 127 0"/>
<feOffset/>
<feGaussianBlur stdDeviation="2"/>
<feColorMatrix type="matrix" values="0 0 0 0 1 0 0 0 0 1 0 0 0 0 1 0 0 0 0.64 0"/>
<feBlend mode="normal" in2="effect3_dropShadow" result="effect4_dropShadow"/>
<feBlend mode="normal" in="SourceGraphic" in2="effect4_dropShadow" result="shape"/>
</filter>
</defs>
</svg>
