<svg width="380" height="380" viewBox="0 0 380 380" fill="none" xmlns="http://www.w3.org/2000/svg">
<g filter="url(#filter0_dddd)">
<path d="M223.787 148.001C222.932 147.988 222.086 148.2 221.231 148.933C220.005 150.039 219.124 150.223 219.74 152.068C220.299 153.298 219.993 154.33 222.281 154.173C222.545 157.103 222.158 159.28 220.978 160.797C219.178 161.261 217.715 160.37 216.162 159.844C215.224 159.005 213.749 158.705 212.296 158.382C209.892 158.152 208.551 158.99 207.459 160.077L206.509 158.615L203.847 156.687L204.333 153.53L206.509 150.882V149.42C201.68 149.339 196.371 149.206 192.018 149.187L191.532 150.628C193.451 151.225 195.235 151.313 197.32 152.577C197.946 153.796 198.942 156.096 197.574 158.149C196.074 158.589 195.039 158.312 192.504 160.31C192.228 161.227 192.524 162.234 191.047 162.979C188.798 163.682 186.122 164.112 183.316 164.441C180.332 164.627 177.641 164.913 174.148 164.929C169.615 164.75 167.338 164.165 163.523 162.259C161.495 161.226 159.318 159.942 155.813 156.687L150.49 153.064C146.476 151.657 144.903 152.604 145.189 154.759L148.801 163.234C148.801 163.234 148.083 162.875 146.625 162.259C145.166 161.644 143.698 160.516 142.527 160.31C141.356 160.104 139.733 159.562 138.176 161.051C136.619 162.54 136.484 163.57 136.739 165.395C136.995 167.219 136.939 167.758 138.176 169.272C139.412 170.786 141.07 171.399 142.759 170.734C144.449 170.068 144.905 167.804 144.935 166.623C144.965 165.443 142.886 166.009 142.886 166.009C143.103 167.049 143.238 167.436 142.886 167.831C142.534 168.226 141.997 168.331 141.555 167.937C141.114 167.544 140.693 166.974 140.837 166.136C140.982 165.298 141.199 164.257 142.527 163.954C143.855 163.651 144.449 164.202 146.139 164.929C147.829 165.655 149.286 166.856 149.286 166.856C149.286 166.856 150.741 168.975 151.948 171.941C153.155 174.907 154.124 178.721 154.124 178.721L155.074 183.318L155.284 187.982C154.536 186.144 153.788 185.775 153.04 185.212C152.082 185.938 150.942 186.482 150.998 188.225L151.209 193.001C151.506 194.443 152.293 195.067 153.384 195.183C154.109 195.327 154.835 194.151 155.56 193.001V197.132V200.522L157.736 201.475L158.834 202.937L159.045 212.302L155.581 212.365C154.402 212.406 154.206 211.749 153.532 211.412L152.856 212.979C153.364 213.19 153.673 214.056 155.37 214.018L159.383 213.954L159.681 219.816L159.723 213.954L163.122 213.912L163.08 212.28L160.165 212.196L159.953 202.577L161.115 196.157L161.348 188.657L163.291 185.501C166.997 183.511 170.565 183.239 175.606 182.831C179.596 183.038 182.5 183.414 186.23 183.806C189.439 184.336 192.109 185.127 194.194 186.221C195.58 186.114 198.136 189.78 198.059 191.306C197.955 193.384 198.629 199.483 198.292 199.06C198.338 199.293 197.444 206.951 197.32 207.768C196.941 210.257 195.749 213.242 194.806 214.568C194.216 215.399 191.367 218.418 189.483 218.679C189.483 218.679 180.432 220.833 179.471 221.094C178.579 221.336 169.519 223.052 167.642 223.509C164.953 224.165 160.617 225.212 158.94 225.204C158.94 225.204 144.441 226.549 141.809 226.899C136.394 227.62 136.171 230.26 136 231.793C158.441 226.693 223.762 225.523 241.509 231.263C246.418 232.851 242.968 228.705 240.538 227.874C237.987 227.001 236.451 226.619 232.321 224.717C228.19 222.815 225.848 220.663 223.872 218.679C221.895 216.694 220.8 214.839 219.288 211.899C217.776 208.959 217.186 207.695 216.394 203.912C215.602 200.128 215.908 192.28 215.908 192.28C215.958 189.58 216.548 187.556 217.112 185.501C217.269 184.878 217.439 184.241 217.598 183.615L217.767 182.937C218.114 181.608 218.508 180.25 219.056 178.721L220.492 176.539C221.978 177.954 222.931 179.915 222.921 182.831C221.444 184.065 219.584 183.407 217.767 182.937L217.598 183.615C218.097 185.084 218.904 186.152 220.26 186.475C221.155 187.504 222.481 187.67 224.125 187.196C225.44 186.9 226.217 186.057 226.787 185.013C228.069 184.276 228.093 181.028 228.709 178.954C229.438 170.817 229.084 162.147 227.505 153.297C227.06 150.762 226.121 149.704 225.329 148.212C224.816 148.096 224.3 148.008 223.787 148.001ZM154.797 157.907C159.304 161.686 164.749 164.628 170.954 166.222C171.775 166.567 172.325 167.489 170.673 167.138C164.515 165.705 158.172 162.273 154.129 158.717C153.721 158.241 154.101 157.776 154.797 157.907ZM208.07 161.617C209.79 159.776 211.689 159.4 214.527 160.272C216.254 160.803 217.184 162.284 216.489 162.116C215.795 161.947 215.402 161.446 214.03 160.97C211.145 159.968 209.18 161.733 208.765 162.016C207.945 162.575 208.013 161.578 208.07 161.617ZM213.719 194.503C213.583 192.731 213.753 188.269 215.506 183.346C216.519 180.501 217.929 179.658 217.369 180.74C216.808 181.823 216.55 181.889 215.85 184.18C214.142 189.775 214.37 193.204 214.349 194.512C214.328 195.82 213.855 196.275 213.719 194.503ZM226.314 160.02C227.717 166.707 227.406 170.839 226.394 176.9C226.355 177.791 225.519 178.536 225.275 176.86C226.02 170.638 226.154 166.075 225.475 159.996C225.779 159.446 226.195 159.32 226.314 160.02Z" fill="#505050"/>
</g>
<defs>
<filter id="filter0_dddd" x="130" y="142" width="120" height="95.7931" filterUnits="userSpaceOnUse" color-interpolation-filters="sRGB">
<feFlood flood-opacity="0" result="BackgroundImageFix"/>
<feColorMatrix in="SourceAlpha" type="matrix" values="0 0 0 0 0 0 0 0 0 0 0 0 0 0 0 0 0 0 127 0"/>
<feOffset dy="2"/>
<feGaussianBlur stdDeviation="0.5"/>
<feColorMatrix type="matrix" values="0 0 0 0 1 0 0 0 0 1 0 0 0 0 1 0 0 0 0.16 0"/>
<feBlend mode="normal" in2="BackgroundImageFix" result="effect1_dropShadow"/>
<feColorMatrix in="SourceAlpha" type="matrix" values="0 0 0 0 0 0 0 0 0 0 0 0 0 0 0 0 0 0 127 0"/>
<feOffset/>
<feGaussianBlur stdDeviation="1.5"/>
<feColorMatrix type="matrix" values="0 0 0 0 1 0 0 0 0 1 0 0 0 0 1 0 0 0 0.5 0"/>
<feBlend mode="normal" in2="effect1_dropShadow" result="effect2_dropShadow"/>
<feColorMatrix in="SourceAlpha" type="matrix" values="0 0 0 0 0 0 0 0 0 0 0 0 0 0 0 0 0 0 127 0"/>
<feOffset/>
<feGaussianBlur stdDeviation="3"/>
<feColorMatrix type="matrix" values="0 0 0 0 1 0 0 0 0 1 0 0 0 0 1 0 0 0 0.5 0"/>
<feBlend mode="normal" in2="effect2_dropShadow" result="effect3_dropShadow"/>
<feColorMatrix in="SourceAlpha" type="matrix" values="0 0 0 0 0 0 0 0 0 0 0 0 0 0 0 0 0 0 127 0"/>
<feOffset/>
<feGaussianBlur stdDeviation="2"/>
<feColorMatrix type="matrix" values="0 0 0 0 1 0 0 0 0 1 0 0 0 0 1 0 0 0 0.64 0"/>
<feBlend mode="normal" in2="effect3_dropShadow" result="effect4_dropShadow"/>
<feBlend mode="normal" in="SourceGraphic" in2="effect4_dropShadow" result="shape"/>
</filter>
</defs>
</svg>
