<svg width="256" height="256" viewBox="0 0 256 256" fill="none" xmlns="http://www.w3.org/2000/svg">
<path d="M256 128C256 198.692 198.692 256 128 256C57.3076 256 0 198.692 0 128C0 57.3076 57.3076 0 128 0C198.692 0 256 57.3076 256 128ZM1.02087 128C1.02087 198.129 57.8714 254.979 128 254.979C198.129 254.979 254.979 198.129 254.979 128C254.979 57.8714 198.129 1.02087 128 1.02087C57.8714 1.02087 1.02087 57.8714 1.02087 128Z" fill="#C4C4C4" fill-opacity="0.6"/>
<path d="M66.7072 182.24C65.8139 182.24 65.0072 182.08 64.2872 181.76C63.5672 181.427 62.9872 180.933 62.5472 180.28C62.1205 179.627 61.8939 178.813 61.8672 177.84H63.5672C63.5805 178.64 63.8605 179.333 64.4072 179.92C64.9539 180.493 65.7205 180.78 66.7072 180.78C67.6939 180.78 68.4339 180.507 68.9272 179.96C69.4339 179.413 69.6872 178.753 69.6872 177.98C69.6872 177.327 69.5272 176.793 69.2072 176.38C68.9005 175.967 68.4805 175.66 67.9472 175.46C67.4272 175.26 66.8539 175.16 66.2272 175.16H65.1872V173.74H66.2272C67.1339 173.74 67.8405 173.533 68.3472 173.12C68.8672 172.707 69.1272 172.127 69.1272 171.38C69.1272 170.753 68.9205 170.24 68.5072 169.84C68.1072 169.427 67.5072 169.22 66.7072 169.22C65.9339 169.22 65.3139 169.453 64.8472 169.92C64.3805 170.373 64.1205 170.947 64.0672 171.64H62.3672C62.4072 170.88 62.6072 170.207 62.9672 169.62C63.3405 169.033 63.8472 168.58 64.4872 168.26C65.1272 167.927 65.8672 167.76 66.7072 167.76C67.6139 167.76 68.3672 167.92 68.9672 168.24C69.5805 168.56 70.0405 168.987 70.3472 169.52C70.6672 170.053 70.8272 170.64 70.8272 171.28C70.8272 171.987 70.6339 172.633 70.2472 173.22C69.8605 173.793 69.2805 174.18 68.5072 174.38C69.3339 174.553 70.0205 174.947 70.5672 175.56C71.1139 176.173 71.3872 176.98 71.3872 177.98C71.3872 178.753 71.2072 179.467 70.8472 180.12C70.5005 180.76 69.9805 181.273 69.2872 181.66C68.5939 182.047 67.7339 182.24 66.7072 182.24ZM75.705 182V168H80.005C82.4717 168 84.285 168.627 85.445 169.88C86.6183 171.133 87.205 172.853 87.205 175.04C87.205 177.187 86.6183 178.887 85.445 180.14C84.285 181.38 82.4717 182 80.005 182H75.705ZM77.385 180.6H79.965C81.325 180.6 82.405 180.38 83.205 179.94C84.0183 179.487 84.5983 178.847 84.945 178.02C85.2917 177.18 85.465 176.187 85.465 175.04C85.465 173.867 85.2917 172.86 84.945 172.02C84.5983 171.18 84.0183 170.533 83.205 170.08C82.405 169.627 81.325 169.4 79.965 169.4H77.385V180.6ZM98.1237 182V168H106.644V169.38H99.8037V174.3H105.624V175.66H99.8037V182H98.1237ZM110.407 182V168H114.927C116.021 168 116.914 168.18 117.607 168.54C118.301 168.9 118.814 169.393 119.147 170.02C119.481 170.647 119.647 171.34 119.647 172.1C119.647 172.98 119.407 173.773 118.927 174.48C118.461 175.187 117.727 175.687 116.727 175.98L119.787 182H117.807L114.967 176.22H114.847H112.087V182H110.407ZM112.087 174.9H114.807C115.887 174.9 116.674 174.64 117.167 174.12C117.661 173.6 117.907 172.933 117.907 172.12C117.907 171.293 117.661 170.64 117.167 170.16C116.687 169.667 115.894 169.42 114.787 169.42H112.087V174.9ZM123.863 182V168H125.543V182H123.863ZM130.111 182V168H138.771V169.38H131.791V174.26H138.171V175.62H131.791V180.62H138.771V182H130.111ZM143 182V168H144.68L152.14 179.22V168H153.82V182H152.14L144.68 170.78V182H143ZM158.389 182V168H162.689C165.156 168 166.969 168.627 168.129 169.88C169.303 171.133 169.889 172.853 169.889 175.04C169.889 177.187 169.303 178.887 168.129 180.14C166.969 181.38 165.156 182 162.689 182H158.389ZM160.069 180.6H162.649C164.009 180.6 165.089 180.38 165.889 179.94C166.703 179.487 167.283 178.847 167.629 178.02C167.976 177.18 168.149 176.187 168.149 175.04C168.149 173.867 167.976 172.86 167.629 172.02C167.283 171.18 166.703 170.533 165.889 170.08C165.089 169.627 164.009 169.4 162.649 169.4H160.069V180.6ZM173.915 182V168H175.595V180.66H182.115V182H173.915ZM187.511 182V176.68L182.951 168H184.851L188.351 175.08L191.851 168H193.731L189.191 176.68V182H187.511Z" fill="white"/>
<path d="M109.054 71.9909L127.88 61.1829L146.914 72.0091L128 82.8171L109.054 71.9909Z" fill="white" stroke="#04C4FF" stroke-width="9"/>
<path d="M104.5 79.7158L123.5 90.6074V112.003L104.5 100.468V79.7158ZM132.5 112.003V90.6074L151.5 79.7158V100.468L132.5 112.003Z" fill="white" stroke="#E46070" stroke-width="9"/>
</svg>
