<svg width="256" height="256" viewBox="0 0 256 256" fill="none" xmlns="http://www.w3.org/2000/svg">
<path d="M67.205 204V190H71.725C72.8183 190 73.7117 190.18 74.405 190.54C75.0983 190.9 75.6117 191.393 75.945 192.02C76.2783 192.647 76.445 193.34 76.445 194.1C76.445 194.98 76.205 195.773 75.725 196.48C75.2583 197.187 74.525 197.687 73.525 197.98L76.585 204H74.605L71.765 198.22H71.645H68.885V204H67.205ZM68.885 196.9H71.605C72.685 196.9 73.4717 196.64 73.965 196.12C74.4583 195.6 74.705 194.933 74.705 194.12C74.705 193.293 74.4583 192.64 73.965 192.16C73.485 191.667 72.6917 191.42 71.585 191.42H68.885V196.9ZM80.6605 204V190H82.3405V204H80.6605ZM92.9289 204.24C91.6222 204.24 90.4756 203.94 89.4889 203.34C88.5022 202.727 87.7356 201.88 87.1889 200.8C86.6422 199.707 86.3689 198.447 86.3689 197.02C86.3689 195.593 86.6422 194.333 87.1889 193.24C87.7489 192.147 88.5356 191.293 89.5489 190.68C90.5756 190.067 91.7822 189.76 93.1689 189.76C94.7422 189.76 96.0489 190.14 97.0889 190.9C98.1422 191.66 98.8222 192.707 99.1289 194.04H97.1889C97.0022 193.2 96.5556 192.533 95.8489 192.04C95.1556 191.547 94.2622 191.3 93.1689 191.3C92.1422 191.3 91.2489 191.533 90.4889 192C89.7289 192.453 89.1356 193.107 88.7089 193.96C88.2956 194.813 88.0889 195.833 88.0889 197.02C88.0889 198.207 88.2956 199.227 88.7089 200.08C89.1222 200.933 89.6956 201.593 90.4289 202.06C91.1622 202.513 92.0156 202.74 92.9889 202.74C94.4822 202.74 95.6089 202.307 96.3689 201.44C97.1289 200.56 97.5622 199.36 97.6689 197.84H93.6289V196.52H99.3889V204H97.8489L97.7089 201.7C97.2022 202.513 96.5822 203.14 95.8489 203.58C95.1156 204.02 94.1422 204.24 92.9289 204.24ZM110.006 204.24C108.632 204.24 107.426 203.94 106.386 203.34C105.359 202.727 104.552 201.873 103.966 200.78C103.392 199.687 103.106 198.427 103.106 197C103.106 195.573 103.392 194.32 103.966 193.24C104.552 192.147 105.359 191.293 106.386 190.68C107.426 190.067 108.632 189.76 110.006 189.76C111.392 189.76 112.599 190.067 113.626 190.68C114.666 191.293 115.472 192.147 116.046 193.24C116.619 194.32 116.906 195.573 116.906 197C116.906 198.427 116.619 199.687 116.046 200.78C115.472 201.873 114.666 202.727 113.626 203.34C112.599 203.94 111.392 204.24 110.006 204.24ZM110.006 202.76C111.032 202.76 111.932 202.533 112.706 202.08C113.492 201.613 114.099 200.953 114.526 200.1C114.966 199.233 115.186 198.2 115.186 197C115.186 195.8 114.966 194.773 114.526 193.92C114.099 193.067 113.492 192.413 112.706 191.96C111.932 191.493 111.032 191.26 110.006 191.26C108.979 191.26 108.072 191.493 107.286 191.96C106.512 192.413 105.906 193.067 105.466 193.92C105.039 194.773 104.826 195.8 104.826 197C104.826 198.2 105.039 199.233 105.466 200.1C105.906 200.953 106.512 201.613 107.286 202.08C108.072 202.533 108.979 202.76 110.006 202.76ZM125.989 204.24C125.029 204.24 124.156 204.053 123.369 203.68C122.596 203.293 121.976 202.7 121.509 201.9C121.043 201.1 120.809 200.08 120.809 198.84V190H122.489V198.86C122.489 200.22 122.816 201.207 123.469 201.82C124.123 202.433 124.976 202.74 126.029 202.74C127.083 202.74 127.929 202.433 128.569 201.82C129.209 201.207 129.529 200.22 129.529 198.86V190H131.209V198.84C131.209 200.08 130.976 201.1 130.509 201.9C130.043 202.7 129.416 203.293 128.629 203.68C127.843 204.053 126.963 204.24 125.989 204.24ZM135.654 204V190H140.174C141.268 190 142.161 190.18 142.854 190.54C143.548 190.9 144.061 191.393 144.394 192.02C144.728 192.647 144.894 193.34 144.894 194.1C144.894 194.98 144.654 195.773 144.174 196.48C143.708 197.187 142.974 197.687 141.974 197.98L145.034 204H143.054L140.214 198.22H140.094H137.334V204H135.654ZM137.334 196.9H140.054C141.134 196.9 141.921 196.64 142.414 196.12C142.908 195.6 143.154 194.933 143.154 194.12C143.154 193.293 142.908 192.64 142.414 192.16C141.934 191.667 141.141 191.42 140.034 191.42H137.334V196.9ZM149.11 204V190H157.77V191.38H150.79V196.26H157.17V197.62H150.79V202.62H157.77V204H149.11ZM167.059 204.24C166.099 204.24 165.225 204.053 164.439 203.68C163.665 203.293 163.045 202.7 162.579 201.9C162.112 201.1 161.879 200.08 161.879 198.84V190H163.559V198.86C163.559 200.22 163.885 201.207 164.539 201.82C165.192 202.433 166.045 202.74 167.099 202.74C168.152 202.74 168.999 202.433 169.639 201.82C170.279 201.207 170.599 200.22 170.599 198.86V190H172.279V198.84C172.279 200.08 172.045 201.1 171.579 201.9C171.112 202.7 170.485 203.293 169.699 203.68C168.912 204.053 168.032 204.24 167.059 204.24ZM176.004 204L180.284 196.94L176.004 190H177.904L181.344 195.6L184.624 190H186.504L182.224 197.02L186.524 204H184.624L181.164 198.38L177.904 204H176.004Z" fill="white"/>
<path d="M256 128C256 198.692 198.692 256 128 256C57.3076 256 0 198.692 0 128C0 57.3076 57.3076 0 128 0C198.692 0 256 57.3076 256 128ZM1.02087 128C1.02087 198.129 57.8714 254.979 128 254.979C198.129 254.979 254.979 198.129 254.979 128C254.979 57.8714 198.129 1.02087 128 1.02087C57.8714 1.02087 1.02087 57.8714 1.02087 128Z" fill="#C4C4C4" fill-opacity="0.6"/>
<g clip-path="url(#clip0)">
<path d="M155.854 146.916C155.627 146.124 155.341 145.168 155.004 144.076C154.666 142.984 154.302 141.745 153.873 140.407C153.442 139.069 152.98 137.619 152.487 136.087C152.008 134.549 151.447 132.952 150.895 131.285C150.334 129.625 149.754 127.908 149.165 126.165C148.558 124.429 147.938 122.666 147.319 120.905C146.801 119.417 146.275 117.938 145.751 116.476H149.231V113.649H144.729C144.349 112.612 143.972 111.587 143.603 110.585C142.393 107.301 141.239 104.249 140.242 101.636C139.234 99.027 138.395 96.8521 137.807 95.3304C137.517 94.6045 137.318 94.0219 137.13 93.6286C137.966 92.0979 138.441 90.3413 138.441 88.4761C138.441 83.3206 134.807 79.0047 129.964 77.9431V66H125.341V77.9441C120.502 79.0057 116.864 83.3216 116.864 88.4771C116.864 90.5524 117.465 92.4873 118.484 94.1354C118.458 94.1464 118.429 94.1573 118.409 94.1743C118.215 94.5656 118.01 95.1741 117.707 95.9309C117.119 97.4526 116.279 99.6265 115.273 102.236C114.274 104.849 113.121 107.902 111.911 111.184C111.611 111.993 111.31 112.817 111.004 113.651H106.077V116.479H109.978C109.379 118.134 108.78 119.817 108.195 121.505C107.576 123.269 106.957 125.031 106.348 126.765C105.76 128.509 105.18 130.227 104.618 131.888C104.067 133.553 103.507 135.151 103.027 136.688C102.534 138.22 102.072 139.669 101.642 141.008C101.213 142.346 100.848 143.585 100.511 144.677C100.174 145.77 99.8862 146.725 99.6602 147.516C99.2071 149.098 98.9462 150.001 98.9462 150.001C98.9462 150.001 99.4461 149.204 100.318 147.81C100.755 147.114 101.275 146.26 101.86 145.28C102.447 144.3 103.126 143.2 103.832 141.985C104.538 140.772 105.306 139.457 106.118 138.067C106.94 136.681 107.753 135.196 108.625 133.673C109.483 132.146 110.373 130.567 111.276 128.963C112.157 127.351 113.054 125.71 113.951 124.071C115.362 121.52 116.736 118.954 118.045 116.48H126.369V121.617H128.938V116.48H137.785C139 118.77 140.267 121.127 141.562 123.474C142.458 125.113 143.357 126.751 144.238 128.363C145.14 129.968 146.031 131.547 146.889 133.074C147.76 134.596 148.573 136.082 149.396 137.467C150.207 138.858 150.976 140.173 151.683 141.385C152.39 142.601 153.069 143.697 153.654 144.681C154.239 145.662 154.758 146.514 155.196 147.211C156.068 148.605 156.568 149.403 156.568 149.403C156.568 149.403 156.307 148.497 155.854 146.916ZM127.653 80.7703C131.901 80.7703 135.359 84.2278 135.359 88.4771C135.359 92.7263 131.9 96.1829 127.653 96.1829C123.403 96.1829 119.946 92.7253 119.946 88.4771C119.946 84.2278 123.404 80.7703 127.653 80.7703ZM128.939 113.651V109.797H126.37V113.65H119.537C121.013 110.844 122.377 108.205 123.547 105.921C124.813 103.429 125.869 101.35 126.607 99.8964C126.727 99.6524 126.839 99.4343 126.946 99.2292C127.179 99.2451 127.415 99.265 127.654 99.265C128.061 99.265 128.461 99.2381 128.855 99.1943C128.873 99.2301 128.888 99.261 128.908 99.2979C129.646 100.751 130.703 102.829 131.967 105.323C133.222 107.769 134.69 110.614 136.292 113.649L128.939 113.651Z" fill="#04C4FF"/>
<path d="M127.757 92.3837C130.052 92.3837 131.921 90.5165 131.921 88.2201C131.921 85.9237 130.052 84.0565 127.757 84.0565C125.461 84.0565 123.592 85.9247 123.592 88.2211C123.592 90.5175 125.461 92.3837 127.757 92.3837ZM127.757 84.8263C129.627 84.8263 131.151 86.3489 131.151 88.2201C131.151 90.0913 129.628 91.6139 127.757 91.6139C125.886 91.6139 124.364 90.0923 124.364 88.2211C124.364 86.3499 125.886 84.8263 127.757 84.8263Z" fill="#04C4FF"/>
</g>
<defs>
<clipPath id="clip0">
<rect width="84" height="84" fill="white" transform="translate(86 66)"/>
</clipPath>
</defs>
</svg>
