<svg width="380" height="380" viewBox="0 0 380 380" fill="none" xmlns="http://www.w3.org/2000/svg">
<path d="M155.397 278V265.38H151.217V264H161.257V265.38H157.077V278H155.397ZM164.908 278V264H169.428C170.521 264 171.415 264.18 172.108 264.54C172.801 264.9 173.315 265.393 173.648 266.02C173.981 266.647 174.148 267.34 174.148 268.1C174.148 268.98 173.908 269.773 173.428 270.48C172.961 271.187 172.228 271.687 171.228 271.98L174.288 278H172.308L169.468 272.22H169.348H166.588V278H164.908ZM166.588 270.9H169.308C170.388 270.9 171.175 270.64 171.668 270.12C172.161 269.6 172.408 268.933 172.408 268.12C172.408 267.293 172.161 266.64 171.668 266.16C171.188 265.667 170.395 265.42 169.288 265.42H166.588V270.9ZM178.364 278V264H187.024V265.38H180.044V270.26H186.424V271.62H180.044V276.62H187.024V278H178.364ZM191.253 278V264H192.933V276.66H199.453V278H191.253ZM203.36 278V264H205.04V276.66H211.56V278H203.36ZM220.52 278.24C219.146 278.24 217.94 277.94 216.9 277.34C215.873 276.727 215.066 275.873 214.48 274.78C213.906 273.687 213.62 272.427 213.62 271C213.62 269.573 213.906 268.32 214.48 267.24C215.066 266.147 215.873 265.293 216.9 264.68C217.94 264.067 219.146 263.76 220.52 263.76C221.906 263.76 223.113 264.067 224.14 264.68C225.18 265.293 225.986 266.147 226.56 267.24C227.133 268.32 227.42 269.573 227.42 271C227.42 272.427 227.133 273.687 226.56 274.78C225.986 275.873 225.18 276.727 224.14 277.34C223.113 277.94 221.906 278.24 220.52 278.24ZM220.52 276.76C221.546 276.76 222.446 276.533 223.22 276.08C224.006 275.613 224.613 274.953 225.04 274.1C225.48 273.233 225.7 272.2 225.7 271C225.7 269.8 225.48 268.773 225.04 267.92C224.613 267.067 224.006 266.413 223.22 265.96C222.446 265.493 221.546 265.26 220.52 265.26C219.493 265.26 218.586 265.493 217.8 265.96C217.026 266.413 216.42 267.067 215.98 267.92C215.553 268.773 215.34 269.8 215.34 271C215.34 272.2 215.553 273.233 215.98 274.1C216.42 274.953 217.026 275.613 217.8 276.08C218.586 276.533 219.493 276.76 220.52 276.76Z" fill="white"/>
<path d="M379.283 189.641C379.283 294.378 294.378 379.283 189.641 379.283C84.9054 379.283 0 294.378 0 189.641C0 84.9054 84.9054 0 189.641 0C294.378 0 379.283 84.9054 379.283 189.641ZM1.51248 189.641C1.51248 293.542 85.7407 377.77 189.641 377.77C293.542 377.77 377.77 293.542 377.77 189.641C377.77 85.7407 293.542 1.51248 189.641 1.51248C85.7407 1.51248 1.51248 85.7407 1.51248 189.641Z" fill="#C4C4C4" fill-opacity="0.6"/>
<path d="M227.016 91H152.984C148.022 91 144 95.0224 144 99.9844V174.016C144 178.978 148.022 183 152.984 183H227.016C231.978 183 236 178.978 236 174.016V99.9844C236 95.0224 231.978 91 227.016 91Z" fill="url(#paint0_linear)"/>
<path d="M219.727 102.96H200.292C197.911 102.96 195.98 104.891 195.98 107.272V138.897C195.98 141.279 197.911 143.21 200.292 143.21H219.727C222.109 143.21 224.04 141.279 224.04 138.897V107.272C224.04 104.891 222.109 102.96 219.727 102.96Z" fill="white"/>
<path d="M179.707 102.96H160.272C157.891 102.96 155.96 104.891 155.96 107.272V161.897C155.96 164.279 157.891 166.21 160.272 166.21H179.707C182.089 166.21 184.02 164.279 184.02 161.897V107.272C184.02 104.891 182.089 102.96 179.707 102.96Z" fill="white"/>
<defs>
<linearGradient id="paint0_linear" x1="190" y1="91" x2="190" y2="183" gradientUnits="userSpaceOnUse">
<stop stop-color="#0091E6"/>
<stop offset="1" stop-color="#0079BF"/>
</linearGradient>
</defs>
</svg>
