<svg width="256" height="256" viewBox="0 0 256 256" fill="none" xmlns="http://www.w3.org/2000/svg">
<path d="M256 128C256 198.692 198.692 256 128 256C57.3076 256 0 198.692 0 128C0 57.3076 57.3076 0 128 0C198.692 0 256 57.3076 256 128ZM1.02087 128C1.02087 198.129 57.8714 254.979 128 254.979C198.129 254.979 254.979 198.129 254.979 128C254.979 57.8714 198.129 1.02087 128 1.02087C57.8714 1.02087 1.02087 57.8714 1.02087 128Z" fill="#C4C4C4" fill-opacity="0.6"/>
<path d="M69.568 204.24C68.3013 204.24 67.308 203.887 66.588 203.18C65.868 202.473 65.508 201.493 65.508 200.24H67.208C67.208 200.947 67.3813 201.54 67.728 202.02C68.0746 202.5 68.6813 202.74 69.548 202.74C70.388 202.74 70.968 202.507 71.288 202.04C71.6213 201.573 71.788 200.993 71.788 200.3V190H73.468V200.3C73.468 201.54 73.1213 202.507 72.428 203.2C71.748 203.893 70.7946 204.24 69.568 204.24ZM76.543 204L81.703 190H83.483L88.623 204H86.843L85.563 200.4H79.603L78.303 204H76.543ZM80.103 199.04H85.063L82.583 192.12L80.103 199.04ZM94.5906 204L89.3306 190H91.1506L95.5706 202.22L100.031 190H101.811L96.5506 204H94.5906ZM102.516 204L107.676 190H109.456L114.596 204H112.816L111.536 200.4H105.576L104.276 204H102.516ZM106.076 199.04H111.036L108.556 192.12L106.076 199.04ZM122.738 204.24C121.711 204.24 120.818 204.053 120.058 203.68C119.298 203.307 118.711 202.787 118.298 202.12C117.884 201.453 117.678 200.68 117.678 199.8H119.438C119.438 200.347 119.564 200.853 119.818 201.32C120.071 201.773 120.438 202.14 120.918 202.42C121.411 202.687 122.018 202.82 122.738 202.82C123.684 202.82 124.418 202.593 124.938 202.14C125.458 201.687 125.718 201.12 125.718 200.44C125.718 199.88 125.598 199.433 125.358 199.1C125.118 198.753 124.791 198.473 124.378 198.26C123.978 198.047 123.511 197.86 122.978 197.7C122.458 197.54 121.911 197.36 121.338 197.16C120.258 196.787 119.458 196.327 118.938 195.78C118.418 195.22 118.158 194.493 118.158 193.6C118.144 192.853 118.318 192.193 118.678 191.62C119.038 191.033 119.544 190.58 120.198 190.26C120.864 189.927 121.651 189.76 122.558 189.76C123.451 189.76 124.224 189.927 124.878 190.26C125.544 190.593 126.058 191.053 126.418 191.64C126.791 192.227 126.984 192.893 126.998 193.64H125.238C125.238 193.253 125.138 192.873 124.938 192.5C124.738 192.113 124.431 191.8 124.018 191.56C123.618 191.32 123.111 191.2 122.498 191.2C121.738 191.187 121.111 191.38 120.618 191.78C120.138 192.18 119.898 192.733 119.898 193.44C119.898 194.04 120.064 194.5 120.398 194.82C120.744 195.14 121.224 195.407 121.838 195.62C122.451 195.82 123.158 196.053 123.958 196.32C124.624 196.56 125.224 196.84 125.758 197.16C126.291 197.48 126.704 197.893 126.998 198.4C127.304 198.907 127.458 199.553 127.458 200.34C127.458 201.007 127.284 201.64 126.938 202.24C126.591 202.827 126.064 203.307 125.358 203.68C124.664 204.053 123.791 204.24 122.738 204.24ZM137.58 204.24C136.207 204.24 135.02 203.94 134.02 203.34C133.033 202.727 132.267 201.88 131.72 200.8C131.173 199.707 130.9 198.44 130.9 197C130.9 195.573 131.173 194.32 131.72 193.24C132.267 192.147 133.033 191.293 134.02 190.68C135.02 190.067 136.207 189.76 137.58 189.76C139.18 189.76 140.48 190.147 141.48 190.92C142.493 191.68 143.14 192.747 143.42 194.12H141.56C141.347 193.253 140.907 192.56 140.24 192.04C139.587 191.507 138.7 191.24 137.58 191.24C136.58 191.24 135.707 191.473 134.96 191.94C134.213 192.393 133.633 193.053 133.22 193.92C132.82 194.773 132.62 195.8 132.62 197C132.62 198.2 132.82 199.233 133.22 200.1C133.633 200.953 134.213 201.613 134.96 202.08C135.707 202.533 136.58 202.76 137.58 202.76C138.7 202.76 139.587 202.507 140.24 202C140.907 201.48 141.347 200.793 141.56 199.94H143.42C143.14 201.287 142.493 202.34 141.48 203.1C140.48 203.86 139.18 204.24 137.58 204.24ZM147.435 204V190H151.955C153.048 190 153.941 190.18 154.635 190.54C155.328 190.9 155.841 191.393 156.175 192.02C156.508 192.647 156.675 193.34 156.675 194.1C156.675 194.98 156.435 195.773 155.955 196.48C155.488 197.187 154.755 197.687 153.755 197.98L156.815 204H154.835L151.995 198.22H151.875H149.115V204H147.435ZM149.115 196.9H151.835C152.915 196.9 153.701 196.64 154.195 196.12C154.688 195.6 154.935 194.933 154.935 194.12C154.935 193.293 154.688 192.64 154.195 192.16C153.715 191.667 152.921 191.42 151.815 191.42H149.115V196.9ZM160.89 204V190H162.57V204H160.89ZM167.139 204V190H171.739C172.832 190 173.732 190.18 174.439 190.54C175.145 190.9 175.665 191.387 175.999 192C176.345 192.613 176.519 193.307 176.519 194.08C176.519 194.84 176.352 195.527 176.019 196.14C175.685 196.753 175.165 197.247 174.459 197.62C173.752 197.98 172.845 198.16 171.739 198.16H168.819V204H167.139ZM168.819 196.74H171.699C172.819 196.74 173.612 196.507 174.079 196.04C174.559 195.56 174.799 194.907 174.799 194.08C174.799 193.24 174.559 192.587 174.079 192.12C173.612 191.64 172.819 191.4 171.699 191.4H168.819V196.74ZM183.601 204V191.38H179.421V190H189.461V191.38H185.281V204H183.601Z" fill="white"/>
<path d="M164 59H92V131H164V59Z" fill="#04C4FF"/>
<path d="M140.366 115.25C141.816 117.618 143.703 119.359 147.04 119.359C149.843 119.359 151.634 117.958 151.634 116.022C151.634 113.702 149.794 112.88 146.709 111.53L145.017 110.805C140.135 108.725 136.891 106.119 136.891 100.61C136.891 95.536 140.758 91.6732 146.8 91.6732C151.102 91.6732 154.194 93.1703 156.423 97.0903L151.154 100.473C149.994 98.3932 148.743 97.5737 146.8 97.5737C144.818 97.5737 143.562 98.8309 143.562 100.473C143.562 102.503 144.819 103.325 147.722 104.582L149.414 105.306C155.162 107.771 158.408 110.285 158.408 115.935C158.408 122.026 153.623 125.363 147.197 125.363C140.913 125.363 136.854 122.369 134.867 118.445L140.366 115.25ZM116.465 115.837C117.528 117.722 118.495 119.317 120.819 119.317C123.042 119.317 124.445 118.447 124.445 115.065V92.0594H131.21V115.157C131.21 122.162 127.103 125.351 121.107 125.351C115.69 125.351 112.553 122.547 110.958 119.171L116.465 115.837Z" fill="black"/>
</svg>
