<svg width="380" height="380" viewBox="0 0 380 380" fill="none" xmlns="http://www.w3.org/2000/svg">
<path d="M379.283 189.641C379.283 294.378 294.378 379.283 189.641 379.283C84.9054 379.283 0 294.378 0 189.641C0 84.9054 84.9054 0 189.641 0C294.378 0 379.283 84.9054 379.283 189.641ZM1.51248 189.641C1.51248 293.542 85.7407 377.77 189.641 377.77C293.542 377.77 377.77 293.542 377.77 189.641C377.77 85.7407 293.542 1.51248 189.641 1.51248C85.7407 1.51248 1.51248 85.7407 1.51248 189.641Z" fill="#C4C4C4" fill-opacity="0.6"/>
<path d="M115.362 244.24C113.988 244.24 112.802 243.94 111.802 243.34C110.815 242.727 110.048 241.88 109.502 240.8C108.955 239.707 108.682 238.44 108.682 237C108.682 235.573 108.955 234.32 109.502 233.24C110.048 232.147 110.815 231.293 111.802 230.68C112.802 230.067 113.988 229.76 115.362 229.76C116.962 229.76 118.262 230.147 119.262 230.92C120.275 231.68 120.922 232.747 121.202 234.12H119.342C119.128 233.253 118.688 232.56 118.022 232.04C117.368 231.507 116.482 231.24 115.362 231.24C114.362 231.24 113.488 231.473 112.742 231.94C111.995 232.393 111.415 233.053 111.002 233.92C110.602 234.773 110.402 235.8 110.402 237C110.402 238.2 110.602 239.233 111.002 240.1C111.415 240.953 111.995 241.613 112.742 242.08C113.488 242.533 114.362 242.76 115.362 242.76C116.482 242.76 117.368 242.507 118.022 242C118.688 241.48 119.128 240.793 119.342 239.94H121.202C120.922 241.287 120.275 242.34 119.262 243.1C118.262 243.86 116.962 244.24 115.362 244.24ZM125.216 244V230H129.736C130.83 230 131.723 230.18 132.416 230.54C133.11 230.9 133.623 231.393 133.956 232.02C134.29 232.647 134.456 233.34 134.456 234.1C134.456 234.98 134.216 235.773 133.736 236.48C133.27 237.187 132.536 237.687 131.536 237.98L134.596 244H132.616L129.776 238.22H129.656H126.896V244H125.216ZM126.896 236.9H129.616C130.696 236.9 131.483 236.64 131.976 236.12C132.47 235.6 132.716 234.933 132.716 234.12C132.716 233.293 132.47 232.64 131.976 232.16C131.496 231.667 130.703 231.42 129.596 231.42H126.896V236.9ZM138.672 244V230H147.332V231.38H140.352V236.26H146.732V237.62H140.352V242.62H147.332V244H138.672ZM150.681 244L155.841 230H157.621L162.761 244H160.981L159.701 240.4H153.741L152.441 244H150.681ZM154.241 239.04H159.201L156.721 232.12L154.241 239.04ZM168.14 244V231.38H163.96V230H174V231.38H169.82V244H168.14ZM177.651 244V230H179.331V244H177.651ZM188.12 244L182.86 230H184.68L189.1 242.22L193.56 230H195.34L190.08 244H188.12ZM198.859 244V230H207.519V231.38H200.539V236.26H206.919V237.62H200.539V242.62H207.519V244H198.859ZM218.641 244V230H220.601L225.641 239.76L230.641 230H232.621V244H230.941V233L226.261 242H225.001L220.321 233.02V244H218.641ZM237.175 244V230H238.855V244H237.175ZM243.423 244V230H245.103L252.563 241.22V230H254.243V244H252.563L245.103 232.78V244H243.423ZM258.812 244V230H263.112C265.579 230 267.392 230.627 268.552 231.88C269.726 233.133 270.312 234.853 270.312 237.04C270.312 239.187 269.726 240.887 268.552 242.14C267.392 243.38 265.579 244 263.112 244H258.812ZM260.492 242.6H263.072C264.432 242.6 265.512 242.38 266.312 241.94C267.126 241.487 267.706 240.847 268.052 240.02C268.399 239.18 268.572 238.187 268.572 237.04C268.572 235.867 268.399 234.86 268.052 234.02C267.706 233.18 267.126 232.533 266.312 232.08C265.512 231.627 264.432 231.4 263.072 231.4H260.492V242.6Z" fill="white"/>
<path d="M201.285 162.242C201.285 162.242 198.655 163.787 197.834 166.719C196.878 170.126 197.237 172.29 196.569 175.767C196.006 178.694 193.296 181.672 193.296 181.672" stroke="#444444"/>
<path d="M229.301 145.128C225.184 153.152 209.468 162.255 202.922 161.251C202.922 161.251 202.063 161.086 201.574 160.83C201.105 160.584 200.497 160.004 200.497 160.004C195.954 155.093 194.372 136.852 198.481 128.845C202.917 120.199 213.413 116.836 221.923 121.333C230.434 125.829 233.737 136.483 229.301 145.128Z" fill="#04C4FF"/>
<path d="M200.497 160.004C200.497 160.004 201.105 160.584 201.574 160.83C202.063 161.086 202.922 161.251 202.922 161.251L202.56 164.016C202.523 164.318 202.178 164.467 201.939 164.283C201.911 164.262 201.886 164.237 201.865 164.21L201.17 163.297C200.76 162.759 200.178 162.383 199.525 162.232L198.67 162.035C198.527 162.002 198.401 161.917 198.316 161.796C198.096 161.481 198.22 161.041 198.569 160.89L200.497 160.004Z" fill="#04C4FF"/>
<path d="M205.701 127.284C202.287 130.518 201.729 135.512 200.208 133.858C198.686 132.205 200.219 128.242 203.633 125.007C207.046 121.772 211.047 120.49 212.569 122.143C214.09 123.797 209.114 124.049 205.701 127.284Z" fill="white" fill-opacity="0.5"/>
<path d="M174.925 131.663C177.685 140.619 172.187 159.72 166.595 161.494C161.004 163.269 145.759 150.752 142.998 141.796C140.238 132.84 145.147 123.312 153.963 120.514C162.779 117.716 172.164 122.707 174.925 131.663Z" fill="white"/>
<path d="M174.925 131.663C177.685 140.619 172.187 159.72 166.595 161.494C161.004 163.269 145.759 150.752 142.998 141.796C140.238 132.84 145.147 123.312 153.963 120.514C162.779 117.716 172.164 122.707 174.925 131.663Z" fill="#04C4FF"/>
<path d="M147.744 132.278C146.418 136.822 148.431 141.414 146.293 140.771C144.155 140.129 143.498 135.924 144.824 131.38C146.151 126.835 148.959 123.672 151.097 124.315C153.235 124.958 149.071 127.734 147.744 132.278Z" fill="white" fill-opacity="0.5"/>
<path d="M166.893 161.255C166.893 161.255 165.977 164.195 167.318 166.922C168.876 170.092 170.578 171.445 172.395 174.47C173.924 177.017 173.9 181.071 173.9 181.071" stroke="#444444"/>
<path d="M164.582 161.788C165.171 160.317 167.133 160.043 168.093 161.296L169.724 163.426C169.947 163.716 169.772 164.141 169.409 164.191V164.191C169.366 164.197 169.323 164.198 169.28 164.192L167.907 164.011C167.095 163.904 166.271 164.086 165.578 164.527L164.676 165.101C164.522 165.199 164.337 165.236 164.158 165.204V165.204C163.701 165.125 163.435 164.645 163.608 164.214L164.582 161.788Z" fill="#04C4FF"/>
<path d="M183.628 154.234C183.628 154.234 181.339 158.562 181.91 162.163C182.573 166.348 186.383 167.344 187.392 171.457C188.242 174.92 184.656 179.404 184.656 179.404" stroke="#444444"/>
<path d="M203.159 123.33C203.159 133.751 191.874 151.535 184.659 154.044C184.659 154.044 183.696 154.339 183.061 154.341C182.454 154.343 181.527 154.079 181.527 154.079C174.311 151.514 163.132 133.73 163.132 123.33C163.132 112.102 172.092 103 183.145 103C194.198 103 203.159 112.102 203.159 123.33Z" fill="#E46070"/>
<path d="M181.527 154.079C181.527 154.079 182.454 154.343 183.061 154.341C183.696 154.339 184.659 154.044 184.659 154.044L185.739 157.065C185.86 157.393 185.585 157.731 185.245 157.673C185.205 157.666 185.167 157.654 185.131 157.637L183.941 157.08C183.241 156.752 182.449 156.681 181.703 156.88L180.726 157.14C180.563 157.184 180.389 157.165 180.239 157.087C179.85 156.884 179.744 156.368 180.023 156.025L181.527 154.079Z" fill="#E46070"/>
<path d="M171.856 113.62C167.984 118.057 167.872 124.34 165.785 122.464C163.697 120.589 165.144 115.471 169.016 111.034C172.888 106.597 177.719 104.52 179.806 106.396C181.893 108.271 175.728 109.183 171.856 113.62Z" fill="white" fill-opacity="0.5"/>
</svg>
