<svg width="256" height="256" viewBox="0 0 256 256" fill="none" xmlns="http://www.w3.org/2000/svg">
<path d="M256 128C256 198.692 198.692 256 128 256C57.3076 256 0 198.692 0 128C0 57.3076 57.3076 0 128 0C198.692 0 256 57.3076 256 128ZM1.02087 128C1.02087 198.129 57.8714 254.979 128 254.979C198.129 254.979 254.979 198.129 254.979 128C254.979 57.8714 198.129 1.02087 128 1.02087C57.8714 1.02087 1.02087 57.8714 1.02087 128Z" fill="#C4C4C4" fill-opacity="0.6"/>
<path d="M89.3953 216L84.1353 202H85.9553L90.3753 214.22L94.8353 202H96.6153L91.3553 216H89.3953ZM103.989 216.24C102.963 216.24 102.069 216.053 101.309 215.68C100.549 215.307 99.9626 214.787 99.5492 214.12C99.1359 213.453 98.9292 212.68 98.9292 211.8H100.689C100.689 212.347 100.816 212.853 101.069 213.32C101.323 213.773 101.689 214.14 102.169 214.42C102.663 214.687 103.269 214.82 103.989 214.82C104.936 214.82 105.669 214.593 106.189 214.14C106.709 213.687 106.969 213.12 106.969 212.44C106.969 211.88 106.849 211.433 106.609 211.1C106.369 210.753 106.043 210.473 105.629 210.26C105.229 210.047 104.763 209.86 104.229 209.7C103.709 209.54 103.163 209.36 102.589 209.16C101.509 208.787 100.709 208.327 100.189 207.78C99.6692 207.22 99.4092 206.493 99.4092 205.6C99.3959 204.853 99.5692 204.193 99.9292 203.62C100.289 203.033 100.796 202.58 101.449 202.26C102.116 201.927 102.903 201.76 103.809 201.76C104.703 201.76 105.476 201.927 106.129 202.26C106.796 202.593 107.309 203.053 107.669 203.64C108.043 204.227 108.236 204.893 108.249 205.64H106.489C106.489 205.253 106.389 204.873 106.189 204.5C105.989 204.113 105.683 203.8 105.269 203.56C104.869 203.32 104.363 203.2 103.749 203.2C102.989 203.187 102.363 203.38 101.869 203.78C101.389 204.18 101.149 204.733 101.149 205.44C101.149 206.04 101.316 206.5 101.649 206.82C101.996 207.14 102.476 207.407 103.089 207.62C103.703 207.82 104.409 208.053 105.209 208.32C105.876 208.56 106.476 208.84 107.009 209.16C107.543 209.48 107.956 209.893 108.249 210.4C108.556 210.907 108.709 211.553 108.709 212.34C108.709 213.007 108.536 213.64 108.189 214.24C107.843 214.827 107.316 215.307 106.609 215.68C105.916 216.053 105.043 216.24 103.989 216.24ZM118.832 216.24C117.458 216.24 116.272 215.94 115.272 215.34C114.285 214.727 113.518 213.88 112.972 212.8C112.425 211.707 112.152 210.44 112.152 209C112.152 207.573 112.425 206.32 112.972 205.24C113.518 204.147 114.285 203.293 115.272 202.68C116.272 202.067 117.458 201.76 118.832 201.76C120.432 201.76 121.732 202.147 122.732 202.92C123.745 203.68 124.392 204.747 124.672 206.12H122.812C122.598 205.253 122.158 204.56 121.492 204.04C120.838 203.507 119.952 203.24 118.832 203.24C117.832 203.24 116.958 203.473 116.212 203.94C115.465 204.393 114.885 205.053 114.472 205.92C114.072 206.773 113.872 207.8 113.872 209C113.872 210.2 114.072 211.233 114.472 212.1C114.885 212.953 115.465 213.613 116.212 214.08C116.958 214.533 117.832 214.76 118.832 214.76C119.952 214.76 120.838 214.507 121.492 214C122.158 213.48 122.598 212.793 122.812 211.94H124.672C124.392 213.287 123.745 214.34 122.732 215.1C121.732 215.86 120.432 216.24 118.832 216.24ZM135.046 216.24C133.673 216.24 132.466 215.94 131.426 215.34C130.4 214.727 129.593 213.873 129.006 212.78C128.433 211.687 128.146 210.427 128.146 209C128.146 207.573 128.433 206.32 129.006 205.24C129.593 204.147 130.4 203.293 131.426 202.68C132.466 202.067 133.673 201.76 135.046 201.76C136.433 201.76 137.64 202.067 138.666 202.68C139.706 203.293 140.513 204.147 141.086 205.24C141.66 206.32 141.946 207.573 141.946 209C141.946 210.427 141.66 211.687 141.086 212.78C140.513 213.873 139.706 214.727 138.666 215.34C137.64 215.94 136.433 216.24 135.046 216.24ZM135.046 214.76C136.073 214.76 136.973 214.533 137.746 214.08C138.533 213.613 139.14 212.953 139.566 212.1C140.006 211.233 140.226 210.2 140.226 209C140.226 207.8 140.006 206.773 139.566 205.92C139.14 205.067 138.533 204.413 137.746 203.96C136.973 203.493 136.073 203.26 135.046 203.26C134.02 203.26 133.113 203.493 132.326 203.96C131.553 204.413 130.946 205.067 130.506 205.92C130.08 206.773 129.866 207.8 129.866 209C129.866 210.2 130.08 211.233 130.506 212.1C130.946 212.953 131.553 213.613 132.326 214.08C133.113 214.533 134.02 214.76 135.046 214.76ZM145.97 216V202H150.27C152.737 202 154.55 202.627 155.71 203.88C156.883 205.133 157.47 206.853 157.47 209.04C157.47 211.187 156.883 212.887 155.71 214.14C154.55 215.38 152.737 216 150.27 216H145.97ZM147.65 214.6H150.23C151.59 214.6 152.67 214.38 153.47 213.94C154.283 213.487 154.863 212.847 155.21 212.02C155.557 211.18 155.73 210.187 155.73 209.04C155.73 207.867 155.557 206.86 155.21 206.02C154.863 205.18 154.283 204.533 153.47 204.08C152.67 203.627 151.59 203.4 150.23 203.4H147.65V214.6ZM161.496 216V202H170.156V203.38H163.176V208.26H169.556V209.62H163.176V214.62H170.156V216H161.496Z" fill="white"/>
<path d="M156.357 68.0099L140.697 60.4701C138.885 59.5974 136.719 59.9656 135.296 61.3881L84.0331 108.128C82.6543 109.385 82.6559 111.556 84.0365 112.811L88.2239 116.618C89.3526 117.644 91.0526 117.719 92.2679 116.798L154 69.9658C156.071 68.3947 159.046 69.8719 159.046 72.4714V72.2896C159.046 70.4649 158.001 68.8014 156.357 68.0099Z" fill="#0065A9"/>
<path d="M156.357 127.599L140.697 135.139C138.885 136.011 136.719 135.643 135.296 134.221L84.0331 87.481C82.6543 86.2238 82.6559 84.053 84.0365 82.7978L88.2239 78.9911C89.3526 77.965 91.0526 77.8894 92.2679 78.8114L154 125.643C156.071 127.214 159.046 125.737 159.046 123.137V123.319C159.046 125.144 158.001 126.807 156.357 127.599Z" fill="#007ACC"/>
<path d="M140.698 135.14C138.885 136.012 136.719 135.644 135.296 134.221C137.049 135.974 140.046 134.732 140.046 132.253V63.3549C140.046 60.876 137.049 59.6345 135.296 61.3874C136.719 59.9648 138.885 59.5961 140.698 60.4681L156.355 67.9974C158 68.7886 159.046 70.4526 159.046 72.2782V123.33C159.046 125.156 158 126.82 156.355 127.611L140.698 135.14Z" fill="#1F9CF0"/>
</svg>
