<svg width="256" height="256" viewBox="0 0 256 256" fill="none" xmlns="http://www.w3.org/2000/svg">
<path d="M256 128C256 198.692 198.692 256 128 256C57.3076 256 0 198.692 0 128C0 57.3076 57.3076 0 128 0C198.692 0 256 57.3076 256 128ZM1.02087 128C1.02087 198.129 57.8714 254.979 128 254.979C198.129 254.979 254.979 198.129 254.979 128C254.979 57.8714 198.129 1.02087 128 1.02087C57.8714 1.02087 1.02087 57.8714 1.02087 128Z" fill="#C4C4C4" fill-opacity="0.6"/>
<path d="M134.82 108.021L208.563 127.782L134.82 167.521L47 127.781L134.82 108.021Z" fill="#505050"/>
<path d="M114.801 86.9222L143.196 91.1955L171.591 95.4689L165.88 114.46L160.169 133.451L138.556 127.301L116.942 121.152L115.872 104.037L114.801 86.9222Z" fill="white"/>
<path d="M120.552 119.474L120.221 114.171L138.12 103.371L141.593 107.994L155.913 99.3537L163.041 111.492L157.254 129.277L120.552 119.474Z" fill="#E46070"/>
<ellipse rx="5.82126" ry="5.94577" transform="matrix(0.989927 0.141578 -0.0699919 0.997548 124.265 96.6905)" fill="#C4C4C4"/>
<path d="M101.016 90.7908L129.411 95.0641L157.806 99.3374L152.095 118.328L146.384 137.319L124.77 131.17L103.157 125.02L102.086 107.905L101.016 90.7908Z" fill="white"/>
<path d="M106.767 123.342L106.435 118.039L124.335 107.239L127.808 111.862L142.128 103.222L149.256 115.36L143.469 133.146L106.767 123.342Z" fill="#04C4FF"/>
<ellipse rx="5.82126" ry="5.94577" transform="matrix(0.989927 0.141578 -0.0699919 0.997548 110.48 100.559)" fill="#C4C4C4"/>
<path d="M86.2322 94.7216L114.627 98.9949L143.023 103.268L137.311 122.259L131.6 141.25L109.987 135.101L88.3738 128.951L87.303 111.836L86.2322 94.7216Z" fill="white"/>
<path d="M91.9839 127.273L91.6521 121.97L109.551 111.17L113.025 115.793L127.344 107.153L134.472 119.291L128.686 137.077L91.9839 127.273Z" fill="#8C8C8C"/>
<ellipse rx="5.82126" ry="5.94577" transform="matrix(0.989927 0.141578 -0.0699919 0.997548 95.6963 104.49)" fill="#C4C4C4"/>
</svg>
