<svg width="380" height="380" viewBox="0 0 380 380" fill="none" xmlns="http://www.w3.org/2000/svg">
<path d="M379.283 189.641C379.283 294.378 294.378 379.283 189.641 379.283C84.9054 379.283 0 294.378 0 189.641C0 84.9054 84.9054 0 189.641 0C294.378 0 379.283 84.9054 379.283 189.641ZM1.51248 189.641C1.51248 293.542 85.7407 377.77 189.641 377.77C293.542 377.77 377.77 293.542 377.77 189.641C377.77 85.7407 293.542 1.51248 189.641 1.51248C85.7407 1.51248 1.51248 85.7407 1.51248 189.641Z" fill="#C4C4C4" fill-opacity="0.6"/>
<g filter="url(#filter0_f)">
<path d="M201.49 211.675C201.49 211.675 199.513 212.355 197.535 212.94C195.497 213.544 193.312 213.94 193.312 213.94L191.238 210.113C191.238 210.113 193.537 209.117 195.14 208.036C196.808 206.912 198.316 205.817 198.316 205.817L201.49 211.675Z" fill="#04C4FF"/>
<path d="M201.49 211.675C201.49 211.675 199.513 212.355 197.535 212.94C195.497 213.544 193.312 213.94 193.312 213.94L191.238 210.113C191.238 210.113 193.537 209.117 195.14 208.036C196.808 206.912 198.316 205.817 198.316 205.817L201.49 211.675Z" fill="url(#paint0_linear)"/>
</g>
<path d="M145.985 193.318L161.872 192.565L161.868 192.566L163.068 217.884L147.185 218.636L145.985 193.318Z" fill="#04C4FF"/>
<path d="M121.571 208.827L126.972 204.435L133.114 207.98L134.028 220.438L122.486 221.285L121.571 208.827Z" fill="#04C4FF"/>
<path d="M135.983 204.055L142.065 198.17L149.103 203.279L150.058 219.451L136.939 220.226L135.983 204.055Z" fill="#04C4FF"/>
<path d="M154.124 205.776L163.642 198.785L173.916 204.607L174.674 217.419L154.881 218.589L154.124 205.776Z" fill="#04C4FF"/>
<path d="M189.317 196.445L187.157 198.065L187.157 196.445L187.157 194.285L189.317 194.285L189.317 196.445Z" fill="#04C4FF"/>
<path d="M222.87 201.429L220.636 202.489L220.715 201.288L220.82 199.685L222.975 199.827L222.87 201.429Z" fill="#04C4FF"/>
<path d="M231.838 196.658L250.773 197.483L250.768 197.483L249.83 218.999L230.9 218.174L231.838 196.658Z" fill="#04C4FF"/>
<path d="M236.835 196.876L234.675 196.781L234.736 195.365L236.894 195.461L236.835 196.876Z" fill="#04C4FF"/>
<path d="M156.951 204.005L154.816 205.657L154.791 204.038L154.758 201.878L156.918 201.845L156.951 204.005Z" fill="#04C4FF"/>
<path d="M171.212 181.758L185.656 181.074L185.652 181.074L187.357 217.065L172.917 217.749L171.212 181.758Z" fill="#04C4FF"/>
<path d="M206.817 175.926L220.85 176.371L220.846 176.371L219.545 217.389L205.516 216.944L206.817 175.926Z" fill="#04C4FF"/>
<path d="M257.182 207.441L265.077 208.063L265.077 208.06L264.169 219.625L256.274 219.006L257.182 207.441Z" fill="#04C4FF"/>
<path d="M184.997 199.678L194.675 191.046L205.503 198.534L205.503 216.965L185.077 216.852L184.997 199.678Z" fill="#04C4FF"/>
<path d="M205.502 202.871L211.996 207.735L211.982 216.965H205.503L205.502 202.871Z" fill="#04C4FF"/>
<path d="M217.974 203.936L228.166 197.972L237.78 204.829L237.202 217.651L217.396 216.758L217.974 203.936Z" fill="#04C4FF"/>
<path d="M276.793 221.284C276.793 221.284 251.471 216.872 199.036 216.965C147.864 217.057 104 223.444 104 223.444" stroke="#04C4FF"/>
<path d="M203.209 218.99C249.171 218.894 269.66 225.673 269.66 225.673C269.66 225.673 245.732 221.021 219.172 223.816C198.317 226.012 185.251 228.154 169.383 230.755L168.684 230.87C146.039 234.582 118.567 237.923 120.424 230.87C122.28 223.816 158.353 219.085 203.209 218.99Z" fill="#04C4FF" stroke="#04C4FF"/>
<path d="M118.039 216.057L119.413 215.885L120.048 220.94L118.675 221.112L118.039 216.057Z" fill="#04C4FF"/>
<circle cx="118.579" cy="214.265" r="2.6999" fill="#04C4FF"/>
<path d="M115.635 217.709L116.853 217.556L117.417 222.039L116.199 222.192L115.635 217.709Z" fill="#04C4FF"/>
<circle cx="116.114" cy="216.119" r="2.3945" fill="#04C4FF"/>
<path d="M110.968 215.994L112.652 215.782L113.431 221.981L111.747 222.192L110.968 215.994Z" fill="#04C4FF"/>
<circle cx="111.631" cy="213.795" r="3.31069" fill="#04C4FF"/>
<path d="M268.993 215.282L270.375 215.349L270.13 220.438L268.748 220.371L268.993 215.282Z" fill="#04C4FF"/>
<circle cx="269.833" cy="213.61" r="2.6999" transform="rotate(9.92148 269.833 213.61)" fill="#04C4FF"/>
<path d="M265.444 215.045L266.671 215.073L266.568 219.59L265.341 219.563L265.444 215.045Z" fill="#04C4FF"/>
<circle cx="266.151" cy="213.543" r="2.3945" transform="rotate(8.4667 266.151 213.543)" fill="#04C4FF"/>
<path d="M273.29 216.942L274.218 217.069L273.747 220.486L272.819 220.358L273.29 216.942Z" fill="#04C4FF"/>
<circle cx="273.956" cy="215.864" r="1.8274" transform="rotate(15 273.956 215.864)" fill="#04C4FF"/>
<path d="M253.816 212.212L255.513 212.255L255.352 218.501L253.655 218.457L253.816 212.212Z" fill="#04C4FF"/>
<circle cx="254.801" cy="210.138" r="3.31069" transform="rotate(8.64157 254.801 210.138)" fill="#04C4FF"/>
<path d="M206.15 211.844L207.485 211.879L207.359 216.794L206.023 216.759L206.15 211.844Z" fill="#04C4FF"/>
<circle cx="206.925" cy="210.212" r="2.60548" transform="rotate(8.64157 206.925 210.212)" fill="#04C4FF"/>
<path d="M210.209 214.754L210.885 214.78L210.86 217.021L210.183 216.994L210.209 214.754Z" fill="#04C4FF"/>
<ellipse cx="210.589" cy="214.015" rx="1.32296" ry="1.18534" transform="rotate(8.64157 210.589 214.015)" fill="#04C4FF"/>
<path d="M205.859 159.579C204.871 162.761 199.387 167.215 197.371 166.589C195.355 165.962 193.361 159.184 194.35 156.002C195.339 152.821 198.717 151.042 201.895 152.03C205.073 153.018 206.848 156.397 205.859 159.579Z" fill="#04C4FF"/>
<path d="M205.859 159.579C204.871 162.761 199.387 167.215 197.371 166.589C195.355 165.962 193.361 159.184 194.35 156.002C195.339 152.821 198.717 151.042 201.895 152.03C205.073 153.018 206.848 156.397 205.859 159.579Z" fill="#04C4FF"/>
<path d="M197.678 154.193C196.368 155.249 196.038 157.003 195.534 156.377C195.03 155.752 195.683 154.389 196.994 153.333C198.304 152.277 199.774 151.928 200.279 152.553C200.783 153.179 198.988 153.137 197.678 154.193Z" fill="#04C4FF"/>
<path d="M197.507 166.579C197.507 166.579 196.643 167.251 196.49 168.322C196.312 169.567 196.544 170.311 196.472 171.567C196.411 172.624 195.586 173.803 195.586 173.803" stroke="#04C4FF" stroke-width="0.5"/>
<path d="M196.802 166.42C197.173 166.178 197.667 166.427 197.692 166.869L197.735 167.631C197.741 167.735 197.632 167.806 197.539 167.759V167.759C197.528 167.754 197.519 167.747 197.51 167.739L197.217 167.475C197.044 167.319 196.823 167.229 196.591 167.218L196.287 167.205C196.236 167.202 196.188 167.181 196.152 167.146V167.146C196.057 167.054 196.073 166.898 196.183 166.826L196.802 166.42Z" fill="#04C4FF"/>
<path d="M187.248 156.379C188.523 159.457 187.158 166.389 185.208 167.197C183.258 168.005 177.389 164.071 176.114 160.993C174.838 157.915 176.297 154.387 179.371 153.113C182.446 151.839 185.972 153.301 187.248 156.379Z" fill="#04C4FF"/>
<path d="M187.248 156.379C188.523 159.457 187.158 166.389 185.208 167.197C183.258 168.005 177.389 164.071 176.114 160.993C174.838 157.915 176.297 154.387 179.371 153.113C182.446 151.839 185.972 153.301 187.248 156.379Z" fill="#04C4FF"/>
<path d="M177.514 157.474C177.182 159.124 178.051 160.682 177.263 160.524C176.476 160.366 176.106 158.9 176.437 157.25C176.769 155.6 177.676 154.391 178.463 154.55C179.251 154.708 177.845 155.824 177.514 157.474Z" fill="#04C4FF"/>
<path d="M185.306 167.103C185.306 167.103 185.071 168.172 185.639 169.093C186.299 170.164 186.953 170.587 187.701 171.599C188.331 172.45 188.451 173.884 188.451 173.884" stroke="#04C4FF" stroke-width="0.5"/>
<path d="M184.662 167.432C184.792 167.008 185.331 166.883 185.634 167.208L186.154 167.766C186.225 167.842 186.187 167.966 186.085 167.989V167.989C186.074 167.992 186.062 167.993 186.05 167.993L185.656 167.977C185.423 167.968 185.195 168.04 185.01 168.18L184.768 168.364C184.727 168.395 184.677 168.41 184.626 168.406V168.406C184.495 168.395 184.407 168.266 184.446 168.139L184.662 167.432Z" fill="#04C4FF"/>
<path d="M197.399 152.537C197.778 156.753 193.493 164.639 190.823 164.88C188.152 165.12 182.529 158.124 182.15 153.909C181.771 149.693 184.877 145.969 189.088 145.59C193.299 145.211 197.02 148.322 197.399 152.537Z" fill="#04C4FF"/>
<path d="M197.399 152.537C197.778 156.753 193.493 164.639 190.823 164.88C188.152 165.12 182.529 158.124 182.15 153.909C181.771 149.693 184.877 145.969 189.088 145.59C193.299 145.211 197.02 148.322 197.399 152.537Z" fill="#04C4FF"/>
<path d="M190.979 164.803C190.979 164.803 190.253 166.506 190.592 167.838C190.986 169.387 192.471 169.63 192.994 171.14C193.435 172.411 192.22 174.217 192.22 174.217" stroke="#04C4FF" stroke-width="0.5"/>
<path d="M190.141 164.774C190.459 164.31 191.161 164.363 191.404 164.871L191.823 165.745C191.88 165.864 191.787 166 191.655 165.99V165.99C191.64 165.989 191.625 165.986 191.611 165.981L191.139 165.812C190.861 165.713 190.557 165.714 190.279 165.814L189.916 165.945C189.855 165.967 189.788 165.966 189.729 165.941V165.941C189.573 165.879 189.516 165.688 189.61 165.55L190.141 164.774Z" fill="#04C4FF"/>
<path d="M185.178 150.615C184.151 152.489 184.613 154.708 183.718 154.218C182.823 153.727 182.931 151.81 183.958 149.935C184.986 148.061 186.544 146.939 187.439 147.429C188.334 147.92 186.206 148.74 185.178 150.615Z" fill="#04C4FF"/>
<g filter="url(#filter1_f)">
<path d="M164.17 193.09C164.17 193.09 166.036 194.059 167.883 194.959C169.785 195.885 171.769 196.692 171.769 196.692L172.731 194.326C172.731 194.326 170.517 193.046 168.887 191.866C167.192 190.638 165.642 189.469 165.642 189.469L164.17 193.09Z" fill="#04C4FF"/>
<path d="M164.17 193.09C164.17 193.09 166.036 194.059 167.883 194.959C169.785 195.885 171.769 196.692 171.769 196.692L172.731 194.326C172.731 194.326 170.517 193.046 168.887 191.866C167.192 190.638 165.642 189.469 165.642 189.469L164.17 193.09Z" fill="url(#paint1_linear)"/>
</g>
<path d="M151.882 208.244H150.787C150.685 208.244 150.605 208.236 150.546 208.22C150.492 208.205 150.451 208.177 150.423 208.138C150.4 208.095 150.384 208.037 150.376 207.963C150.373 207.884 150.371 207.787 150.371 207.67C150.371 207.552 150.373 207.457 150.376 207.382C150.384 207.308 150.4 207.25 150.423 207.207C150.451 207.164 150.492 207.134 150.546 207.119C150.605 207.103 150.685 207.095 150.787 207.095H152.796H152.931H155.076C155.177 207.095 155.255 207.103 155.31 207.119C155.369 207.134 155.412 207.164 155.439 207.207C155.466 207.25 155.482 207.308 155.486 207.382C155.494 207.457 155.498 207.552 155.498 207.67C155.498 207.787 155.494 207.884 155.486 207.963C155.482 208.037 155.466 208.095 155.439 208.138C155.412 208.177 155.369 208.205 155.31 208.22C155.255 208.236 155.177 208.244 155.076 208.244H153.98L153.746 216.629C153.742 216.707 153.73 216.769 153.71 216.816C153.695 216.863 153.66 216.9 153.605 216.927C153.55 216.955 153.468 216.974 153.359 216.986C153.253 216.994 153.111 216.998 152.931 216.998C152.751 216.998 152.609 216.994 152.503 216.986C152.398 216.978 152.316 216.961 152.257 216.933C152.203 216.906 152.167 216.867 152.152 216.816C152.136 216.761 152.126 216.689 152.123 216.599L151.882 208.244ZM157.894 207.593C157.909 207.484 157.935 207.394 157.97 207.324C158.009 207.254 158.077 207.199 158.175 207.16C158.276 207.121 158.421 207.095 158.608 207.084C158.796 207.068 159.05 207.06 159.37 207.06C159.687 207.06 159.938 207.068 160.126 207.084C160.313 207.095 160.456 207.121 160.554 207.16C160.655 207.199 160.724 207.254 160.759 207.324C160.794 207.394 160.821 207.484 160.841 207.593L162.394 216.541C162.409 216.646 162.407 216.73 162.388 216.793C162.372 216.851 162.333 216.896 162.271 216.927C162.212 216.959 162.13 216.978 162.024 216.986C161.919 216.994 161.79 216.998 161.638 216.998C161.45 216.998 161.3 216.994 161.187 216.986C161.077 216.978 160.991 216.959 160.929 216.927C160.866 216.896 160.819 216.851 160.788 216.793C160.761 216.73 160.739 216.646 160.724 216.541L160.483 215.14H158.251L158.011 216.541C157.991 216.646 157.968 216.73 157.94 216.793C157.913 216.851 157.868 216.896 157.806 216.927C157.743 216.959 157.655 216.978 157.542 216.986C157.433 216.994 157.284 216.998 157.097 216.998C156.944 216.998 156.815 216.994 156.71 216.986C156.608 216.978 156.526 216.959 156.464 216.927C156.401 216.896 156.36 216.851 156.341 216.793C156.321 216.73 156.321 216.646 156.341 216.541L157.894 207.593ZM160.29 214.027L159.394 208.83H159.341L158.444 214.027H160.29ZM163.747 207.582C163.743 207.48 163.752 207.398 163.776 207.336C163.799 207.273 163.848 207.224 163.922 207.189C164.001 207.154 164.11 207.131 164.251 207.119C164.391 207.103 164.579 207.095 164.813 207.095H164.96H166.295C166.698 207.095 167.071 207.132 167.415 207.207C167.762 207.277 168.063 207.39 168.317 207.547C168.571 207.699 168.768 207.896 168.909 208.138C169.053 208.377 169.12 208.666 169.108 209.006L169.032 211.789C169.028 211.937 169.004 212.088 168.961 212.24C168.922 212.392 168.86 212.539 168.774 212.679C168.688 212.816 168.577 212.945 168.44 213.066C168.307 213.187 168.143 213.293 167.948 213.382L169.043 216.166C169.098 216.306 169.139 216.422 169.167 216.511C169.198 216.597 169.213 216.672 169.213 216.734C169.213 216.781 169.206 216.822 169.19 216.857C169.174 216.888 169.139 216.916 169.085 216.939C169.034 216.959 168.96 216.974 168.862 216.986C168.764 216.994 168.635 216.998 168.475 216.998C168.319 216.998 168.192 216.992 168.094 216.98C168.001 216.964 167.922 216.939 167.86 216.904C167.797 216.869 167.745 216.822 167.702 216.763C167.663 216.701 167.62 216.623 167.573 216.529L166.348 213.658H165.704L165.622 216.599C165.622 216.689 165.612 216.761 165.592 216.816C165.577 216.867 165.54 216.906 165.481 216.933C165.426 216.961 165.346 216.978 165.241 216.986C165.135 216.994 164.993 216.998 164.813 216.998C164.633 216.998 164.489 216.994 164.379 216.986C164.274 216.978 164.194 216.961 164.139 216.933C164.085 216.906 164.047 216.867 164.028 216.816C164.012 216.761 164.002 216.689 163.999 216.599L163.747 207.582ZM166.172 212.703C166.36 212.703 166.516 212.689 166.641 212.662C166.766 212.631 166.864 212.582 166.934 212.515C167.008 212.449 167.059 212.361 167.086 212.252C167.118 212.138 167.131 212 167.127 211.836L167.045 208.818C167.042 208.666 167.026 208.545 166.999 208.455C166.971 208.361 166.922 208.289 166.852 208.238C166.782 208.187 166.686 208.154 166.565 208.138C166.448 208.119 166.295 208.109 166.108 208.109H165.862L165.733 212.703H166.172ZM170.906 207.582C170.902 207.48 170.912 207.398 170.936 207.336C170.959 207.273 171.008 207.224 171.082 207.189C171.16 207.154 171.27 207.131 171.41 207.119C171.551 207.103 171.738 207.095 171.973 207.095C172.203 207.095 172.389 207.103 172.529 207.119C172.67 207.131 172.777 207.154 172.852 207.189C172.93 207.224 172.981 207.273 173.004 207.336C173.031 207.398 173.043 207.48 173.039 207.582L172.781 216.599C172.781 216.689 172.772 216.761 172.752 216.816C172.736 216.867 172.699 216.906 172.641 216.933C172.586 216.961 172.506 216.978 172.4 216.986C172.295 216.994 172.152 216.998 171.973 216.998C171.793 216.998 171.648 216.994 171.539 216.986C171.434 216.978 171.354 216.961 171.299 216.933C171.244 216.906 171.207 216.867 171.188 216.816C171.172 216.761 171.162 216.689 171.158 216.599L170.906 207.582ZM177.345 212.785L178.418 207.623C178.445 207.509 178.476 207.42 178.511 207.353C178.55 207.283 178.607 207.228 178.681 207.189C178.759 207.15 178.861 207.125 178.986 207.113C179.115 207.101 179.283 207.095 179.49 207.095C179.83 207.095 180.082 207.117 180.246 207.16C180.414 207.199 180.498 207.291 180.498 207.435C180.498 207.486 180.496 207.531 180.492 207.57C180.488 207.609 180.48 207.648 180.468 207.687C180.461 207.726 180.451 207.767 180.439 207.81C180.427 207.849 180.414 207.894 180.398 207.945L178.962 212.785L180.293 216.166C180.347 216.306 180.388 216.422 180.416 216.511C180.447 216.597 180.462 216.672 180.462 216.734C180.462 216.781 180.455 216.822 180.439 216.857C180.423 216.888 180.388 216.916 180.334 216.939C180.283 216.959 180.209 216.974 180.111 216.986C180.013 216.994 179.884 216.998 179.724 216.998C179.587 216.998 179.476 216.992 179.39 216.98C179.308 216.964 179.24 216.939 179.185 216.904C179.134 216.869 179.089 216.822 179.05 216.763C179.015 216.701 178.978 216.623 178.939 216.529L177.345 212.785ZM174.984 207.582C174.98 207.48 174.99 207.398 175.013 207.336C175.037 207.273 175.086 207.224 175.16 207.189C175.238 207.154 175.347 207.131 175.488 207.119C175.628 207.103 175.816 207.095 176.05 207.095C176.281 207.095 176.466 207.103 176.607 207.119C176.748 207.131 176.855 207.154 176.929 207.189C177.007 207.224 177.058 207.273 177.082 207.336C177.109 207.398 177.121 207.48 177.117 207.582L176.859 216.599C176.859 216.689 176.849 216.761 176.83 216.816C176.814 216.867 176.777 216.906 176.718 216.933C176.664 216.961 176.584 216.978 176.478 216.986C176.373 216.994 176.23 216.998 176.05 216.998C175.871 216.998 175.726 216.994 175.617 216.986C175.511 216.978 175.431 216.961 175.377 216.933C175.322 216.906 175.285 216.867 175.265 216.816C175.25 216.761 175.24 216.689 175.236 216.599L174.984 207.582ZM185.319 207.582C185.315 207.48 185.325 207.398 185.348 207.336C185.372 207.273 185.421 207.224 185.495 207.189C185.573 207.154 185.682 207.131 185.823 207.119C185.963 207.103 186.151 207.095 186.385 207.095C186.616 207.095 186.801 207.103 186.942 207.119C187.083 207.131 187.19 207.154 187.264 207.189C187.342 207.224 187.393 207.273 187.417 207.336C187.444 207.398 187.456 207.48 187.452 207.582L187.212 215.908H188.741C188.842 215.908 188.921 215.918 188.975 215.937C189.034 215.953 189.075 215.982 189.098 216.025C189.126 216.064 189.141 216.119 189.145 216.189C189.153 216.259 189.157 216.347 189.157 216.453C189.157 216.558 189.153 216.646 189.145 216.716C189.141 216.787 189.126 216.843 189.098 216.886C189.075 216.925 189.034 216.955 188.975 216.974C188.921 216.99 188.842 216.998 188.741 216.998H186.385C186.206 216.998 186.061 216.994 185.952 216.986C185.846 216.978 185.766 216.961 185.712 216.933C185.657 216.906 185.62 216.867 185.6 216.816C185.585 216.761 185.575 216.689 185.571 216.599L185.319 207.582ZM190.574 209C190.567 208.707 190.615 208.439 190.721 208.197C190.826 207.955 190.992 207.748 191.219 207.576C191.449 207.404 191.744 207.271 192.104 207.177C192.467 207.08 192.902 207.031 193.41 207.031C193.914 207.031 194.346 207.08 194.705 207.177C195.068 207.271 195.365 207.404 195.596 207.576C195.826 207.748 195.994 207.955 196.1 208.197C196.205 208.439 196.254 208.707 196.246 209L196.076 215.211C196.068 215.464 196.014 215.705 195.912 215.931C195.811 216.158 195.652 216.355 195.438 216.523C195.227 216.691 194.953 216.824 194.617 216.922C194.285 217.019 193.883 217.068 193.41 217.068C192.938 217.068 192.533 217.019 192.197 216.922C191.861 216.824 191.586 216.691 191.371 216.523C191.16 216.355 191.004 216.158 190.902 215.931C190.801 215.705 190.746 215.464 190.738 215.211L190.574 209ZM192.467 215.263C192.463 215.427 192.477 215.564 192.508 215.673C192.543 215.783 192.598 215.871 192.672 215.937C192.75 216 192.85 216.045 192.971 216.072C193.092 216.099 193.238 216.113 193.41 216.113C193.582 216.113 193.729 216.099 193.85 216.072C193.971 216.045 194.068 216 194.143 215.937C194.221 215.871 194.276 215.783 194.307 215.673C194.342 215.564 194.358 215.427 194.354 215.263L194.184 208.818C194.18 208.646 194.16 208.509 194.125 208.408C194.09 208.306 194.039 208.228 193.973 208.173C193.91 208.119 193.832 208.084 193.738 208.068C193.645 208.048 193.535 208.039 193.41 208.039C193.285 208.039 193.176 208.048 193.082 208.068C192.988 208.084 192.908 208.119 192.842 208.173C192.779 208.228 192.731 208.306 192.695 208.408C192.66 208.509 192.641 208.646 192.637 208.818L192.467 215.263ZM198.074 207.582C198.07 207.48 198.08 207.398 198.103 207.336C198.127 207.273 198.175 207.224 198.25 207.189C198.328 207.154 198.437 207.131 198.578 207.119C198.722 207.103 198.91 207.095 199.14 207.095C199.371 207.095 199.556 207.103 199.697 207.119C199.838 207.131 199.945 207.154 200.019 207.189C200.097 207.224 200.148 207.273 200.172 207.336C200.199 207.398 200.211 207.48 200.207 207.582L200.007 215.263C200.004 215.427 200.017 215.564 200.048 215.673C200.084 215.783 200.138 215.871 200.213 215.937C200.291 216 200.39 216.045 200.511 216.072C200.632 216.099 200.779 216.113 200.951 216.113C201.123 216.113 201.269 216.099 201.39 216.072C201.511 216.045 201.609 216 201.683 215.937C201.761 215.871 201.816 215.783 201.847 215.673C201.882 215.564 201.898 215.427 201.894 215.263L201.689 207.582C201.685 207.48 201.695 207.398 201.718 207.336C201.742 207.273 201.791 207.224 201.865 207.189C201.943 207.154 202.052 207.131 202.193 207.119C202.334 207.103 202.521 207.095 202.756 207.095C202.986 207.095 203.172 207.103 203.312 207.119C203.453 207.131 203.56 207.154 203.634 207.189C203.713 207.224 203.763 207.273 203.787 207.336C203.814 207.398 203.826 207.48 203.822 207.582L203.617 215.211C203.609 215.464 203.554 215.705 203.453 215.931C203.351 216.158 203.193 216.355 202.978 216.523C202.767 216.691 202.494 216.824 202.158 216.922C201.826 217.019 201.423 217.068 200.951 217.068C200.478 217.068 200.074 217.019 199.738 216.922C199.402 216.824 199.127 216.691 198.912 216.523C198.701 216.355 198.545 216.158 198.443 215.931C198.341 215.705 198.289 215.464 198.285 215.211L198.074 207.582ZM206.64 207.593C206.655 207.484 206.681 207.394 206.716 207.324C206.755 207.254 206.823 207.199 206.921 207.16C207.023 207.121 207.167 207.095 207.355 207.084C207.542 207.068 207.796 207.06 208.116 207.06C208.433 207.06 208.685 207.068 208.872 207.084C209.06 207.095 209.202 207.121 209.3 207.16C209.402 207.199 209.47 207.254 209.505 207.324C209.54 207.394 209.568 207.484 209.587 207.593L211.14 216.541C211.155 216.646 211.153 216.73 211.134 216.793C211.118 216.851 211.079 216.896 211.017 216.927C210.958 216.959 210.876 216.978 210.771 216.986C210.665 216.994 210.536 216.998 210.384 216.998C210.196 216.998 210.046 216.994 209.933 216.986C209.823 216.978 209.737 216.959 209.675 216.927C209.612 216.896 209.566 216.851 209.534 216.793C209.507 216.73 209.486 216.646 209.47 216.541L209.23 215.14H206.997L206.757 216.541C206.737 216.646 206.714 216.73 206.687 216.793C206.659 216.851 206.614 216.896 206.552 216.927C206.489 216.959 206.402 216.978 206.288 216.986C206.179 216.994 206.03 216.998 205.843 216.998C205.691 216.998 205.562 216.994 205.456 216.986C205.355 216.978 205.273 216.959 205.21 216.927C205.148 216.896 205.107 216.851 205.087 216.793C205.068 216.73 205.068 216.646 205.087 216.541L206.64 207.593ZM209.036 214.027L208.14 208.83H208.087L207.191 214.027H209.036ZM213.507 208.244H212.411C212.309 208.244 212.229 208.236 212.171 208.22C212.116 208.205 212.075 208.177 212.048 208.138C212.024 208.095 212.008 208.037 212.001 207.963C211.997 207.884 211.995 207.787 211.995 207.67C211.995 207.552 211.997 207.457 212.001 207.382C212.008 207.308 212.024 207.25 212.048 207.207C212.075 207.164 212.116 207.134 212.171 207.119C212.229 207.103 212.309 207.095 212.411 207.095H214.421H214.555H216.7C216.801 207.095 216.88 207.103 216.934 207.119C216.993 207.134 217.036 207.164 217.063 207.207C217.091 207.25 217.106 207.308 217.11 207.382C217.118 207.457 217.122 207.552 217.122 207.67C217.122 207.787 217.118 207.884 217.11 207.963C217.106 208.037 217.091 208.095 217.063 208.138C217.036 208.177 216.993 208.205 216.934 208.22C216.88 208.236 216.801 208.244 216.7 208.244H215.604L215.37 216.629C215.366 216.707 215.354 216.769 215.335 216.816C215.319 216.863 215.284 216.9 215.229 216.927C215.175 216.955 215.092 216.974 214.983 216.986C214.878 216.994 214.735 216.998 214.555 216.998C214.376 216.998 214.233 216.994 214.128 216.986C214.022 216.978 213.94 216.961 213.882 216.933C213.827 216.906 213.792 216.867 213.776 216.816C213.76 216.761 213.751 216.689 213.747 216.599L213.507 208.244ZM219.518 207.593C219.533 207.484 219.559 207.394 219.594 207.324C219.633 207.254 219.701 207.199 219.799 207.16C219.901 207.121 220.045 207.095 220.233 207.084C220.42 207.068 220.674 207.06 220.994 207.06C221.311 207.06 221.563 207.068 221.75 207.084C221.938 207.095 222.08 207.121 222.178 207.16C222.28 207.199 222.348 207.254 222.383 207.324C222.418 207.394 222.446 207.484 222.465 207.593L224.018 216.541C224.033 216.646 224.031 216.73 224.012 216.793C223.996 216.851 223.957 216.896 223.895 216.927C223.836 216.959 223.754 216.978 223.649 216.986C223.543 216.994 223.414 216.998 223.262 216.998C223.074 216.998 222.924 216.994 222.811 216.986C222.701 216.978 222.615 216.959 222.553 216.927C222.49 216.896 222.444 216.851 222.412 216.793C222.385 216.73 222.363 216.646 222.348 216.541L222.108 215.14H219.875L219.635 216.541C219.615 216.646 219.592 216.73 219.565 216.793C219.537 216.851 219.492 216.896 219.43 216.927C219.367 216.959 219.28 216.978 219.166 216.986C219.057 216.994 218.908 216.998 218.721 216.998C218.569 216.998 218.44 216.994 218.334 216.986C218.233 216.978 218.151 216.959 218.088 216.927C218.026 216.896 217.985 216.851 217.965 216.793C217.946 216.73 217.946 216.646 217.965 216.541L219.518 207.593ZM221.914 214.027L221.018 208.83H220.965L220.069 214.027H221.914ZM225.371 207.582C225.367 207.48 225.377 207.398 225.4 207.336C225.424 207.273 225.472 207.224 225.547 207.189C225.625 207.154 225.734 207.131 225.875 207.119C226.015 207.103 226.203 207.095 226.437 207.095C226.668 207.095 226.853 207.103 226.994 207.119C227.135 207.131 227.242 207.154 227.316 207.189C227.394 207.224 227.445 207.273 227.468 207.336C227.496 207.398 227.508 207.48 227.504 207.582L227.381 211.847H229.103L228.986 207.582C228.982 207.48 228.992 207.398 229.015 207.336C229.039 207.273 229.088 207.224 229.162 207.189C229.24 207.154 229.349 207.131 229.49 207.119C229.631 207.103 229.818 207.095 230.052 207.095C230.283 207.095 230.468 207.103 230.609 207.119C230.75 207.131 230.857 207.154 230.931 207.189C231.01 207.224 231.06 207.273 231.084 207.336C231.111 207.398 231.123 207.48 231.119 207.582L230.861 216.599C230.857 216.689 230.845 216.761 230.826 216.816C230.81 216.867 230.775 216.906 230.72 216.933C230.666 216.961 230.586 216.978 230.48 216.986C230.375 216.994 230.232 216.998 230.052 216.998C229.873 216.998 229.728 216.994 229.619 216.986C229.513 216.978 229.433 216.961 229.379 216.933C229.324 216.906 229.287 216.867 229.267 216.816C229.252 216.761 229.242 216.689 229.238 216.599L229.138 212.961H227.351L227.246 216.599C227.246 216.689 227.236 216.761 227.217 216.816C227.201 216.867 227.164 216.906 227.105 216.933C227.051 216.961 226.97 216.978 226.865 216.986C226.76 216.994 226.617 216.998 226.437 216.998C226.258 216.998 226.113 216.994 226.004 216.986C225.898 216.978 225.818 216.961 225.763 216.933C225.709 216.906 225.672 216.867 225.652 216.816C225.636 216.761 225.627 216.689 225.623 216.599L225.371 207.582Z" fill="white"/>
<defs>
<filter id="filter0_f" x="190.738" y="205.317" width="11.2519" height="9.12318" filterUnits="userSpaceOnUse" color-interpolation-filters="sRGB">
<feFlood flood-opacity="0" result="BackgroundImageFix"/>
<feBlend mode="normal" in="SourceGraphic" in2="BackgroundImageFix" result="shape"/>
<feGaussianBlur stdDeviation="0.25" result="effect1_foregroundBlur"/>
</filter>
<filter id="filter1_f" x="163.67" y="188.969" width="9.56125" height="8.22264" filterUnits="userSpaceOnUse" color-interpolation-filters="sRGB">
<feFlood flood-opacity="0" result="BackgroundImageFix"/>
<feBlend mode="normal" in="SourceGraphic" in2="BackgroundImageFix" result="shape"/>
<feGaussianBlur stdDeviation="0.25" result="effect1_foregroundBlur"/>
</filter>
<linearGradient id="paint0_linear" x1="207.652" y1="207.655" x2="192.384" y2="214.857" gradientUnits="userSpaceOnUse">
<stop stop-color="white"/>
<stop offset="1" stop-color="white" stop-opacity="0"/>
</linearGradient>
<linearGradient id="paint1_linear" x1="157.937" y1="188.654" x2="174.011" y2="193.477" gradientUnits="userSpaceOnUse">
<stop stop-color="white"/>
<stop offset="1" stop-color="white" stop-opacity="0"/>
</linearGradient>
</defs>
</svg>
