<svg width="380" height="380" viewBox="0 0 380 380" fill="none" xmlns="http://www.w3.org/2000/svg">
<path d="M379.283 189.641C379.283 294.378 294.378 379.283 189.641 379.283C84.9054 379.283 0 294.378 0 189.641C0 84.9054 84.9054 0 189.641 0C294.378 0 379.283 84.9054 379.283 189.641ZM1.51248 189.641C1.51248 293.542 85.7407 377.77 189.641 377.77C293.542 377.77 377.77 293.542 377.77 189.641C377.77 85.7407 293.542 1.51248 189.641 1.51248C85.7407 1.51248 1.51248 85.7407 1.51248 189.641Z" fill="#C4C4C4" fill-opacity="0.6"/>
<path d="M152.086 266.24C150.712 266.24 149.526 265.94 148.526 265.34C147.539 264.727 146.772 263.88 146.226 262.8C145.679 261.707 145.406 260.44 145.406 259C145.406 257.573 145.679 256.32 146.226 255.24C146.772 254.147 147.539 253.293 148.526 252.68C149.526 252.067 150.712 251.76 152.086 251.76C153.686 251.76 154.986 252.147 155.986 252.92C156.999 253.68 157.646 254.747 157.926 256.12H156.066C155.852 255.253 155.412 254.56 154.746 254.04C154.092 253.507 153.206 253.24 152.086 253.24C151.086 253.24 150.212 253.473 149.466 253.94C148.719 254.393 148.139 255.053 147.726 255.92C147.326 256.773 147.126 257.8 147.126 259C147.126 260.2 147.326 261.233 147.726 262.1C148.139 262.953 148.719 263.613 149.466 264.08C150.212 264.533 151.086 264.76 152.086 264.76C153.206 264.76 154.092 264.507 154.746 264C155.412 263.48 155.852 262.793 156.066 261.94H157.926C157.646 263.287 156.999 264.34 155.986 265.1C154.986 265.86 153.686 266.24 152.086 266.24ZM167 266.24C166.04 266.24 165.167 266.053 164.38 265.68C163.607 265.293 162.987 264.7 162.52 263.9C162.053 263.1 161.82 262.08 161.82 260.84V252H163.5V260.86C163.5 262.22 163.827 263.207 164.48 263.82C165.133 264.433 165.987 264.74 167.04 264.74C168.093 264.74 168.94 264.433 169.58 263.82C170.22 263.207 170.54 262.22 170.54 260.86V252H172.22V260.84C172.22 262.08 171.987 263.1 171.52 263.9C171.053 264.7 170.427 265.293 169.64 265.68C168.853 266.053 167.973 266.24 167 266.24ZM176.665 266V252H181.185C182.278 252 183.172 252.18 183.865 252.54C184.558 252.9 185.072 253.393 185.405 254.02C185.738 254.647 185.905 255.34 185.905 256.1C185.905 256.98 185.665 257.773 185.185 258.48C184.718 259.187 183.985 259.687 182.985 259.98L186.045 266H184.065L181.225 260.22H181.105H178.345V266H176.665ZM178.345 258.9H181.065C182.145 258.9 182.932 258.64 183.425 258.12C183.918 257.6 184.165 256.933 184.165 256.12C184.165 255.293 183.918 254.64 183.425 254.16C182.945 253.667 182.152 253.42 181.045 253.42H178.345V258.9ZM190.121 266V252H191.801V266H190.121ZM196.369 266V252H205.029V253.38H198.049V258.26H204.429V259.62H198.049V264.62H205.029V266H196.369ZM214.318 266.24C213.358 266.24 212.485 266.053 211.698 265.68C210.925 265.293 210.305 264.7 209.838 263.9C209.371 263.1 209.138 262.08 209.138 260.84V252H210.818V260.86C210.818 262.22 211.145 263.207 211.798 263.82C212.451 264.433 213.305 264.74 214.358 264.74C215.411 264.74 216.258 264.433 216.898 263.82C217.538 263.207 217.858 262.22 217.858 260.86V252H219.538V260.84C219.538 262.08 219.305 263.1 218.838 263.9C218.371 264.7 217.745 265.293 216.958 265.68C216.171 266.053 215.291 266.24 214.318 266.24ZM223.263 266L227.543 258.94L223.263 252H225.163L228.603 257.6L231.883 252H233.763L229.483 259.02L233.783 266H231.883L228.423 260.38L225.163 266H223.263Z" fill="white"/>
<path d="M175.439 149.556H165.804" stroke="#505050" stroke-width="4"/>
<path d="M173.833 152.312H167.409" stroke="#505050" stroke-width="4"/>
<path d="M170.442 104.135L170.442 114.143" stroke="#505050" stroke-width="4"/>
<path d="M184.373 109.473L178.811 117.322" stroke="#505050" stroke-width="4"/>
<path d="M194.707 124.818L185.71 126.486" stroke="#505050" stroke-width="4"/>
<path d="M146.531 124.722L155.372 126.746" stroke="#505050" stroke-width="4"/>
<path d="M155.496 109.473L161.058 117.322" stroke="#505050" stroke-width="4"/>
<path d="M182.692 127.564C182.692 130.596 181.287 133.33 179.036 135.259C177.983 136.161 178.507 140.334 176.415 143.002C174.323 145.671 168.373 145.578 166.253 143.269C163.604 140.384 165.123 137.048 163.035 135.259C160.784 133.33 159.379 130.596 159.379 127.564C159.379 121.72 164.598 116.983 171.035 116.983C177.473 116.983 182.692 121.72 182.692 127.564Z" fill="#505050"/>
<path d="M164.597 124.449C162.941 126.917 163.822 128.281 161.644 128.281C159.854 127.08 160.612 123.427 162.168 121.872C164.346 119.383 166.387 118.369 168.177 119.571C169.967 120.772 166.254 121.981 164.597 124.449Z" fill="#646464" fill-opacity="0.9"/>
<path d="M211.637 130.828C211.637 153.48 193.273 171.844 170.621 171.844C147.969 171.844 129.605 153.48 129.605 130.828C129.605 108.176 147.969 89.8125 170.621 89.8125C193.273 89.8125 211.637 108.176 211.637 130.828ZM135.488 130.828C135.488 150.232 151.218 165.961 170.621 165.961C190.025 165.961 205.754 150.232 205.754 130.828C205.754 111.425 190.025 95.6951 170.621 95.6951C151.218 95.6951 135.488 111.425 135.488 130.828Z" fill="#04C4FF"/>
<path d="M170.14 134.457C170.728 134.457 171.128 134.702 171.34 135.192C171.389 135.339 171.414 135.535 171.414 135.78C171.414 136.025 171.308 136.245 171.095 136.441C170.72 136.784 170.295 136.857 169.822 136.662C169.365 136.466 169.136 136.147 169.136 135.706C169.136 135.249 169.242 134.931 169.454 134.751C169.667 134.555 169.895 134.457 170.14 134.457ZM170.777 131.886C170.777 132.408 170.859 132.89 171.022 133.331H170.385C169.944 133.07 169.61 132.711 169.381 132.253C169.316 132.106 169.283 131.919 169.283 131.69C169.283 131.462 169.348 131.233 169.479 131.004C169.74 130.596 170.124 130.155 170.63 129.682C171.528 128.849 171.977 128.057 171.977 127.306C171.977 126.784 171.838 126.359 171.561 126.033C171.299 125.706 170.932 125.543 170.459 125.543C169.316 125.543 168.646 125.992 168.45 126.89H167.299C167.299 126.025 167.675 125.38 168.426 124.955C169.014 124.613 169.626 124.441 170.263 124.441C171.389 124.441 172.263 124.702 172.883 125.225C173.503 125.747 173.814 126.474 173.814 127.404C173.814 128.319 173.299 129.217 172.271 130.098C171.634 130.67 171.226 131.07 171.046 131.298C170.867 131.511 170.777 131.706 170.777 131.886Z" fill="#04C4FF"/>
<path d="M199.304 163.032L207.095 153.747L210.755 156.818L202.964 166.103L199.304 163.032Z" fill="#505050"/>
<path d="M203.566 170.459C202.711 169.742 202.608 168.464 203.337 167.62L208.454 161.692L212.476 156.737C213.18 155.869 214.458 155.747 215.314 156.465L248.678 184.461C249.524 185.171 249.635 186.433 248.925 187.279L239.751 198.211C239.041 199.057 237.78 199.168 236.934 198.458L203.566 170.459Z" fill="#04C4FF"/>
</svg>
