<svg width="256" height="256" viewBox="0 0 256 256" fill="none" xmlns="http://www.w3.org/2000/svg">
<path d="M256 128C256 198.692 198.692 256 128 256C57.3076 256 0 198.692 0 128C0 57.3076 57.3076 0 128 0C198.692 0 256 57.3076 256 128ZM1.02087 128C1.02087 198.129 57.8714 254.979 128 254.979C198.129 254.979 254.979 198.129 254.979 128C254.979 57.8714 198.129 1.02087 128 1.02087C57.8714 1.02087 1.02087 57.8714 1.02087 128Z" fill="#C4C4C4" fill-opacity="0.6"/>
<rect x="83" y="97" width="61.8443" height="47.4433" fill="white" stroke="white" stroke-width="2" stroke-linecap="round" stroke-linejoin="round"/>
<path d="M85.9202 124.882L142.244 124.882V99.6H128.163H121.123H114.082H107.042H100.001H85.9202V124.882Z" fill="#505050"/>
<rect x="105.762" y="128.082" width="16.6412" height="14.081" fill="#505050"/>
<rect x="85.9202" y="128.082" width="16.6412" height="14.081" fill="#04C4FF"/>
<rect x="125.603" y="128.082" width="16.6412" height="14.081" fill="#505050"/>
<path d="M113.425 132.642C113.855 131.645 115.269 131.645 115.699 132.642V132.642C115.878 133.059 116.271 133.344 116.722 133.385V133.385C117.803 133.486 118.241 134.831 117.424 135.548V135.548C117.084 135.847 116.934 136.308 117.034 136.75V136.75C117.273 137.81 116.128 138.642 115.194 138.087V138.087C114.805 137.856 114.32 137.856 113.93 138.087V138.087C112.996 138.642 111.852 137.81 112.09 136.75V136.75C112.19 136.308 112.04 135.847 111.7 135.548V135.548C110.884 134.831 111.321 133.486 112.402 133.385V133.385C112.854 133.344 113.246 133.059 113.425 132.642V132.642Z" fill="#04C4FF"/>
<path d="M151.495 118L171.338 123.317L161.843 158.751L142 153.434L151.495 118Z" fill="white" stroke="white" stroke-width="2" stroke-linecap="round" stroke-linejoin="round"/>
<path d="M147.646 136.467L165.285 141.193L169.504 125.445L165.095 124.263L162.89 123.673L160.685 123.082L158.481 122.491L156.276 121.9L151.866 120.719L147.646 136.467Z" fill="#505050"/>
<rect x="158.471" y="120.703" width="5.62489" height="0.476416" transform="rotate(15 158.471 120.703)" fill="#04C4FF" stroke="#04C4FF" stroke-linecap="round" stroke-linejoin="round"/>
<ellipse cx="152.368" cy="154.426" rx="0.708382" ry="0.689982" transform="rotate(15 152.368 154.426)" fill="#04C4FF"/>
<rect x="147.134" y="138.38" width="18.4179" height="11.7297" transform="rotate(15 147.134 138.38)" fill="#04C4FF"/>
</svg>
