<svg width="380" height="380" viewBox="0 0 380 380" fill="none" xmlns="http://www.w3.org/2000/svg">
<path d="M379.283 189.641C379.283 294.378 294.378 379.283 189.641 379.283C84.9054 379.283 0 294.378 0 189.641C0 84.9054 84.9054 0 189.641 0C294.378 0 379.283 84.9054 379.283 189.641ZM1.44023 189.641C1.44023 293.582 85.7008 377.843 189.641 377.843C293.582 377.843 377.843 293.582 377.843 189.641C377.843 85.7008 293.582 1.44023 189.641 1.44023C85.7008 1.44023 1.44023 85.7008 1.44023 189.641Z" fill="#C4C4C4" fill-opacity="0.6"/>
<rect x="181.119" y="187" width="10" height="40" transform="rotate(90 181.119 187)" fill="#04C4FF" fill-opacity="0.8"/>
<path d="M201.119 187H225.119C225.119 187 214.119 195.425 214.119 205C214.119 214.576 225.119 223 225.119 223H214.119H201.119V187Z" fill="#04C4FF" fill-opacity="0.8"/>
<rect x="155.119" y="200" width="5" height="23" fill="#04C4FF" fill-opacity="0.8"/>
<rect x="164.119" y="200" width="2" height="23" fill="#04C4FF" fill-opacity="0.8"/>
<path d="M185.119 187H195.119V223H185.119V205V187Z" fill="#04C4FF" fill-opacity="0.8"/>
<rect x="155.119" y="235" width="132" height="2" fill="#C4C4C4"/>
<rect x="93.1187" y="173" width="132" height="2" fill="#C4C4C4"/>
<rect x="155.119" y="168" width="70" height="2" fill="#C4C4C4"/>
<rect x="155.119" y="240" width="70" height="2" fill="#C4C4C4"/>
<path d="M180.119 158.542C180.119 158.542 183.065 160.166 184.703 161.542C186.341 162.919 188.449 165.542 188.449 165.542C188.449 165.542 191.471 162.287 193.703 160.542C196.736 158.17 202.203 155.542 202.203 155.542C202.203 155.542 197.09 158.585 194.203 161.042C191.767 163.116 188.449 166.872 188.449 166.872C188.449 166.872 186.001 163.295 184.203 161.542C182.699 160.076 180.119 158.542 180.119 158.542Z" fill="#04C4FF" fill-opacity="0.8"/>
<path d="M189.119 158.203C189.119 158.203 191.28 159.394 192.482 160.404C193.684 161.414 195.231 163.339 195.231 163.339C195.231 163.339 197.449 160.95 199.086 159.67C201.311 157.929 205.322 156.001 205.322 156.001C205.322 156.001 201.571 158.234 199.452 160.037C197.665 161.558 195.231 164.314 195.231 164.314C195.231 164.314 193.434 161.69 192.115 160.404C191.012 159.328 189.119 158.203 189.119 158.203Z" fill="#04C4FF" fill-opacity="0.8"/>
<path d="M184.119 145.601C184.119 145.601 185.812 146.493 186.744 147.267C187.676 148.04 188.858 149.535 188.858 149.535C188.858 149.535 190.695 147.567 192.038 146.5C193.863 145.048 197.119 143.399 197.119 143.399C197.119 143.399 194.062 145.284 192.321 146.782C190.851 148.046 188.832 150.314 188.832 150.314C188.832 150.314 187.469 148.268 186.451 147.277C185.6 146.448 184.119 145.601 184.119 145.601Z" fill="#04C4FF" fill-opacity="0.8"/>
</svg>
