<svg width="256" height="256" viewBox="0 0 256 256" fill="none" xmlns="http://www.w3.org/2000/svg">
<path d="M83.3358 204V191.38H79.1558V190H89.1958V191.38H85.0158V204H83.3358ZM92.8472 204V190H94.5272V196.18H101.787V190H103.467V204H101.787V197.56H94.5272V204H92.8472ZM108.021 204V190H112.541C113.635 190 114.528 190.18 115.221 190.54C115.915 190.9 116.428 191.393 116.761 192.02C117.095 192.647 117.261 193.34 117.261 194.1C117.261 194.98 117.021 195.773 116.541 196.48C116.075 197.187 115.341 197.687 114.341 197.98L117.401 204H115.421L112.581 198.22H112.461H109.701V204H108.021ZM109.701 196.9H112.421C113.501 196.9 114.288 196.64 114.781 196.12C115.275 195.6 115.521 194.933 115.521 194.12C115.521 193.293 115.275 192.64 114.781 192.16C114.301 191.667 113.508 191.42 112.401 191.42H109.701V196.9ZM121.477 204V190H130.137V191.38H123.157V196.26H129.537V197.62H123.157V202.62H130.137V204H121.477ZM134.366 204V190H143.026V191.38H136.046V196.26H142.426V197.62H136.046V202.62H143.026V204H134.366ZM147.735 204.1C147.402 204.1 147.122 203.993 146.895 203.78C146.682 203.553 146.575 203.28 146.575 202.96C146.575 202.64 146.682 202.373 146.895 202.16C147.122 201.933 147.402 201.82 147.735 201.82C148.055 201.82 148.322 201.933 148.535 202.16C148.762 202.373 148.875 202.64 148.875 202.96C148.875 203.28 148.762 203.553 148.535 203.78C148.322 203.993 148.055 204.1 147.735 204.1ZM155.881 204.24C154.615 204.24 153.621 203.887 152.901 203.18C152.181 202.473 151.821 201.493 151.821 200.24H153.521C153.521 200.947 153.695 201.54 154.041 202.02C154.388 202.5 154.995 202.74 155.861 202.74C156.701 202.74 157.281 202.507 157.601 202.04C157.935 201.573 158.101 200.993 158.101 200.3V190H159.781V200.3C159.781 201.54 159.435 202.507 158.741 203.2C158.061 203.893 157.108 204.24 155.881 204.24ZM168.802 204.24C167.775 204.24 166.882 204.053 166.122 203.68C165.362 203.307 164.775 202.787 164.362 202.12C163.948 201.453 163.742 200.68 163.742 199.8H165.502C165.502 200.347 165.628 200.853 165.882 201.32C166.135 201.773 166.502 202.14 166.982 202.42C167.475 202.687 168.082 202.82 168.802 202.82C169.748 202.82 170.482 202.593 171.002 202.14C171.522 201.687 171.782 201.12 171.782 200.44C171.782 199.88 171.662 199.433 171.422 199.1C171.182 198.753 170.855 198.473 170.442 198.26C170.042 198.047 169.575 197.86 169.042 197.7C168.522 197.54 167.975 197.36 167.402 197.16C166.322 196.787 165.522 196.327 165.002 195.78C164.482 195.22 164.222 194.493 164.222 193.6C164.208 192.853 164.382 192.193 164.742 191.62C165.102 191.033 165.608 190.58 166.262 190.26C166.928 189.927 167.715 189.76 168.622 189.76C169.515 189.76 170.288 189.927 170.942 190.26C171.608 190.593 172.122 191.053 172.482 191.64C172.855 192.227 173.048 192.893 173.062 193.64H171.302C171.302 193.253 171.202 192.873 171.002 192.5C170.802 192.113 170.495 191.8 170.082 191.56C169.682 191.32 169.175 191.2 168.562 191.2C167.802 191.187 167.175 191.38 166.682 191.78C166.202 192.18 165.962 192.733 165.962 193.44C165.962 194.04 166.128 194.5 166.462 194.82C166.808 195.14 167.288 195.407 167.902 195.62C168.515 195.82 169.222 196.053 170.022 196.32C170.688 196.56 171.288 196.84 171.822 197.16C172.355 197.48 172.768 197.893 173.062 198.4C173.368 198.907 173.522 199.553 173.522 200.34C173.522 201.007 173.348 201.64 173.002 202.24C172.655 202.827 172.128 203.307 171.422 203.68C170.728 204.053 169.855 204.24 168.802 204.24Z" fill="white"/>
<path d="M256 128C256 198.692 198.692 256 128 256C57.3076 256 0 198.692 0 128C0 57.3076 57.3076 0 128 0C198.692 0 256 57.3076 256 128ZM1.02087 128C1.02087 198.129 57.8714 254.979 128 254.979C198.129 254.979 254.979 198.129 254.979 128C254.979 57.8714 198.129 1.02087 128 1.02087C57.8714 1.02087 1.02087 57.8714 1.02087 128Z" fill="#C4C4C4" fill-opacity="0.6"/>
<path d="M119.292 64.2557L122.525 81.2718L106.172 75.5639L119.292 64.2557Z" fill="#04C4FF"/>
<path d="M157.057 77.4376L160.291 94.4537L143.938 88.7458L157.057 77.4376Z" fill="#04C4FF"/>
<path d="M138.175 70.8467L141.408 87.8627L125.055 82.1548L138.175 70.8467Z" fill="#04C4FF"/>
<path d="M124.12 80.7692L137.239 69.461L120.886 63.7531L124.12 80.7692Z" fill="#04C4FF"/>
<path d="M105.237 74.1783L118.357 62.8701L102.004 57.1622L105.237 74.1783Z" fill="#04C4FF"/>
<path d="M161.885 93.951L175.005 82.6428L158.652 76.9349L161.885 93.951Z" fill="#04C4FF"/>
<path d="M143.002 87.3601L156.122 76.052L139.769 70.3441L143.002 87.3601Z" fill="#04C4FF"/>
<path d="M122.802 84.5457L126.035 101.562L109.682 95.8538L122.802 84.5457Z" fill="#04C4FF"/>
<path d="M141.684 91.1366L144.918 108.153L128.565 102.445L141.684 91.1366Z" fill="#04C4FF"/>
<path d="M127.629 101.059L140.749 89.751L124.396 84.0431L127.629 101.059Z" fill="#04C4FF"/>
<path d="M108.746 94.4682L121.866 83.1601L105.513 77.4522L108.746 94.4682Z" fill="#04C4FF"/>
<path d="M126.311 104.836L129.544 121.852L113.191 116.144L126.311 104.836Z" fill="#04C4FF"/>
<path d="M131.139 121.349L144.259 110.041L127.906 104.333L131.139 121.349Z" fill="#04C4FF"/>
<path d="M112.256 114.758L125.376 103.45L109.023 97.7421L112.256 114.758Z" fill="#04C4FF"/>
<path d="M115.766 135.048L128.885 123.74L112.532 118.032L115.766 135.048Z" fill="#04C4FF"/>
<path d="M146.512 107.65L159.632 96.3419L143.279 90.634L146.512 107.65Z" fill="#04C4FF"/>
</svg>
