<svg width="380" height="380" viewBox="0 0 380 380" fill="none" xmlns="http://www.w3.org/2000/svg">
<path d="M379.283 189.641C379.283 294.378 294.378 379.283 189.641 379.283C84.9054 379.283 0 294.378 0 189.641C0 84.9054 84.9054 0 189.641 0C294.378 0 379.283 84.9054 379.283 189.641ZM1.44023 189.641C1.44023 293.582 85.7008 377.843 189.641 377.843C293.582 377.843 377.843 293.582 377.843 189.641C377.843 85.7008 293.582 1.44023 189.641 1.44023C85.7008 1.44023 1.44023 85.7008 1.44023 189.641Z" fill="#C4C4C4" fill-opacity="0.6"/>
<path d="M179.738 222.453H199.608L202.265 232.297H177.229L179.738 222.453Z" fill="#EEEEEE"/>
<path d="M161.297 236.504C161.113 236.504 160.944 236.605 160.857 236.767L159.242 239.763C159.159 239.918 159.163 240.105 159.253 240.256C159.343 240.407 159.506 240.5 159.682 240.5H220.025C220.204 240.5 220.368 240.405 220.458 240.251C220.547 240.097 220.548 239.907 220.46 239.752L218.748 236.756C218.659 236.6 218.493 236.504 218.314 236.504H161.297Z" fill="#EEEEEE" stroke="#EEEEEE" stroke-linejoin="round"/>
<rect x="137" y="139" width="105.708" height="78.7458" rx="7" fill="#EEEEEE"/>
<path d="M141.014 185.832H238.693V143.014H214.274H202.064H189.854H177.644H165.434H141.014V185.832Z" fill="#505050"/>
<rect x="175.517" y="190.356" width="29.1017" height="23.9661" fill="#505050"/>
<rect x="140.852" y="190.356" width="29.1017" height="23.9661" fill="#505050"/>
<rect x="210.182" y="190.356" width="29.1017" height="23.9661" fill="#04C4FF"/>
</svg>
