<svg width="256" height="256" viewBox="0 0 256 256" fill="none" xmlns="http://www.w3.org/2000/svg">
<path d="M95.4382 210V196H103.958V197.38H97.1182V202.3H102.938V203.66H97.1182V210H95.4382ZM107.722 210V196H109.402V210H107.722ZM119.99 210.24C118.684 210.24 117.537 209.94 116.55 209.34C115.564 208.727 114.797 207.88 114.25 206.8C113.704 205.707 113.43 204.447 113.43 203.02C113.43 201.593 113.704 200.333 114.25 199.24C114.81 198.147 115.597 197.293 116.61 196.68C117.637 196.067 118.844 195.76 120.23 195.76C121.804 195.76 123.11 196.14 124.15 196.9C125.204 197.66 125.884 198.707 126.19 200.04H124.25C124.064 199.2 123.617 198.533 122.91 198.04C122.217 197.547 121.324 197.3 120.23 197.3C119.204 197.3 118.31 197.533 117.55 198C116.79 198.453 116.197 199.107 115.77 199.96C115.357 200.813 115.15 201.833 115.15 203.02C115.15 204.207 115.357 205.227 115.77 206.08C116.184 206.933 116.757 207.593 117.49 208.06C118.224 208.513 119.077 208.74 120.05 208.74C121.544 208.74 122.67 208.307 123.43 207.44C124.19 206.56 124.624 205.36 124.73 203.84H120.69V202.52H126.45V210H124.91L124.77 207.7C124.264 208.513 123.644 209.14 122.91 209.58C122.177 210.02 121.204 210.24 119.99 210.24ZM130.707 210V196H132.667L137.707 205.76L142.707 196H144.687V210H143.007V199L138.327 208H137.067L132.387 199.02V210H130.707ZM148.361 210L153.521 196H155.301L160.441 210H158.661L157.381 206.4H151.421L150.121 210H148.361ZM151.921 205.04H156.881L154.401 198.12L151.921 205.04Z" fill="white"/>
<path d="M256 128C256 198.692 198.692 256 128 256C57.3076 256 0 198.692 0 128C0 57.3076 57.3076 0 128 0C198.692 0 256 57.3076 256 128ZM1.02087 128C1.02087 198.129 57.8714 254.979 128 254.979C198.129 254.979 254.979 198.129 254.979 128C254.979 57.8714 198.129 1.02087 128 1.02087C57.8714 1.02087 1.02087 57.8714 1.02087 128Z" fill="#C4C4C4" fill-opacity="0.6"/>
<path d="M113.497 147.278C121.5 147.278 127.995 140.761 127.995 132.731V118.185H113.497C105.495 118.185 99 124.702 99 132.731C99 140.761 105.495 147.278 113.497 147.278Z" fill="#77D283"/>
<path d="M99 103.639C99 95.6093 105.495 89.0925 113.497 89.0925H127.995V118.185H113.497C105.495 118.185 99 111.668 99 103.639Z" fill="#A466FE"/>
<path d="M99 74.5463C99 66.5167 105.495 60 113.497 60H127.995V89.0926H113.497C105.495 89.0926 99 82.5758 99 74.5463Z" fill="#E3501D"/>
<path d="M127.995 60H142.492C150.494 60 156.989 66.5167 156.989 74.5463C156.989 82.5758 150.494 89.0926 142.492 89.0926H127.995V60Z" fill="#E56B61"/>
<path d="M156.989 103.639C156.989 111.668 150.494 118.185 142.492 118.185C134.489 118.185 127.995 111.668 127.995 103.639C127.995 95.6093 134.489 89.0925 142.492 89.0925C150.494 89.0925 156.989 95.6093 156.989 103.639Z" fill="#5BBEFE"/>
</svg>
