<svg width="256" height="256" viewBox="0 0 256 256" fill="none" xmlns="http://www.w3.org/2000/svg">
<path d="M256 128C256 198.692 198.692 256 128 256C57.3076 256 0 198.692 0 128C0 57.3076 57.3076 0 128 0C198.692 0 256 57.3076 256 128ZM1.02087 128C1.02087 198.129 57.8714 254.979 128 254.979C198.129 254.979 254.979 198.129 254.979 128C254.979 57.8714 198.129 1.02087 128 1.02087C57.8714 1.02087 1.02087 57.8714 1.02087 128Z" fill="#C4C4C4" fill-opacity="0.6"/>
<rect x="96.4219" y="96.75" width="64.0367" height="50.4459" fill="#EEEEEE" stroke="#EEEEEE" stroke-width="0.5" stroke-linecap="round" stroke-linejoin="round"/>
<path d="M99.7305 123.162H156.812V99.7181H142.541H135.406H128.271H121.136H114.001H99.7305V123.162Z" fill="#505050"/>
<path d="M84 155.761C83.8889 155.761 83.7834 155.81 83.7122 155.896C83.6409 155.981 83.6112 156.093 83.631 156.203L84.1406 159.019C84.1729 159.197 84.3283 159.327 84.5097 159.327H171.32C171.494 159.327 171.644 159.208 171.685 159.04L172.365 156.224C172.392 156.112 172.366 155.994 172.295 155.904C172.224 155.814 172.115 155.761 172 155.761H150H139C138.866 155.761 138.743 155.832 138.676 155.948L138.487 156.273H117.513L117.324 155.948C117.257 155.832 117.134 155.761 117 155.761H106H84Z" fill="#EEEEEE" stroke="#EEEEEE" stroke-width="0.75" stroke-linecap="round" stroke-linejoin="round"/>
<rect x="130.309" y="126.56" width="26.5019" height="17.3282" fill="#04C4FF"/>
<rect x="99.7305" y="126.56" width="27.1815" height="17.3282" fill="#505050"/>
<path d="M112.242 130.907C112.6 130.132 113.701 130.132 114.058 130.907L114.689 132.275C114.835 132.591 115.134 132.808 115.48 132.849L116.975 133.026C117.823 133.127 118.163 134.174 117.537 134.753L116.431 135.776C116.175 136.012 116.061 136.364 116.129 136.705L116.422 138.183C116.589 139.02 115.698 139.667 114.953 139.25L113.639 138.514C113.335 138.345 112.965 138.345 112.662 138.514L111.347 139.25C110.603 139.667 109.712 139.02 109.878 138.183L110.172 136.705C110.239 136.364 110.125 136.012 109.87 135.776L108.764 134.753C108.137 134.174 108.478 133.127 109.325 133.026L110.821 132.849C111.166 132.808 111.466 132.591 111.611 132.275L112.242 130.907Z" fill="#04C4FF"/>
</svg>
