<svg width="380" height="380" viewBox="0 0 380 380" fill="none" xmlns="http://www.w3.org/2000/svg">
<path d="M379.283 189.641C379.283 294.378 294.378 379.283 189.641 379.283C84.9054 379.283 0 294.378 0 189.641C0 84.9054 84.9054 0 189.641 0C294.378 0 379.283 84.9054 379.283 189.641ZM1.51248 189.641C1.51248 293.542 85.7407 377.77 189.641 377.77C293.542 377.77 377.77 293.542 377.77 189.641C377.77 85.7407 293.542 1.51248 189.641 1.51248C85.7407 1.51248 1.51248 85.7407 1.51248 189.641Z" fill="#C4C4C4" fill-opacity="0.6"/>
<path d="M163.307 266V252H167.907C169.001 252 169.901 252.18 170.607 252.54C171.314 252.9 171.834 253.387 172.167 254C172.514 254.613 172.687 255.307 172.687 256.08C172.687 256.84 172.521 257.527 172.187 258.14C171.854 258.753 171.334 259.247 170.627 259.62C169.921 259.98 169.014 260.16 167.907 260.16H164.987V266H163.307ZM164.987 258.74H167.867C168.987 258.74 169.781 258.507 170.247 258.04C170.727 257.56 170.967 256.907 170.967 256.08C170.967 255.24 170.727 254.587 170.247 254.12C169.781 253.64 168.987 253.4 167.867 253.4H164.987V258.74ZM180.917 266.24C179.957 266.24 179.124 266.067 178.417 265.72C177.711 265.373 177.144 264.9 176.717 264.3C176.304 263.687 176.051 262.993 175.957 262.22H177.597C177.757 262.993 178.131 263.62 178.717 264.1C179.304 264.567 180.044 264.8 180.937 264.8C181.604 264.8 182.177 264.647 182.657 264.34C183.137 264.02 183.504 263.593 183.757 263.06C184.024 262.527 184.157 261.933 184.157 261.28C184.157 260.24 183.864 259.4 183.277 258.76C182.691 258.12 181.931 257.8 180.997 257.8C180.224 257.8 179.564 257.973 179.017 258.32C178.471 258.667 178.071 259.12 177.817 259.68H176.217L177.417 252H184.757V253.46H178.717L177.897 257.72C178.217 257.333 178.657 257.013 179.217 256.76C179.791 256.507 180.444 256.38 181.177 256.38C182.097 256.38 182.897 256.593 183.577 257.02C184.271 257.447 184.811 258.027 185.197 258.76C185.584 259.493 185.777 260.327 185.777 261.26C185.777 262.153 185.584 262.98 185.197 263.74C184.824 264.5 184.271 265.107 183.537 265.56C182.817 266.013 181.944 266.24 180.917 266.24ZM190.483 266.1C190.15 266.1 189.87 265.993 189.643 265.78C189.43 265.553 189.323 265.28 189.323 264.96C189.323 264.64 189.43 264.373 189.643 264.16C189.87 263.933 190.15 263.82 190.483 263.82C190.803 263.82 191.07 263.933 191.283 264.16C191.51 264.373 191.623 264.64 191.623 264.96C191.623 265.28 191.51 265.553 191.283 265.78C191.07 265.993 190.803 266.1 190.483 266.1ZM198.63 266.24C197.363 266.24 196.37 265.887 195.65 265.18C194.93 264.473 194.57 263.493 194.57 262.24H196.27C196.27 262.947 196.443 263.54 196.79 264.02C197.136 264.5 197.743 264.74 198.61 264.74C199.45 264.74 200.03 264.507 200.35 264.04C200.683 263.573 200.85 262.993 200.85 262.3V252H202.53V262.3C202.53 263.54 202.183 264.507 201.49 265.2C200.81 265.893 199.856 266.24 198.63 266.24ZM211.55 266.24C210.523 266.24 209.63 266.053 208.87 265.68C208.11 265.307 207.523 264.787 207.11 264.12C206.697 263.453 206.49 262.68 206.49 261.8H208.25C208.25 262.347 208.377 262.853 208.63 263.32C208.883 263.773 209.25 264.14 209.73 264.42C210.223 264.687 210.83 264.82 211.55 264.82C212.497 264.82 213.23 264.593 213.75 264.14C214.27 263.687 214.53 263.12 214.53 262.44C214.53 261.88 214.41 261.433 214.17 261.1C213.93 260.753 213.603 260.473 213.19 260.26C212.79 260.047 212.323 259.86 211.79 259.7C211.27 259.54 210.723 259.36 210.15 259.16C209.07 258.787 208.27 258.327 207.75 257.78C207.23 257.22 206.97 256.493 206.97 255.6C206.957 254.853 207.13 254.193 207.49 253.62C207.85 253.033 208.357 252.58 209.01 252.26C209.677 251.927 210.463 251.76 211.37 251.76C212.263 251.76 213.037 251.927 213.69 252.26C214.357 252.593 214.87 253.053 215.23 253.64C215.603 254.227 215.797 254.893 215.81 255.64H214.05C214.05 255.253 213.95 254.873 213.75 254.5C213.55 254.113 213.243 253.8 212.83 253.56C212.43 253.32 211.923 253.2 211.31 253.2C210.55 253.187 209.923 253.38 209.43 253.78C208.95 254.18 208.71 254.733 208.71 255.44C208.71 256.04 208.877 256.5 209.21 256.82C209.557 257.14 210.037 257.407 210.65 257.62C211.263 257.82 211.97 258.053 212.77 258.32C213.437 258.56 214.037 258.84 214.57 259.16C215.103 259.48 215.517 259.893 215.81 260.4C216.117 260.907 216.27 261.553 216.27 262.34C216.27 263.007 216.097 263.64 215.75 264.24C215.403 264.827 214.877 265.307 214.17 265.68C213.477 266.053 212.603 266.24 211.55 266.24Z" fill="white"/>
<path d="M191.5 172.046L172.319 197L157.152 185.414L175.379 160.346L146 150.658L152.245 132.389L181.537 141.415L181.537 111L201.464 111L201.464 141.415L231.201 132.389L237 150.658L207.621 160.346L226.294 185.414L210.235 197L191.5 172.046Z" fill="#04C4FF"/>
</svg>
