<svg width="256" height="256" viewBox="0 0 256 256" fill="none" xmlns="http://www.w3.org/2000/svg">
<path d="M256 128C256 198.692 198.692 256 128 256C57.3076 256 0 198.692 0 128C0 57.3076 57.3076 0 128 0C198.692 0 256 57.3076 256 128ZM1.02087 128C1.02087 198.129 57.8714 254.979 128 254.979C198.129 254.979 254.979 198.129 254.979 128C254.979 57.8714 198.129 1.02087 128 1.02087C57.8714 1.02087 1.02087 57.8714 1.02087 128Z" fill="#C4C4C4" fill-opacity="0.6"/>
<path d="M79.1222 204V190H80.8022V204H79.1222ZM85.3706 204V190H87.3306L92.3706 199.76L97.3706 190H99.3506V204H97.6706V193L92.9906 202H91.7306L87.0506 193.02V204H85.3706ZM103.904 204V190H108.504C109.598 190 110.498 190.18 111.204 190.54C111.911 190.9 112.431 191.387 112.764 192C113.111 192.613 113.284 193.307 113.284 194.08C113.284 194.84 113.118 195.527 112.784 196.14C112.451 196.753 111.931 197.247 111.224 197.62C110.518 197.98 109.611 198.16 108.504 198.16H105.584V204H103.904ZM105.584 196.74H108.464C109.584 196.74 110.378 196.507 110.844 196.04C111.324 195.56 111.564 194.907 111.564 194.08C111.564 193.24 111.324 192.587 110.844 192.12C110.378 191.64 109.584 191.4 108.464 191.4H105.584V196.74ZM117.086 204V190H118.766V202.66H125.286V204H117.086ZM129.194 204V190H130.874V204H129.194ZM141.803 204.24C140.429 204.24 139.223 203.94 138.183 203.34C137.156 202.727 136.349 201.873 135.763 200.78C135.189 199.687 134.903 198.427 134.903 197C134.903 195.573 135.189 194.32 135.763 193.24C136.349 192.147 137.156 191.293 138.183 190.68C139.223 190.067 140.429 189.76 141.803 189.76C143.189 189.76 144.396 190.067 145.423 190.68C146.463 191.293 147.269 192.147 147.843 193.24C148.416 194.32 148.703 195.573 148.703 197C148.703 198.427 148.416 199.687 147.843 200.78C147.269 201.86 146.483 202.7 145.483 203.3L149.023 206.7H146.843L144.003 203.94C143.323 204.14 142.589 204.24 141.803 204.24ZM141.803 202.76C142.829 202.76 143.729 202.533 144.503 202.08C145.289 201.613 145.896 200.953 146.323 200.1C146.763 199.233 146.983 198.2 146.983 197C146.983 195.8 146.763 194.773 146.323 193.92C145.896 193.067 145.289 192.413 144.503 191.96C143.729 191.493 142.829 191.26 141.803 191.26C140.776 191.26 139.869 191.493 139.083 191.96C138.309 192.413 137.703 193.067 137.263 193.92C136.836 194.773 136.623 195.8 136.623 197C136.623 198.2 136.836 199.233 137.263 200.1C137.703 200.953 138.309 201.613 139.083 202.08C139.869 202.533 140.776 202.76 141.803 202.76ZM157.884 204.24C156.924 204.24 156.05 204.053 155.264 203.68C154.49 203.293 153.87 202.7 153.404 201.9C152.937 201.1 152.704 200.08 152.704 198.84V190H154.384V198.86C154.384 200.22 154.71 201.207 155.364 201.82C156.017 202.433 156.87 202.74 157.924 202.74C158.977 202.74 159.824 202.433 160.464 201.82C161.104 201.207 161.424 200.22 161.424 198.86V190H163.104V198.84C163.104 200.08 162.87 201.1 162.404 201.9C161.937 202.7 161.31 203.293 160.524 203.68C159.737 204.053 158.857 204.24 157.884 204.24ZM167.549 204V190H176.209V191.38H169.229V196.26H175.609V197.62H169.229V202.62H176.209V204H167.549ZM171.089 189.18V187.92L175.289 185.38V186.84L171.089 189.18Z" fill="white"/>
<path d="M102.319 78.2153C102.319 77.663 102.767 77.2153 103.319 77.2153H115.165C115.717 77.2153 116.165 77.663 116.165 78.2153V90.0612C116.165 90.6135 115.717 91.0612 115.165 91.0612H103.319C102.767 91.0612 102.319 90.6135 102.319 90.0612V78.2153Z" fill="#04C4FF"/>
<path d="M116.161 145.444C116.161 145.997 115.714 146.444 115.161 146.444L103.315 146.444C102.763 146.444 102.315 145.997 102.315 145.444L102.315 133.599C102.315 133.046 102.763 132.599 103.315 132.599L115.161 132.599C115.714 132.599 116.161 133.046 116.161 133.599L116.161 145.444Z" fill="#04C4FF"/>
<path d="M142.855 104.907C143.408 104.907 143.855 105.355 143.855 105.907L143.855 117.753C143.855 118.305 143.408 118.753 142.855 118.753L131.009 118.753C130.457 118.753 130.009 118.305 130.009 117.753L130.009 105.907C130.009 105.355 130.457 104.907 131.009 104.907L142.855 104.907Z" fill="#04C4FF"/>
<path d="M75.625 118.753C75.0727 118.753 74.625 118.306 74.625 117.753L74.625 105.907C74.625 105.355 75.0727 104.907 75.625 104.907L87.4709 104.907C88.0232 104.907 88.4709 105.355 88.4709 105.907L88.4709 117.753C88.4709 118.306 88.0232 118.753 87.4709 118.753L75.625 118.753Z" fill="#04C4FF"/>
<path d="M128.109 83.165C128.5 82.7745 129.133 82.7745 129.523 83.165L137.9 91.5413C138.29 91.9318 138.29 92.565 137.9 92.9555L129.523 101.332C129.133 101.722 128.5 101.722 128.109 101.332L119.733 92.9555C119.342 92.565 119.342 91.9318 119.733 91.5413L128.109 83.165Z" fill="#04C4FF"/>
<path d="M90.369 140.495C89.9784 140.885 89.3453 140.885 88.9548 140.495L80.5784 132.119C80.1879 131.728 80.1879 131.095 80.5784 130.704L88.9548 122.328C89.3453 121.938 89.9784 121.938 90.369 122.328L98.7453 130.704C99.1358 131.095 99.1358 131.728 98.7453 132.119L90.369 140.495Z" fill="#04C4FF"/>
<path d="M137.904 130.701C138.295 131.091 138.295 131.724 137.904 132.115L129.528 140.491C129.137 140.882 128.504 140.882 128.114 140.491L119.737 132.115C119.347 131.724 119.347 131.091 119.737 130.701L128.114 122.324C128.504 121.934 129.137 121.934 129.528 122.324L137.904 130.701Z" fill="#04C4FF"/>
<path d="M80.5739 92.9572C80.1834 92.5667 80.1834 91.9335 80.5739 91.543L88.9503 83.1667C89.3408 82.7762 89.9739 82.7762 90.3645 83.1667L98.7408 91.543C99.1313 91.9335 99.1313 92.5667 98.7408 92.9572L90.3645 101.334C89.9739 101.724 89.3408 101.724 88.9503 101.334L80.5739 92.9572Z" fill="#04C4FF"/>
<path d="M134.624 111.83C134.624 125.849 123.259 137.214 109.24 137.214C95.2205 137.214 83.8556 125.849 83.8556 111.83C83.8556 97.8108 95.2205 86.4459 109.24 86.4459C123.259 86.4459 134.624 97.8108 134.624 111.83ZM90.7146 111.83C90.7146 122.061 99.0086 130.355 109.24 130.355C119.471 130.355 127.765 122.061 127.765 111.83C127.765 101.599 119.471 93.3049 109.24 93.3049C99.0086 93.3049 90.7146 101.599 90.7146 111.83Z" fill="#04C4FF"/>
<path d="M155.098 61.7916C155.098 61.2393 155.546 60.7916 156.098 60.7916H162.858C163.41 60.7916 163.858 61.2393 163.858 61.7916V68.551C163.858 69.1032 163.41 69.551 162.858 69.551H156.098C155.546 69.551 155.098 69.1032 155.098 68.551V61.7916Z" fill="#04C4FF"/>
<path d="M163.858 103.588C163.858 104.14 163.41 104.588 162.858 104.588L156.098 104.588C155.546 104.588 155.098 104.14 155.098 103.588L155.098 96.8288C155.098 96.2765 155.546 95.8288 156.098 95.8288L162.858 95.8288C163.41 95.8288 163.858 96.2765 163.858 96.8288L163.858 103.588Z" fill="#04C4FF"/>
<path d="M180.376 78.3102C180.928 78.3102 181.376 78.7579 181.376 79.3102L181.376 86.0695C181.376 86.6218 180.928 87.0695 180.376 87.0695L173.617 87.0695C173.064 87.0695 172.617 86.6218 172.617 86.0695L172.617 79.3102C172.617 78.7579 173.064 78.3102 173.617 78.3102L180.376 78.3102Z" fill="#04C4FF"/>
<path d="M138.58 87.0698C138.028 87.0698 137.58 86.6221 137.58 86.0698L137.58 79.3105C137.58 78.7582 138.028 78.3105 138.58 78.3105L145.339 78.3105C145.892 78.3105 146.339 78.7582 146.339 79.3105L146.339 86.0698C146.339 86.6221 145.892 87.0698 145.339 87.0698L138.58 87.0698Z" fill="#04C4FF"/>
<path d="M171.16 64.8151C171.55 64.4246 172.183 64.4246 172.574 64.8151L177.354 69.5947C177.744 69.9852 177.744 70.6184 177.354 71.0089L172.574 75.7885C172.183 76.179 171.55 76.179 171.16 75.7885L166.38 71.0089C165.99 70.6184 165.99 69.9852 166.38 69.5947L171.16 64.8151Z" fill="#04C4FF"/>
<path d="M147.801 100.564C147.41 100.955 146.777 100.955 146.387 100.564L141.607 95.7848C141.217 95.3943 141.217 94.7611 141.607 94.3706L146.387 89.591C146.777 89.2005 147.41 89.2005 147.801 89.591L152.581 94.3706C152.971 94.7611 152.971 95.3943 152.581 95.7848L147.801 100.564Z" fill="#04C4FF"/>
<path d="M177.353 94.3681C177.744 94.7586 177.744 95.3918 177.353 95.7823L172.573 100.562C172.183 100.952 171.55 100.952 171.159 100.562L166.38 95.7823C165.989 95.3918 165.989 94.7586 166.38 94.3681L171.159 89.5885C171.55 89.198 172.183 89.198 172.574 89.5885L177.353 94.3681Z" fill="#04C4FF"/>
<path d="M141.6 71.0101C141.21 70.6196 141.21 69.9864 141.6 69.5959L146.38 64.8163C146.771 64.4258 147.404 64.4258 147.794 64.8163L152.574 69.5959C152.964 69.9864 152.964 70.6196 152.574 71.0101L147.794 75.7897C147.404 76.1802 146.771 76.1802 146.38 75.7897L141.6 71.0101Z" fill="#04C4FF"/>
<path d="M175.538 82.6899C175.538 91.5589 168.348 98.7487 159.479 98.7487C150.61 98.7487 143.42 91.5589 143.42 82.6899C143.42 73.8209 150.61 66.6311 159.479 66.6311C168.348 66.6311 175.538 73.8209 175.538 82.6899ZM154.661 82.6899C154.661 85.3506 156.818 87.5075 159.479 87.5075C162.14 87.5075 164.297 85.3506 164.297 82.6899C164.297 80.0292 162.14 77.8723 159.479 77.8723C156.818 77.8723 154.661 80.0292 154.661 82.6899Z" fill="#04C4FF"/>
<path d="M118.133 100.421C118.399 100.152 118.714 99.9389 119.061 99.7934C119.408 99.648 119.78 99.5731 120.155 99.5731C120.53 99.5731 120.902 99.648 121.249 99.7934C121.596 99.9389 121.911 100.152 122.177 100.421C122.442 100.69 122.653 101.009 122.796 101.36C122.94 101.711 123.014 102.088 123.014 102.468C123.014 102.848 122.94 103.225 122.796 103.576C122.653 103.927 122.442 104.246 122.177 104.515L120.155 102.468L118.133 100.421Z" fill="#04C4FF"/>
<path d="M106.218 96.1976H111.332V98.7865L108.849 98.3596L106.218 98.7865V96.1976Z" fill="#505050"/>
<path fill-rule="evenodd" clip-rule="evenodd" d="M108.849 125.988C116.292 125.988 122.326 119.803 122.326 112.174C122.326 104.545 116.292 98.3596 108.849 98.3596C101.406 98.3596 95.3721 104.545 95.3721 112.174C95.3721 119.803 101.406 125.988 108.849 125.988ZM108.581 122.597C114.124 122.597 118.617 117.991 118.617 112.31C118.617 106.628 114.124 102.023 108.581 102.023C103.039 102.023 98.5454 106.628 98.5454 112.31C98.5454 117.991 103.039 122.597 108.581 122.597Z" fill="#505050"/>
<path d="M113.418 108.954C113.418 108.954 110.873 113.19 110.038 113.847C109.204 114.503 108.049 114.412 107.459 113.643C106.869 112.874 107.067 111.718 107.901 111.061C108.736 110.405 113.418 108.954 113.418 108.954Z" fill="#04C4FF"/>
</svg>
