<svg width="256" height="256" viewBox="0 0 256 256" fill="none" xmlns="http://www.w3.org/2000/svg">
<path d="M256 128C256 198.692 198.692 256 128 256C57.3076 256 0 198.692 0 128C0 57.3076 57.3076 0 128 0C198.692 0 256 57.3076 256 128ZM1.02087 128C1.02087 198.129 57.8714 254.979 128 254.979C198.129 254.979 254.979 198.129 254.979 128C254.979 57.8714 198.129 1.02087 128 1.02087C57.8714 1.02087 1.02087 57.8714 1.02087 128Z" fill="#C4C4C4" fill-opacity="0.6"/>
<path d="M103.322 100.24C101.948 100.24 100.742 99.94 99.7016 99.34C98.675 98.7267 97.8683 97.8733 97.2816 96.78C96.7083 95.6867 96.4216 94.4267 96.4216 93C96.4216 91.5733 96.7083 90.32 97.2816 89.24C97.8683 88.1467 98.675 87.2933 99.7016 86.68C100.742 86.0667 101.948 85.76 103.322 85.76C104.708 85.76 105.915 86.0667 106.942 86.68C107.982 87.2933 108.788 88.1467 109.362 89.24C109.935 90.32 110.222 91.5733 110.222 93C110.222 94.4267 109.935 95.6867 109.362 96.78C108.788 97.8733 107.982 98.7267 106.942 99.34C105.915 99.94 104.708 100.24 103.322 100.24ZM103.322 98.76C104.348 98.76 105.248 98.5333 106.022 98.08C106.808 97.6133 107.415 96.9533 107.842 96.1C108.282 95.2333 108.502 94.2 108.502 93C108.502 91.8 108.282 90.7733 107.842 89.92C107.415 89.0667 106.808 88.4133 106.022 87.96C105.248 87.4933 104.348 87.26 103.322 87.26C102.295 87.26 101.388 87.4933 100.602 87.96C99.8283 88.4133 99.2216 89.0667 98.7816 89.92C98.355 90.7733 98.1416 91.8 98.1416 93C98.1416 94.2 98.355 95.2333 98.7816 96.1C99.2216 96.9533 99.8283 97.6133 100.602 98.08C101.388 98.5333 102.295 98.76 103.322 98.76ZM114.245 100V86H118.845C119.939 86 120.839 86.18 121.545 86.54C122.252 86.9 122.772 87.3867 123.105 88C123.452 88.6133 123.625 89.3067 123.625 90.08C123.625 90.84 123.459 91.5267 123.125 92.14C122.792 92.7533 122.272 93.2467 121.565 93.62C120.859 93.98 119.952 94.16 118.845 94.16H115.925V100H114.245ZM115.925 92.74H118.805C119.925 92.74 120.719 92.5067 121.185 92.04C121.665 91.56 121.905 90.9067 121.905 90.08C121.905 89.24 121.665 88.5867 121.185 88.12C120.719 87.64 119.925 87.4 118.805 87.4H115.925V92.74ZM127.427 100V86H136.087V87.38H129.107V92.26H135.487V93.62H129.107V98.62H136.087V100H127.427ZM140.316 100V86H141.996L149.456 97.22V86H151.136V100H149.456L141.996 88.78V100H140.316ZM114.937 134V121.38H110.757V120H120.797V121.38H116.617V134H114.937ZM130.086 134.24C128.713 134.24 127.506 133.94 126.466 133.34C125.439 132.727 124.633 131.873 124.046 130.78C123.473 129.687 123.186 128.427 123.186 127C123.186 125.573 123.473 124.32 124.046 123.24C124.633 122.147 125.439 121.293 126.466 120.68C127.506 120.067 128.713 119.76 130.086 119.76C131.473 119.76 132.679 120.067 133.706 120.68C134.746 121.293 135.553 122.147 136.126 123.24C136.699 124.32 136.986 125.573 136.986 127C136.986 128.427 136.699 129.687 136.126 130.78C135.553 131.873 134.746 132.727 133.706 133.34C132.679 133.94 131.473 134.24 130.086 134.24ZM130.086 132.76C131.113 132.76 132.013 132.533 132.786 132.08C133.573 131.613 134.179 130.953 134.606 130.1C135.046 129.233 135.266 128.2 135.266 127C135.266 125.8 135.046 124.773 134.606 123.92C134.179 123.067 133.573 122.413 132.786 121.96C132.013 121.493 131.113 121.26 130.086 121.26C129.059 121.26 128.153 121.493 127.366 121.96C126.593 122.413 125.986 123.067 125.546 123.92C125.119 124.773 124.906 125.8 124.906 127C124.906 128.2 125.119 129.233 125.546 130.1C125.986 130.953 126.593 131.613 127.366 132.08C128.153 132.533 129.059 132.76 130.086 132.76ZM100.456 168.02L96.6161 154H98.4161L101.436 166.02L104.876 154H106.736L110.076 166.02L113.136 154H114.936L111.016 168H109.096L105.756 156.44L102.336 168L100.456 168.02ZM124.364 168.24C122.991 168.24 121.784 167.94 120.744 167.34C119.718 166.727 118.911 165.873 118.324 164.78C117.751 163.687 117.464 162.427 117.464 161C117.464 159.573 117.751 158.32 118.324 157.24C118.911 156.147 119.718 155.293 120.744 154.68C121.784 154.067 122.991 153.76 124.364 153.76C125.751 153.76 126.958 154.067 127.984 154.68C129.024 155.293 129.831 156.147 130.404 157.24C130.978 158.32 131.264 159.573 131.264 161C131.264 162.427 130.978 163.687 130.404 164.78C129.831 165.873 129.024 166.727 127.984 167.34C126.958 167.94 125.751 168.24 124.364 168.24ZM124.364 166.76C125.391 166.76 126.291 166.533 127.064 166.08C127.851 165.613 128.458 164.953 128.884 164.1C129.324 163.233 129.544 162.2 129.544 161C129.544 159.8 129.324 158.773 128.884 157.92C128.458 157.067 127.851 156.413 127.064 155.96C126.291 155.493 125.391 155.26 124.364 155.26C123.338 155.26 122.431 155.493 121.644 155.96C120.871 156.413 120.264 157.067 119.824 157.92C119.398 158.773 119.184 159.8 119.184 161C119.184 162.2 119.398 163.233 119.824 164.1C120.264 164.953 120.871 165.613 121.644 166.08C122.431 166.533 123.338 166.76 124.364 166.76ZM135.288 168V154H139.808C140.901 154 141.794 154.18 142.488 154.54C143.181 154.9 143.694 155.393 144.028 156.02C144.361 156.647 144.528 157.34 144.528 158.1C144.528 158.98 144.288 159.773 143.808 160.48C143.341 161.187 142.608 161.687 141.608 161.98L144.668 168H142.688L139.848 162.22H139.728H136.968V168H135.288ZM136.968 160.9H139.688C140.768 160.9 141.554 160.64 142.048 160.12C142.541 159.6 142.788 158.933 142.788 158.12C142.788 157.293 142.541 156.64 142.048 156.16C141.568 155.667 140.774 155.42 139.668 155.42H136.968V160.9ZM148.743 168V154H150.423V160.34L156.263 154H158.383L153.183 159.58L158.463 168H156.423L151.983 160.88L150.423 162.54V168H148.743Z" fill="white"/>
</svg>
