<svg width="256" height="256" viewBox="0 0 256 256" fill="none" xmlns="http://www.w3.org/2000/svg">
<path d="M256 128C256 198.692 198.692 256 128 256C57.3076 256 0 198.692 0 128C0 57.3076 57.3076 0 128 0C198.692 0 256 57.3076 256 128ZM1.02087 128C1.02087 198.129 57.8714 254.979 128 254.979C198.129 254.979 254.979 198.129 254.979 128C254.979 57.8714 198.129 1.02087 128 1.02087C57.8714 1.02087 1.02087 57.8714 1.02087 128Z" fill="#C4C4C4" fill-opacity="0.6"/>
<g filter="url(#filter0_f)">
<path d="M137.245 144.398C137.245 144.398 135.597 144.964 133.949 145.453C132.25 145.955 130.429 146.286 130.429 146.286L128.701 143.097C128.701 143.097 130.617 142.266 131.953 141.366C133.343 140.429 134.6 139.516 134.6 139.516L137.245 144.398Z" fill="#505050"/>
<path d="M137.245 144.398C137.245 144.398 135.597 144.964 133.949 145.453C132.25 145.955 130.429 146.286 130.429 146.286L128.701 143.097C128.701 143.097 130.617 142.266 131.953 141.366C133.343 140.429 134.6 139.516 134.6 139.516L137.245 144.398Z" fill="url(#paint0_linear)"/>
</g>
<path d="M90.9893 129.1L104.229 128.473L104.225 128.473L105.225 149.572L91.9889 150.199L90.9893 129.1Z" fill="#505050"/>
<path d="M70.6431 142.025L75.1443 138.364L80.2623 141.319L81.0247 151.701L71.4055 152.407L70.6431 142.025Z" fill="#505050"/>
<path d="M82.6537 138.048L87.7222 133.143L93.587 137.401L94.3834 150.878L83.4501 151.524L82.6537 138.048Z" fill="#505050"/>
<path d="M97.7717 139.482L105.703 133.656L114.266 138.507L114.897 149.185L98.4027 150.16L97.7717 139.482Z" fill="#505050"/>
<path d="M127.1 131.706L125.3 133.056L125.3 131.706L125.3 129.906L127.1 129.906L127.1 131.706Z" fill="#505050"/>
<path d="M155.062 135.86L153.2 136.743L153.266 135.741L153.354 134.406L155.15 134.524L155.062 135.86Z" fill="#505050"/>
<path d="M162.536 131.883L178.316 132.571L178.312 132.571L177.53 150.502L161.754 149.814L162.536 131.883Z" fill="#505050"/>
<path d="M166.7 132.065L164.9 131.986L164.951 130.806L166.749 130.885L166.7 132.065Z" fill="#505050"/>
<path d="M100.127 138.006L98.3482 139.383L98.3275 138.033L98.3001 136.234L100.1 136.206L100.127 138.006Z" fill="#505050"/>
<path d="M112.012 119.466L124.049 118.896L124.046 118.896L125.467 148.89L113.433 149.46L112.012 119.466Z" fill="#505050"/>
<path d="M141.684 114.606L153.378 114.977L153.375 114.977L152.291 149.16L140.6 148.789L141.684 114.606Z" fill="#505050"/>
<path d="M183.656 140.869L190.236 141.388L190.236 141.386L189.479 151.024L182.9 150.507L183.656 140.869Z" fill="#505050"/>
<path d="M123.5 134.4L131.565 127.206L140.589 133.446L140.589 148.806L123.567 148.712L123.5 134.4Z" fill="#505050"/>
<path d="M140.588 137.061L146 141.115L145.989 148.806H140.589L140.588 137.061Z" fill="#505050"/>
<path d="M150.982 137.949L159.476 132.978L167.488 138.693L167.006 149.378L150.5 148.634L150.982 137.949Z" fill="#505050"/>
<path d="M200 152.406C200 152.406 178.897 148.729 135.2 148.807C92.5545 148.883 56 154.206 56 154.206" stroke="#505050"/>
<path d="M138.677 150.494C176.981 150.414 194.055 156.063 194.055 156.063C194.055 156.063 174.114 152.187 151.98 154.516C134.601 156.346 123.712 158.131 110.488 160.299L109.906 160.394C91.0337 163.488 68.14 166.272 69.6869 160.394C71.2338 154.516 101.296 150.573 138.677 150.494Z" fill="#505050" stroke="#505050"/>
<path d="M67.6998 148.05L68.8443 147.906L69.3738 152.119L68.2293 152.263L67.6998 148.05Z" fill="#505050"/>
<circle cx="68.1499" cy="146.556" r="2.25" fill="#505050"/>
<path d="M65.6965 149.427L66.7115 149.299L67.1811 153.035L66.1661 153.163L65.6965 149.427Z" fill="#505050"/>
<circle cx="66.0955" cy="148.102" r="1.99549" fill="#505050"/>
<path d="M61.8071 147.997L63.2105 147.821L63.8597 152.986L62.4564 153.163L61.8071 147.997Z" fill="#505050"/>
<circle cx="62.359" cy="146.165" r="2.75901" fill="#505050"/>
<path d="M193.499 147.404L194.651 147.46L194.447 151.701L193.295 151.645L193.499 147.404Z" fill="#505050"/>
<circle cx="194.2" cy="146.01" r="2.25" transform="rotate(9.92148 194.2 146.01)" fill="#505050"/>
<path d="M190.542 147.207L191.564 147.23L191.479 150.994L190.456 150.971L190.542 147.207Z" fill="#505050"/>
<circle cx="191.131" cy="145.955" r="1.99549" transform="rotate(8.4667 191.131 145.955)" fill="#505050"/>
<path d="M197.08 148.787L197.853 148.894L197.462 151.741L196.688 151.634L197.08 148.787Z" fill="#505050"/>
<circle cx="197.636" cy="147.889" r="1.52289" transform="rotate(15 197.636 147.889)" fill="#505050"/>
<path d="M180.852 144.845L182.265 144.882L182.131 150.086L180.717 150.05L180.852 144.845Z" fill="#505050"/>
<circle cx="181.673" cy="143.117" r="2.75901" transform="rotate(8.64157 181.673 143.117)" fill="#505050"/>
<path d="M141.128 144.539L142.241 144.568L142.135 148.664L141.023 148.635L141.128 144.539Z" fill="#505050"/>
<circle cx="141.774" cy="143.179" r="2.17131" transform="rotate(8.64157 141.774 143.179)" fill="#505050"/>
<path d="M144.511 146.964L145.075 146.985L145.053 148.853L144.489 148.831L144.511 146.964Z" fill="#505050"/>
<ellipse cx="144.827" cy="146.348" rx="1.10251" ry="0.987817" transform="rotate(8.64157 144.827 146.348)" fill="#505050"/>
<path d="M140.886 100.983C140.062 103.634 135.492 107.347 133.812 106.824C132.132 106.302 130.471 100.654 131.295 98.0024C132.119 95.3509 134.934 93.8687 137.582 94.6918C140.231 95.5148 141.71 98.3315 140.886 100.983Z" fill="#04C4FF"/>
<path d="M140.886 100.983C140.062 103.634 135.492 107.347 133.812 106.824C132.132 106.302 130.471 100.654 131.295 98.0024C132.119 95.3509 134.934 93.8687 137.582 94.6918C140.231 95.5148 141.71 98.3315 140.886 100.983Z" fill="#04C4FF"/>
<path d="M134.068 96.4948C132.976 97.3748 132.701 98.8361 132.281 98.3149C131.861 97.7937 132.406 96.6578 133.498 95.7778C134.589 94.8978 135.815 94.6069 136.235 95.1281C136.655 95.6493 135.16 95.6148 134.068 96.4948Z" fill="#04C4FF"/>
<path d="M133.926 106.817C133.926 106.817 133.205 107.376 133.078 108.269C132.93 109.307 133.123 109.927 133.063 110.973C133.012 111.854 132.325 112.837 132.325 112.837" stroke="#04C4FF" stroke-width="0.5"/>
<path d="M133.338 106.684C133.647 106.482 134.059 106.69 134.08 107.059L134.115 107.693C134.12 107.78 134.03 107.839 133.952 107.8V107.8C133.943 107.796 133.935 107.79 133.928 107.783L133.684 107.563C133.54 107.433 133.355 107.358 133.162 107.349L132.909 107.338C132.866 107.336 132.826 107.319 132.796 107.289V107.289C132.717 107.212 132.73 107.082 132.822 107.022L133.338 106.684Z" fill="#04C4FF"/>
<path d="M125.376 98.3162C126.439 100.881 125.301 106.658 123.675 107.332C122.05 108.005 117.16 104.726 116.097 102.161C115.034 99.5962 116.249 96.6561 118.812 95.5943C121.374 94.5326 124.313 95.7512 125.376 98.3162Z" fill="#04C4FF"/>
<path d="M125.376 98.3162C126.439 100.881 125.301 106.658 123.675 107.332C122.05 108.005 117.16 104.726 116.097 102.161C115.034 99.5962 116.249 96.6561 118.812 95.5943C121.374 94.5326 124.313 95.7512 125.376 98.3162Z" fill="#04C4FF"/>
<path d="M117.264 99.2286C116.988 100.603 117.711 101.902 117.055 101.77C116.399 101.639 116.091 100.417 116.367 99.0422C116.643 97.6674 117.399 96.6597 118.055 96.7916C118.712 96.9235 117.54 97.8537 117.264 99.2286Z" fill="#04C4FF"/>
<path d="M123.758 107.253C123.758 107.253 123.562 108.144 124.035 108.912C124.585 109.804 125.13 110.157 125.753 111C126.278 111.709 126.379 112.904 126.379 112.904" stroke="#04C4FF" stroke-width="0.5"/>
<path d="M123.221 107.527C123.329 107.174 123.779 107.07 124.031 107.34L124.464 107.805C124.523 107.869 124.491 107.972 124.407 107.992V107.992C124.397 107.994 124.387 107.995 124.377 107.995L124.049 107.982C123.855 107.974 123.665 108.034 123.511 108.151L123.309 108.304C123.275 108.33 123.233 108.342 123.191 108.339V108.339C123.082 108.33 123.009 108.222 123.041 108.117L123.221 107.527Z" fill="#04C4FF"/>
<path d="M133.835 95.1146C134.151 98.6276 130.581 105.2 128.355 105.4C126.129 105.601 121.443 99.7707 121.127 96.2576C120.811 92.7446 123.4 89.6408 126.909 89.3252C130.418 89.0096 133.519 91.6015 133.835 95.1146Z" fill="#04C4FF"/>
<path d="M133.835 95.1146C134.151 98.6276 130.581 105.2 128.355 105.4C126.129 105.601 121.443 99.7707 121.127 96.2576C120.811 92.7446 123.4 89.6408 126.909 89.3252C130.418 89.0096 133.519 91.6015 133.835 95.1146Z" fill="#04C4FF"/>
<path d="M128.485 105.336C128.485 105.336 127.88 106.756 128.163 107.866C128.491 109.156 129.728 109.359 130.165 110.617C130.532 111.677 129.519 113.182 129.519 113.182" stroke="#04C4FF" stroke-width="0.5"/>
<path d="M127.787 105.312C128.052 104.925 128.637 104.97 128.84 105.393L129.189 106.121C129.236 106.221 129.159 106.334 129.049 106.326V106.326C129.036 106.325 129.024 106.322 129.012 106.318L128.618 106.177C128.387 106.095 128.133 106.095 127.902 106.179L127.599 106.288C127.549 106.306 127.493 106.305 127.443 106.285V106.285C127.314 106.233 127.266 106.074 127.345 105.959L127.787 105.312Z" fill="#04C4FF"/>
<path d="M123.651 93.5124C122.795 95.0746 123.18 96.9239 122.434 96.5151C121.688 96.1063 121.778 94.5085 122.634 92.9463C123.491 91.3841 124.789 90.4491 125.535 90.8579C126.281 91.2666 124.508 91.9502 123.651 93.5124Z" fill="#04C4FF"/>
<g filter="url(#filter1_f)">
<path d="M106.143 128.91C106.143 128.91 107.699 129.718 109.238 130.467C110.823 131.239 112.477 131.912 112.477 131.912L113.278 129.94C113.278 129.94 111.433 128.873 110.074 127.89C108.662 126.867 107.37 125.893 107.37 125.893L106.143 128.91Z" fill="#505050"/>
<path d="M106.143 128.91C106.143 128.91 107.699 129.718 109.238 130.467C110.823 131.239 112.477 131.912 112.477 131.912L113.278 129.94C113.278 129.94 111.433 128.873 110.074 127.89C108.662 126.867 107.37 125.893 107.37 125.893L106.143 128.91Z" fill="url(#paint1_linear)"/>
</g>
<path d="M89.3856 140.246H88.2899C88.1884 140.246 88.1083 140.238 88.0497 140.223C87.995 140.207 87.954 140.18 87.9266 140.141C87.9032 140.098 87.8876 140.039 87.8798 139.965C87.8759 139.887 87.8739 139.789 87.8739 139.672C87.8739 139.555 87.8759 139.459 87.8798 139.385C87.8876 139.311 87.9032 139.252 87.9266 139.209C87.954 139.166 87.995 139.137 88.0497 139.121C88.1083 139.105 88.1884 139.098 88.2899 139.098H90.2997H90.4345H92.579C92.6805 139.098 92.7587 139.105 92.8134 139.121C92.872 139.137 92.9149 139.166 92.9423 139.209C92.9696 139.252 92.9852 139.311 92.9891 139.385C92.997 139.459 93.0009 139.555 93.0009 139.672C93.0009 139.789 92.997 139.887 92.9891 139.965C92.9852 140.039 92.9696 140.098 92.9423 140.141C92.9149 140.18 92.872 140.207 92.8134 140.223C92.7587 140.238 92.6805 140.246 92.579 140.246H91.4833L91.2489 148.631C91.245 148.709 91.2333 148.771 91.2137 148.818C91.1981 148.865 91.163 148.902 91.1083 148.93C91.0536 148.957 90.9716 148.977 90.8622 148.988C90.7567 148.996 90.6141 149 90.4345 149C90.2548 149 90.1122 148.996 90.0067 148.988C89.9012 148.98 89.8192 148.963 89.7606 148.936C89.7059 148.908 89.6708 148.869 89.6552 148.818C89.6395 148.764 89.6298 148.691 89.6259 148.602L89.3856 140.246ZM95.3969 139.596C95.4125 139.486 95.4379 139.396 95.473 139.326C95.5121 139.256 95.5805 139.201 95.6781 139.162C95.7797 139.123 95.9242 139.098 96.1117 139.086C96.2992 139.07 96.5531 139.062 96.8734 139.062C97.1898 139.062 97.4418 139.07 97.6293 139.086C97.8168 139.098 97.9594 139.123 98.057 139.162C98.1586 139.201 98.227 139.256 98.2621 139.326C98.2973 139.396 98.3246 139.486 98.3441 139.596L99.8969 148.543C99.9125 148.648 99.9105 148.732 99.891 148.795C99.8754 148.854 99.8363 148.898 99.7738 148.93C99.7152 148.961 99.6332 148.98 99.5277 148.988C99.4223 148.996 99.2934 149 99.141 149C98.9535 149 98.8031 148.996 98.6898 148.988C98.5805 148.98 98.4945 148.961 98.432 148.93C98.3695 148.898 98.3227 148.854 98.2914 148.795C98.2641 148.732 98.2426 148.648 98.227 148.543L97.9867 147.143H95.7543L95.5141 148.543C95.4945 148.648 95.4711 148.732 95.4437 148.795C95.4164 148.854 95.3715 148.898 95.309 148.93C95.2465 148.961 95.1586 148.98 95.0453 148.988C94.9359 148.996 94.7875 149 94.6 149C94.4477 149 94.3187 148.996 94.2133 148.988C94.1117 148.98 94.0297 148.961 93.9672 148.93C93.9047 148.898 93.8637 148.854 93.8441 148.795C93.8246 148.732 93.8246 148.648 93.8441 148.543L95.3969 139.596ZM97.7934 146.029L96.8969 140.832H96.8441L95.9477 146.029H97.7934ZM101.25 139.584C101.246 139.482 101.256 139.4 101.279 139.338C101.303 139.275 101.351 139.227 101.426 139.191C101.504 139.156 101.613 139.133 101.754 139.121C101.894 139.105 102.082 139.098 102.316 139.098H102.463H103.799C104.201 139.098 104.574 139.135 104.918 139.209C105.266 139.279 105.566 139.393 105.82 139.549C106.074 139.701 106.271 139.898 106.412 140.141C106.557 140.379 106.623 140.668 106.611 141.008L106.535 143.791C106.531 143.939 106.508 144.09 106.465 144.242C106.426 144.395 106.363 144.541 106.277 144.682C106.191 144.818 106.08 144.947 105.943 145.068C105.81 145.189 105.646 145.295 105.451 145.385L106.547 148.168C106.601 148.309 106.642 148.424 106.67 148.514C106.701 148.6 106.717 148.674 106.717 148.736C106.717 148.783 106.709 148.824 106.693 148.859C106.678 148.891 106.642 148.918 106.588 148.941C106.537 148.961 106.463 148.977 106.365 148.988C106.267 148.996 106.139 149 105.978 149C105.822 149 105.695 148.994 105.598 148.982C105.504 148.967 105.426 148.941 105.363 148.906C105.301 148.871 105.248 148.824 105.205 148.766C105.166 148.703 105.123 148.625 105.076 148.531L103.851 145.66H103.207L103.125 148.602C103.125 148.691 103.115 148.764 103.096 148.818C103.08 148.869 103.043 148.908 102.984 148.936C102.93 148.963 102.85 148.98 102.744 148.988C102.639 148.996 102.496 149 102.316 149C102.137 149 101.992 148.996 101.883 148.988C101.777 148.98 101.697 148.963 101.642 148.936C101.588 148.908 101.551 148.869 101.531 148.818C101.516 148.764 101.506 148.691 101.502 148.602L101.25 139.584ZM103.676 144.705C103.863 144.705 104.019 144.691 104.144 144.664C104.269 144.633 104.367 144.584 104.437 144.518C104.512 144.451 104.562 144.363 104.59 144.254C104.621 144.141 104.635 144.002 104.631 143.838L104.549 140.82C104.545 140.668 104.529 140.547 104.502 140.457C104.475 140.363 104.426 140.291 104.355 140.24C104.285 140.189 104.189 140.156 104.068 140.141C103.951 140.121 103.799 140.111 103.611 140.111H103.365L103.236 144.705H103.676ZM108.41 139.584C108.406 139.482 108.415 139.4 108.439 139.338C108.462 139.275 108.511 139.227 108.585 139.191C108.664 139.156 108.773 139.133 108.914 139.121C109.054 139.105 109.242 139.098 109.476 139.098C109.706 139.098 109.892 139.105 110.033 139.121C110.173 139.133 110.281 139.156 110.355 139.191C110.433 139.227 110.484 139.275 110.507 139.338C110.535 139.4 110.546 139.482 110.542 139.584L110.285 148.602C110.285 148.691 110.275 148.764 110.255 148.818C110.24 148.869 110.203 148.908 110.144 148.936C110.089 148.963 110.009 148.98 109.904 148.988C109.798 148.996 109.656 149 109.476 149C109.296 149 109.152 148.996 109.042 148.988C108.937 148.98 108.857 148.963 108.802 148.936C108.747 148.908 108.71 148.869 108.691 148.818C108.675 148.764 108.665 148.691 108.662 148.602L108.41 139.584ZM114.849 144.787L115.921 139.625C115.948 139.512 115.979 139.422 116.015 139.355C116.054 139.285 116.11 139.23 116.185 139.191C116.263 139.152 116.364 139.127 116.489 139.115C116.618 139.104 116.786 139.098 116.993 139.098C117.333 139.098 117.585 139.119 117.749 139.162C117.917 139.201 118.001 139.293 118.001 139.438C118.001 139.488 117.999 139.533 117.995 139.572C117.991 139.611 117.983 139.65 117.972 139.689C117.964 139.729 117.954 139.77 117.942 139.812C117.931 139.852 117.917 139.896 117.901 139.947L116.466 144.787L117.796 148.168C117.851 148.309 117.892 148.424 117.919 148.514C117.95 148.6 117.966 148.674 117.966 148.736C117.966 148.783 117.958 148.824 117.942 148.859C117.927 148.891 117.892 148.918 117.837 148.941C117.786 148.961 117.712 148.977 117.614 148.988C117.517 148.996 117.388 149 117.227 149C117.091 149 116.979 148.994 116.894 148.982C116.811 148.967 116.743 148.941 116.688 148.906C116.638 148.871 116.593 148.824 116.554 148.766C116.519 148.703 116.481 148.625 116.442 148.531L114.849 144.787ZM112.487 139.584C112.483 139.482 112.493 139.4 112.517 139.338C112.54 139.275 112.589 139.227 112.663 139.191C112.741 139.156 112.851 139.133 112.991 139.121C113.132 139.105 113.319 139.098 113.554 139.098C113.784 139.098 113.97 139.105 114.11 139.121C114.251 139.133 114.358 139.156 114.433 139.191C114.511 139.227 114.561 139.275 114.585 139.338C114.612 139.4 114.624 139.482 114.62 139.584L114.362 148.602C114.362 148.691 114.352 148.764 114.333 148.818C114.317 148.869 114.28 148.908 114.222 148.936C114.167 148.963 114.087 148.98 113.981 148.988C113.876 148.996 113.733 149 113.554 149C113.374 149 113.229 148.996 113.12 148.988C113.015 148.98 112.935 148.963 112.88 148.936C112.825 148.908 112.788 148.869 112.769 148.818C112.753 148.764 112.743 148.691 112.739 148.602L112.487 139.584ZM122.822 139.584C122.818 139.482 122.828 139.4 122.852 139.338C122.875 139.275 122.924 139.227 122.998 139.191C123.076 139.156 123.186 139.133 123.326 139.121C123.467 139.105 123.654 139.098 123.889 139.098C124.119 139.098 124.305 139.105 124.445 139.121C124.586 139.133 124.693 139.156 124.768 139.191C124.846 139.227 124.896 139.275 124.92 139.338C124.947 139.4 124.959 139.482 124.955 139.584L124.715 147.91H126.244C126.346 147.91 126.424 147.92 126.479 147.939C126.537 147.955 126.578 147.984 126.602 148.027C126.629 148.066 126.645 148.121 126.648 148.191C126.656 148.262 126.66 148.35 126.66 148.455C126.66 148.561 126.656 148.648 126.648 148.719C126.645 148.789 126.629 148.846 126.602 148.889C126.578 148.928 126.537 148.957 126.479 148.977C126.424 148.992 126.346 149 126.244 149H123.889C123.709 149 123.564 148.996 123.455 148.988C123.35 148.98 123.27 148.963 123.215 148.936C123.16 148.908 123.123 148.869 123.104 148.818C123.088 148.764 123.078 148.691 123.074 148.602L122.822 139.584ZM128.078 141.002C128.07 140.709 128.119 140.441 128.224 140.199C128.33 139.957 128.496 139.75 128.722 139.578C128.953 139.406 129.248 139.273 129.607 139.18C129.97 139.082 130.406 139.033 130.914 139.033C131.417 139.033 131.849 139.082 132.209 139.18C132.572 139.273 132.869 139.406 133.099 139.578C133.33 139.75 133.498 139.957 133.603 140.199C133.709 140.441 133.757 140.709 133.75 141.002L133.58 147.213C133.572 147.467 133.517 147.707 133.416 147.934C133.314 148.16 133.156 148.357 132.941 148.525C132.73 148.693 132.457 148.826 132.121 148.924C131.789 149.021 131.386 149.07 130.914 149.07C130.441 149.07 130.037 149.021 129.701 148.924C129.365 148.826 129.089 148.693 128.875 148.525C128.664 148.357 128.507 148.16 128.406 147.934C128.304 147.707 128.25 147.467 128.242 147.213L128.078 141.002ZM129.97 147.266C129.966 147.43 129.98 147.566 130.011 147.676C130.046 147.785 130.101 147.873 130.175 147.939C130.253 148.002 130.353 148.047 130.474 148.074C130.595 148.102 130.742 148.115 130.914 148.115C131.085 148.115 131.232 148.102 131.353 148.074C131.474 148.047 131.572 148.002 131.646 147.939C131.724 147.873 131.779 147.785 131.81 147.676C131.845 147.566 131.861 147.43 131.857 147.266L131.687 140.82C131.683 140.648 131.664 140.512 131.628 140.41C131.593 140.309 131.542 140.23 131.476 140.176C131.414 140.121 131.335 140.086 131.242 140.07C131.148 140.051 131.039 140.041 130.914 140.041C130.789 140.041 130.679 140.051 130.585 140.07C130.492 140.086 130.412 140.121 130.345 140.176C130.283 140.23 130.234 140.309 130.199 140.41C130.164 140.512 130.144 140.648 130.14 140.82L129.97 147.266ZM135.577 139.584C135.573 139.482 135.583 139.4 135.606 139.338C135.63 139.275 135.679 139.227 135.753 139.191C135.831 139.156 135.94 139.133 136.081 139.121C136.226 139.105 136.413 139.098 136.644 139.098C136.874 139.098 137.06 139.105 137.2 139.121C137.341 139.133 137.448 139.156 137.522 139.191C137.601 139.227 137.651 139.275 137.675 139.338C137.702 139.4 137.714 139.482 137.71 139.584L137.511 147.266C137.507 147.43 137.521 147.566 137.552 147.676C137.587 147.785 137.642 147.873 137.716 147.939C137.794 148.002 137.894 148.047 138.015 148.074C138.136 148.102 138.282 148.115 138.454 148.115C138.626 148.115 138.772 148.102 138.894 148.074C139.015 148.047 139.112 148.002 139.187 147.939C139.265 147.873 139.319 147.785 139.351 147.676C139.386 147.566 139.401 147.43 139.397 147.266L139.192 139.584C139.189 139.482 139.198 139.4 139.222 139.338C139.245 139.275 139.294 139.227 139.368 139.191C139.446 139.156 139.556 139.133 139.696 139.121C139.837 139.105 140.024 139.098 140.259 139.098C140.489 139.098 140.675 139.105 140.815 139.121C140.956 139.133 141.064 139.156 141.138 139.191C141.216 139.227 141.267 139.275 141.29 139.338C141.317 139.4 141.329 139.482 141.325 139.584L141.12 147.213C141.112 147.467 141.058 147.707 140.956 147.934C140.855 148.16 140.696 148.357 140.481 148.525C140.271 148.693 139.997 148.826 139.661 148.924C139.329 149.021 138.927 149.07 138.454 149.07C137.981 149.07 137.577 149.021 137.241 148.924C136.905 148.826 136.63 148.693 136.415 148.525C136.204 148.357 136.048 148.16 135.946 147.934C135.845 147.707 135.792 147.467 135.788 147.213L135.577 139.584ZM144.143 139.596C144.159 139.486 144.184 139.396 144.219 139.326C144.258 139.256 144.327 139.201 144.424 139.162C144.526 139.123 144.67 139.098 144.858 139.086C145.045 139.07 145.299 139.062 145.62 139.062C145.936 139.062 146.188 139.07 146.376 139.086C146.563 139.098 146.706 139.123 146.803 139.162C146.905 139.201 146.973 139.256 147.008 139.326C147.044 139.396 147.071 139.486 147.09 139.596L148.643 148.543C148.659 148.648 148.657 148.732 148.637 148.795C148.622 148.854 148.583 148.898 148.52 148.93C148.461 148.961 148.379 148.98 148.274 148.988C148.169 148.996 148.04 149 147.887 149C147.7 149 147.549 148.996 147.436 148.988C147.327 148.98 147.241 148.961 147.178 148.93C147.116 148.898 147.069 148.854 147.038 148.795C147.01 148.732 146.989 148.648 146.973 148.543L146.733 147.143H144.501L144.26 148.543C144.241 148.648 144.217 148.732 144.19 148.795C144.163 148.854 144.118 148.898 144.055 148.93C143.993 148.961 143.905 148.98 143.792 148.988C143.682 148.996 143.534 149 143.346 149C143.194 149 143.065 148.996 142.96 148.988C142.858 148.98 142.776 148.961 142.713 148.93C142.651 148.898 142.61 148.854 142.59 148.795C142.571 148.732 142.571 148.648 142.59 148.543L144.143 139.596ZM146.54 146.029L145.643 140.832H145.59L144.694 146.029H146.54ZM151.01 140.246H149.914C149.813 140.246 149.732 140.238 149.674 140.223C149.619 140.207 149.578 140.18 149.551 140.141C149.527 140.098 149.512 140.039 149.504 139.965C149.5 139.887 149.498 139.789 149.498 139.672C149.498 139.555 149.5 139.459 149.504 139.385C149.512 139.311 149.527 139.252 149.551 139.209C149.578 139.166 149.619 139.137 149.674 139.121C149.732 139.105 149.813 139.098 149.914 139.098H151.924H152.059H154.203C154.305 139.098 154.383 139.105 154.438 139.121C154.496 139.137 154.539 139.166 154.566 139.209C154.594 139.252 154.609 139.311 154.613 139.385C154.621 139.459 154.625 139.555 154.625 139.672C154.625 139.789 154.621 139.887 154.613 139.965C154.609 140.039 154.594 140.098 154.566 140.141C154.539 140.18 154.496 140.207 154.438 140.223C154.383 140.238 154.305 140.246 154.203 140.246H153.107L152.873 148.631C152.869 148.709 152.857 148.771 152.838 148.818C152.822 148.865 152.787 148.902 152.732 148.93C152.678 148.957 152.596 148.977 152.486 148.988C152.381 148.996 152.238 149 152.059 149C151.879 149 151.736 148.996 151.631 148.988C151.525 148.98 151.443 148.963 151.385 148.936C151.33 148.908 151.295 148.869 151.279 148.818C151.264 148.764 151.254 148.691 151.25 148.602L151.01 140.246ZM157.021 139.596C157.037 139.486 157.062 139.396 157.097 139.326C157.136 139.256 157.205 139.201 157.302 139.162C157.404 139.123 157.548 139.098 157.736 139.086C157.923 139.07 158.177 139.062 158.498 139.062C158.814 139.062 159.066 139.07 159.254 139.086C159.441 139.098 159.584 139.123 159.681 139.162C159.783 139.201 159.851 139.256 159.886 139.326C159.921 139.396 159.949 139.486 159.968 139.596L161.521 148.543C161.537 148.648 161.535 148.732 161.515 148.795C161.5 148.854 161.461 148.898 161.398 148.93C161.339 148.961 161.257 148.98 161.152 148.988C161.046 148.996 160.918 149 160.765 149C160.578 149 160.427 148.996 160.314 148.988C160.205 148.98 160.119 148.961 160.056 148.93C159.994 148.898 159.947 148.854 159.916 148.795C159.888 148.732 159.867 148.648 159.851 148.543L159.611 147.143H157.379L157.138 148.543C157.119 148.648 157.095 148.732 157.068 148.795C157.041 148.854 156.996 148.898 156.933 148.93C156.871 148.961 156.783 148.98 156.67 148.988C156.56 148.996 156.412 149 156.224 149C156.072 149 155.943 148.996 155.837 148.988C155.736 148.98 155.654 148.961 155.591 148.93C155.529 148.898 155.488 148.854 155.468 148.795C155.449 148.732 155.449 148.648 155.468 148.543L157.021 139.596ZM159.418 146.029L158.521 140.832H158.468L157.572 146.029H159.418ZM162.874 139.584C162.87 139.482 162.88 139.4 162.903 139.338C162.927 139.275 162.976 139.227 163.05 139.191C163.128 139.156 163.237 139.133 163.378 139.121C163.519 139.105 163.706 139.098 163.941 139.098C164.171 139.098 164.357 139.105 164.497 139.121C164.638 139.133 164.745 139.156 164.819 139.191C164.898 139.227 164.948 139.275 164.972 139.338C164.999 139.4 165.011 139.482 165.007 139.584L164.884 143.85H166.607L166.489 139.584C166.485 139.482 166.495 139.4 166.519 139.338C166.542 139.275 166.591 139.227 166.665 139.191C166.743 139.156 166.853 139.133 166.993 139.121C167.134 139.105 167.321 139.098 167.556 139.098C167.786 139.098 167.972 139.105 168.112 139.121C168.253 139.133 168.36 139.156 168.435 139.191C168.513 139.227 168.564 139.275 168.587 139.338C168.614 139.4 168.626 139.482 168.622 139.584L168.364 148.602C168.36 148.691 168.349 148.764 168.329 148.818C168.314 148.869 168.278 148.908 168.224 148.936C168.169 148.963 168.089 148.98 167.984 148.988C167.878 148.996 167.735 149 167.556 149C167.376 149 167.232 148.996 167.122 148.988C167.017 148.98 166.937 148.963 166.882 148.936C166.827 148.908 166.79 148.869 166.771 148.818C166.755 148.764 166.745 148.691 166.741 148.602L166.642 144.963H164.855L164.749 148.602C164.749 148.691 164.739 148.764 164.72 148.818C164.704 148.869 164.667 148.908 164.609 148.936C164.554 148.963 164.474 148.98 164.368 148.988C164.263 148.996 164.12 149 163.941 149C163.761 149 163.616 148.996 163.507 148.988C163.401 148.98 163.321 148.963 163.267 148.936C163.212 148.908 163.175 148.869 163.155 148.818C163.14 148.764 163.13 148.691 163.126 148.602L162.874 139.584Z" fill="white"/>
<defs>
<filter id="filter0_f" x="128.201" y="139.016" width="9.54361" height="7.76957" filterUnits="userSpaceOnUse" color-interpolation-filters="sRGB">
<feFlood flood-opacity="0" result="BackgroundImageFix"/>
<feBlend mode="normal" in="SourceGraphic" in2="BackgroundImageFix" result="shape"/>
<feGaussianBlur stdDeviation="0.25" result="effect1_foregroundBlur"/>
</filter>
<filter id="filter1_f" x="105.643" y="125.393" width="8.13465" height="7.0191" filterUnits="userSpaceOnUse" color-interpolation-filters="sRGB">
<feFlood flood-opacity="0" result="BackgroundImageFix"/>
<feBlend mode="normal" in="SourceGraphic" in2="BackgroundImageFix" result="shape"/>
<feGaussianBlur stdDeviation="0.25" result="effect1_foregroundBlur"/>
</filter>
<linearGradient id="paint0_linear" x1="142.38" y1="141.048" x2="129.657" y2="147.05" gradientUnits="userSpaceOnUse">
<stop stop-color="white"/>
<stop offset="1" stop-color="white" stop-opacity="0"/>
</linearGradient>
<linearGradient id="paint1_linear" x1="100.949" y1="125.213" x2="114.345" y2="129.232" gradientUnits="userSpaceOnUse">
<stop stop-color="white"/>
<stop offset="1" stop-color="white" stop-opacity="0"/>
</linearGradient>
</defs>
</svg>
