<svg width="234" height="234" viewBox="0 0 234 234" fill="none" xmlns="http://www.w3.org/2000/svg">
<path d="M131.962 96.3927C131.962 113.675 114.733 119.785 93.4808 119.785C90.5487 119.785 86.8225 119.994 84.0782 119.785C82.8564 119.692 80.688 123.995 75.8946 127.117C70.4643 130.655 65.4902 130.487 64.2284 130.26C64.2284 130.26 66.2867 128.386 68.5815 124.499C70.8641 120.632 71.1227 117.022 69.9745 116.611C60.8659 113.352 55 107.19 55 96.3927C55.0001 77.888 72.2284 73 93.4808 73C114.733 73 131.962 79.11 131.962 96.3927Z" fill="#ECBD61"/>
<path d="M81.4453 102.089C81.5078 102.117 81.5859 102.13 81.6797 102.13C81.7734 102.13 81.9297 102.103 82.1484 102.048L82.0781 102.775H78.8496L78.955 102.13C79.334 102.13 79.5918 102.029 79.7285 101.826C79.8418 101.65 79.8984 101.327 79.8984 100.859V98.5208H75.5742V101.199C75.5742 101.617 75.5918 101.868 75.6269 101.954C75.666 102.036 75.709 102.087 75.7558 102.107C75.8066 102.122 75.8847 102.13 75.9902 102.13C76.1855 102.13 76.4082 102.099 76.6582 102.036L76.5703 102.775H73.2715L73.3711 102.13C73.7617 102.13 74.0175 102.044 74.1386 101.872C74.248 101.724 74.3027 101.425 74.3027 100.976V95.6204C74.3027 94.8665 74.1367 94.4896 73.8047 94.4896C73.664 94.4896 73.5117 94.5072 73.3476 94.5423L73.4179 93.8099H76.541L76.4531 94.4896C76.2734 94.4896 76.1269 94.4993 76.0136 94.5189C75.9004 94.5384 75.8105 94.5872 75.7441 94.6654C75.6308 94.806 75.5742 95.1497 75.5742 95.6966V97.7825H79.8984V95.6615C79.8984 95.1693 79.8711 94.8646 79.8164 94.7474C79.7656 94.6302 79.709 94.5579 79.6465 94.5306C79.584 94.5033 79.4941 94.4896 79.3769 94.4896C79.1933 94.4896 78.998 94.513 78.791 94.5599L78.9023 93.8099H82.1601L82.0781 94.4896C81.7343 94.4896 81.5019 94.5618 81.3808 94.7064C81.2363 94.8743 81.164 95.1947 81.164 95.6673V101.263C81.164 101.732 81.2578 102.007 81.4453 102.089ZM86.6894 101.861C87.4629 101.81 88.1445 101.624 88.7343 101.304L88.9922 101.796C88.4023 102.285 87.7304 102.618 86.9765 102.798C86.75 102.849 86.5429 102.874 86.3554 102.874C84.8828 102.874 83.955 102.224 83.5722 100.923C83.4472 100.505 83.3847 100.019 83.3847 99.4642C83.3847 98.9056 83.4746 98.3919 83.6543 97.9232C83.8379 97.4544 84.0781 97.056 84.375 96.7279C84.6758 96.3958 85.0195 96.14 85.4062 95.9603C85.7929 95.7806 86.1933 95.6908 86.6074 95.6908C88.2675 95.6908 89.0976 96.64 89.0976 98.5384V98.597C89.0976 99.0931 89.039 99.3411 88.9218 99.3411H84.6093C84.6093 100.158 84.789 100.779 85.1484 101.204C85.5117 101.63 86.0254 101.849 86.6894 101.861ZM87.7617 98.5911C87.7656 98.5091 87.7675 98.4466 87.7675 98.4036V98.2103C87.7675 97.2923 87.5136 96.7279 87.0058 96.5169C86.8222 96.4388 86.625 96.3997 86.414 96.3997C86.207 96.3997 86.0312 96.431 85.8867 96.4935C85.7422 96.556 85.6054 96.6419 85.4765 96.7513C85.3515 96.8607 85.2363 96.9896 85.1308 97.138C85.0254 97.2825 84.9336 97.4427 84.8554 97.6185C84.6914 97.9818 84.6093 98.3529 84.6093 98.7318L87.7617 98.5911ZM92.5312 92.7845C92.4492 93.2103 92.4082 94.0658 92.4082 95.3509V95.7728L92.4199 101.38C92.4199 101.701 92.4433 101.9 92.4902 101.978C92.5644 102.095 92.6953 102.154 92.8828 102.154C93.1445 102.154 93.373 102.132 93.5683 102.089L93.4746 102.775H90.082L90.1816 102.154C90.5879 102.154 90.8476 102.109 90.9609 102.019C91.0781 101.929 91.1523 101.837 91.1836 101.743C91.2187 101.646 91.2363 101.527 91.2363 101.386V94.7767C91.2363 94.4447 91.2148 94.2376 91.1718 94.1556C91.1328 94.0736 91.0957 94.013 91.0605 93.974C91.0293 93.931 90.9785 93.8978 90.9082 93.8743C90.8418 93.847 90.7636 93.8294 90.6738 93.8216C90.5488 93.806 90.3418 93.7982 90.0527 93.7982L90.123 93.1302L92.5312 92.7845ZM96.539 92.7845C96.457 93.2103 96.416 94.0658 96.416 95.3509V95.7728L96.4277 101.38C96.4277 101.701 96.4511 101.9 96.498 101.978C96.5722 102.095 96.7031 102.154 96.8906 102.154C97.1523 102.154 97.3808 102.132 97.5761 102.089L97.4824 102.775H94.0898L94.1894 102.154C94.5957 102.154 94.8554 102.109 94.9687 102.019C95.0859 101.929 95.1601 101.837 95.1914 101.743C95.2265 101.646 95.2441 101.527 95.2441 101.386V94.7767C95.2441 94.4447 95.2226 94.2376 95.1797 94.1556C95.1406 94.0736 95.1035 94.013 95.0683 93.974C95.0371 93.931 94.9863 93.8978 94.916 93.8743C94.8496 93.847 94.7715 93.8294 94.6816 93.8216C94.5566 93.806 94.3496 93.7982 94.0605 93.7982L94.1308 93.1302L96.539 92.7845ZM98.4375 99.2357C98.4375 98.7083 98.5351 98.224 98.7304 97.7825C98.9258 97.3372 99.1875 96.9583 99.5156 96.6458C100.191 96.0091 101.021 95.6908 102.006 95.6908C102.959 95.6908 103.715 96.0072 104.273 96.64C104.809 97.2454 105.076 98.0345 105.076 99.0072C105.076 100.113 104.728 101.036 104.033 101.779C103.35 102.501 102.508 102.863 101.508 102.863C100.523 102.863 99.7558 102.513 99.205 101.814C98.6933 101.169 98.4375 100.31 98.4375 99.2357ZM101.771 102.118C102.068 102.118 102.33 102.066 102.557 101.96C102.787 101.855 102.986 101.693 103.154 101.474C103.521 101.009 103.705 100.337 103.705 99.4583C103.705 98.5208 103.525 97.7767 103.166 97.2259C102.803 96.6751 102.309 96.3997 101.684 96.3997C101.133 96.3997 100.686 96.6146 100.342 97.0443C99.9629 97.5169 99.7734 98.1947 99.7734 99.0775C99.7734 99.9954 99.9511 100.728 100.307 101.275C100.67 101.837 101.158 102.118 101.771 102.118ZM111.926 100.255L111.797 100.261L111.416 93.3294C111.537 93.1615 111.924 93.0091 112.576 92.8724C112.728 92.8411 112.842 92.8255 112.916 92.8255L113.08 93.1243L112.6 100.109C112.416 100.199 112.191 100.247 111.926 100.255ZM111.27 102.019C111.27 101.761 111.361 101.544 111.545 101.368C111.732 101.189 111.92 101.099 112.107 101.099C112.299 101.099 112.451 101.124 112.564 101.175C112.682 101.222 112.783 101.286 112.869 101.368C113.053 101.548 113.145 101.765 113.145 102.019C113.145 102.269 113.053 102.486 112.869 102.669C112.686 102.853 112.463 102.945 112.201 102.945C111.951 102.945 111.732 102.853 111.545 102.669C111.361 102.493 111.27 102.277 111.27 102.019Z" fill="white"/>
<path d="M105.802 126.03C105.802 133.409 109.353 138.314 115.476 141.556C121.809 144.91 130.856 146.423 141.282 146.423C142.393 146.423 143.517 146.447 144.621 146.471C146.723 146.517 148.749 146.562 150.457 146.431C151.516 146.351 152.334 146.763 152.769 147.032C153.229 147.317 153.615 147.665 153.9 147.943C154.339 148.371 154.846 148.945 155.322 149.486C155.443 149.623 155.563 149.759 155.679 149.889C156.929 151.294 158.455 152.905 160.506 154.241C161.632 154.975 162.728 155.518 163.752 155.919C163.701 155.834 163.649 155.748 163.598 155.661C162.29 153.445 161.5 151.206 161.229 149.323C161.097 148.402 161.064 147.397 161.272 146.459C161.455 145.637 162.033 144.048 163.778 143.424C167.975 141.922 171.179 139.839 173.338 137.106C175.467 134.411 176.763 130.852 176.763 126.03C176.763 121.886 175.805 118.689 174.208 116.179C172.605 113.66 170.239 111.646 167.134 110.07C160.821 106.864 151.787 105.637 141.282 105.637C130.856 105.637 121.809 107.15 115.476 110.504C109.353 113.747 105.802 118.651 105.802 126.03Z" fill="#ECBD61" stroke="#282828" stroke-width="6"/>
<path d="M125.046 123.02L125.175 123.014L125.556 129.945C125.435 130.113 125.048 130.266 124.396 130.402C124.244 130.434 124.13 130.449 124.056 130.449L123.892 130.15L124.373 123.166C124.556 123.076 124.781 123.027 125.046 123.02ZM125.703 121.256C125.703 121.514 125.611 121.73 125.427 121.906C125.24 122.086 125.05 122.176 124.859 122.176C124.671 122.176 124.519 122.152 124.402 122.105C124.289 122.055 124.189 121.988 124.103 121.906C123.919 121.727 123.828 121.51 123.828 121.256C123.828 121.006 123.919 120.789 124.103 120.605C124.287 120.422 124.509 120.33 124.771 120.33C125.021 120.33 125.24 120.422 125.427 120.605C125.611 120.781 125.703 120.998 125.703 121.256ZM135.476 128.814C135.539 128.842 135.617 128.855 135.71 128.855C135.804 128.855 135.96 128.828 136.179 128.773L136.109 129.5H132.88L132.986 128.855C133.365 128.855 133.623 128.754 133.759 128.551C133.873 128.375 133.929 128.053 133.929 127.584V125.246H129.605V127.924C129.605 128.342 129.623 128.594 129.658 128.68C129.697 128.762 129.74 128.813 129.787 128.832C129.837 128.848 129.916 128.855 130.021 128.855C130.216 128.855 130.439 128.824 130.689 128.762L130.601 129.5H127.302L127.402 128.855C127.792 128.855 128.048 128.77 128.169 128.598C128.279 128.449 128.333 128.15 128.333 127.701V122.346C128.333 121.592 128.167 121.215 127.835 121.215C127.695 121.215 127.542 121.232 127.378 121.268L127.449 120.535H130.572L130.484 121.215C130.304 121.215 130.158 121.225 130.044 121.244C129.931 121.264 129.841 121.313 129.775 121.391C129.662 121.531 129.605 121.875 129.605 122.422V124.508H133.929V122.387C133.929 121.895 133.902 121.59 133.847 121.473C133.796 121.355 133.74 121.283 133.677 121.256C133.615 121.229 133.525 121.215 133.408 121.215C133.224 121.215 133.029 121.238 132.822 121.285L132.933 120.535H136.191L136.109 121.215C135.765 121.215 135.533 121.287 135.412 121.432C135.267 121.6 135.195 121.92 135.195 122.393V127.988C135.195 128.457 135.289 128.732 135.476 128.814ZM137.445 125.961C137.445 125.434 137.542 124.949 137.738 124.508C137.933 124.063 138.195 123.684 138.523 123.371C139.199 122.734 140.029 122.416 141.013 122.416C141.966 122.416 142.722 122.732 143.281 123.365C143.816 123.971 144.083 124.76 144.083 125.732C144.083 126.838 143.736 127.762 143.041 128.504C142.357 129.227 141.515 129.588 140.515 129.588C139.531 129.588 138.763 129.238 138.212 128.539C137.701 127.895 137.445 127.035 137.445 125.961ZM140.779 128.844C141.076 128.844 141.337 128.791 141.564 128.686C141.794 128.58 141.994 128.418 142.162 128.199C142.529 127.734 142.712 127.063 142.712 126.184C142.712 125.246 142.533 124.502 142.173 123.951C141.81 123.4 141.316 123.125 140.691 123.125C140.14 123.125 139.693 123.34 139.349 123.77C138.97 124.242 138.781 124.92 138.781 125.803C138.781 126.721 138.958 127.453 139.314 128C139.677 128.563 140.166 128.844 140.779 128.844ZM147.558 119.51C147.476 119.936 147.435 120.791 147.435 122.076V122.498L147.447 128.105C147.447 128.426 147.47 128.625 147.517 128.703C147.591 128.82 147.722 128.879 147.91 128.879C148.171 128.879 148.4 128.857 148.595 128.814L148.501 129.5H145.109L145.208 128.879C145.615 128.879 145.875 128.834 145.988 128.744C146.105 128.654 146.179 128.563 146.21 128.469C146.246 128.371 146.263 128.252 146.263 128.111V121.502C146.263 121.17 146.242 120.963 146.199 120.881C146.16 120.799 146.123 120.738 146.087 120.699C146.056 120.656 146.005 120.623 145.935 120.6C145.869 120.572 145.791 120.555 145.701 120.547C145.576 120.531 145.369 120.523 145.08 120.523L145.15 119.855L147.558 119.51ZM154.765 124.397L154.671 127.508C154.671 127.926 154.798 128.227 155.052 128.41C155.228 128.539 155.453 128.604 155.726 128.604C155.71 128.803 155.63 128.982 155.486 129.143C155.232 129.424 155.025 129.586 154.865 129.629C154.623 129.629 154.394 129.547 154.179 129.383C153.968 129.219 153.804 128.979 153.687 128.662C153.242 129.084 152.697 129.383 152.052 129.559C151.873 129.609 151.662 129.635 151.419 129.635C151.181 129.635 150.925 129.59 150.652 129.5C150.382 129.406 150.156 129.275 149.972 129.107C149.601 128.768 149.416 128.305 149.416 127.719C149.416 127.008 149.814 126.455 150.611 126.061C151.353 125.693 152.33 125.51 153.541 125.51H153.605C153.605 125.264 153.601 125.023 153.593 124.789L153.587 124.555C153.568 124.082 153.398 123.723 153.078 123.477C152.824 123.281 152.511 123.184 152.14 123.184C151.769 123.184 151.47 123.283 151.244 123.482C151.017 123.678 150.904 123.961 150.904 124.332C150.904 124.469 150.919 124.615 150.951 124.772H149.902L149.861 124.76C149.849 124.697 149.837 124.631 149.826 124.561C149.791 124.393 149.761 124.219 149.738 124.039C149.718 123.855 149.708 123.734 149.708 123.676C149.708 123.59 149.724 123.527 149.755 123.488C150.767 122.773 151.757 122.416 152.726 122.416C153.671 122.416 154.294 122.76 154.595 123.447C154.708 123.701 154.765 124.018 154.765 124.397ZM153.541 127.736C153.568 127.244 153.587 126.717 153.599 126.154C153.556 126.139 153.425 126.131 153.207 126.131C152.992 126.131 152.718 126.166 152.386 126.236C152.058 126.303 151.771 126.4 151.525 126.529C151.001 126.807 150.74 127.178 150.74 127.643C150.74 127.967 150.845 128.238 151.056 128.457C151.271 128.676 151.548 128.785 151.888 128.785C152.31 128.785 152.744 128.596 153.189 128.217C153.322 128.104 153.439 127.984 153.541 127.859V127.736ZM157.507 126.98L157.378 126.986L156.998 120.055C157.119 119.887 157.505 119.734 158.158 119.598C158.31 119.566 158.423 119.551 158.498 119.551L158.662 119.85L158.181 126.834C157.998 126.924 157.773 126.973 157.507 126.98ZM156.851 128.744C156.851 128.486 156.943 128.27 157.126 128.094C157.314 127.914 157.501 127.824 157.689 127.824C157.88 127.824 158.033 127.85 158.146 127.9C158.263 127.947 158.365 128.012 158.451 128.094C158.634 128.273 158.726 128.49 158.726 128.744C158.726 128.994 158.634 129.211 158.451 129.395C158.267 129.578 158.044 129.67 157.783 129.67C157.533 129.67 157.314 129.578 157.126 129.395C156.943 129.219 156.851 129.002 156.851 128.744Z" fill="white"/>
</svg>
