<svg width="234" height="234" viewBox="0 0 234 234" fill="none" xmlns="http://www.w3.org/2000/svg">
<path d="M94.8736 152.53C94.8736 152.53 98.2552 149.526 99.6506 148.705C101.046 147.884 103.508 147.08 105.298 146.785C107.087 146.489 108.797 146.685 111.467 146.709C114.137 146.732 120.08 145.85 121.473 145.13C122.866 144.41 124.98 140.744 126.014 139.874C127.048 139.003 128.066 138.708 129.117 138.642C130.167 138.577 131.448 139.874 132.892 140.596C134.337 141.318 135.552 141.335 137.636 141.039C139.721 140.744 141.527 140.661 142.397 141.055C143.267 141.449 144.186 142.303 144.925 142.303C145.664 142.303 146.501 143.009 146.96 143.501C147.42 143.994 147.387 144.7 147.157 144.897C146.928 145.094 146.87 144.967 145.709 144.642C144.549 144.317 143.574 144.457 141.995 144.782C140.416 145.107 140.37 145.432 139.116 146.128C137.863 146.825 136.563 147.289 134.613 148.125C132.663 148.96 129.784 149.61 127.137 150.585C124.491 151.561 111.119 156.9 108.426 157.318C105.733 157.736 101.508 158.711 99.8826 159.036C98.2575 159.361 95.9824 159.314 94.1717 159.5C92.3609 159.686 92.2216 159.639 91.4323 159.268C90.6429 158.897 89.575 158.757 88.7857 158.479C87.9964 158.2 87.2999 157.504 85.9999 155.461C84.6998 153.418 87.2535 150.725 88.6929 149.1C90.1322 147.475 93.1038 146.221 94.961 145.2C96.8182 144.178 103.69 140.881 105.083 140.278C106.476 139.674 108.194 138.931 108.704 137.26C109.215 135.588 108.704 134.195 108.844 132.57C108.983 130.945 109.354 130.667 109.587 128.717C109.819 126.767 109.354 127.742 109.308 125.374C109.262 123.006 108.462 119.519 107.533 116.548V114.962L134.895 114.962V116.088C133.967 119.059 133.167 122.546 133.121 124.914C133.074 127.282 132.61 126.307 132.842 128.257C133.074 130.207 133.446 130.486 133.585 132.111C133.724 133.736 133.213 135.129 133.724 136.8C134.235 138.472 135.953 139.214 137.346 139.818C138.739 140.422 145.61 143.718 147.468 144.74C149.325 145.761 152.296 147.015 153.736 148.64C155.175 150.265 157.729 152.958 156.429 155.001C155.129 157.044 154.432 157.74 153.643 158.019C152.854 158.297 151.786 158.437 150.996 158.808C150.207 159.18 150.068 159.226 148.257 159.04C146.446 158.855 144.171 158.901 142.546 158.576C140.921 158.251 136.696 157.276 134.003 156.858C131.31 156.44 117.938 151.101 115.291 150.126C112.645 149.151 109.766 148.501 107.816 147.665C105.866 146.829 104.566 146.365 103.312 145.668C102.059 144.972 102.012 144.647 100.434 144.322C98.8549 143.997 97.8798 143.858 96.7191 144.183C95.5583 144.508 95.5009 144.634 95.2711 144.437C95.0413 144.24 95.0084 143.534 95.4681 143.042C95.9277 142.549 96.7649 141.843 97.5036 141.843C98.2423 141.843 99.1616 140.99 100.032 140.596C100.902 140.202 102.707 140.284 104.792 140.579C106.877 140.875 108.092 140.858 109.536 140.136C110.981 139.414 112.261 138.117 113.312 138.183C114.363 138.248 115.38 138.544 116.414 139.414C117.449 140.284 119.563 143.95 120.956 144.67C122.349 145.39 128.292 146.272 130.962 146.249C133.631 146.225 135.342 146.029 137.131 146.325C138.92 146.62 141.383 147.425 142.778 148.245C144.173 149.066 147.555 152.07 147.555 152.07" fill="#D3E469"/>
<path d="M107.945 115.298C106.901 117.129 105.611 120.403 105.286 121.285C104.961 122.167 104.543 123.421 103.893 124.303C103.243 125.185 103.011 126.068 102.825 126.996C102.639 127.925 102.221 129.178 101.432 130.618C100.643 132.057 97.9962 134.472 95.9069 136.7C93.8175 138.929 92.5058 140.774 91.554 142.783C90.6022 144.791 90.0566 145.754 89.8593 146.416C89.662 147.077 89.8593 147.994 90.0566 148.575C90.254 149.155 90.3004 150.328 90.1843 150.734C90.0682 151.14 89.7664 152.196 89.7664 152.916C89.7664 153.636 89.8477 153.589 89.6272 153.81C89.4066 154.03 89.0932 153.926 88.861 153.671C88.6289 153.415 88.42 152.881 88.4316 152.521C88.4432 152.162 88.4896 151.198 88.4896 150.792C88.4896 150.386 88.0253 149.608 87.7119 149.608C87.3985 149.608 87.2708 149.828 87.0851 150.246C86.8994 150.664 87.0038 151.43 87.2476 152.289C87.4913 153.148 88.536 153.763 88.6869 153.926C88.8378 154.088 88.7914 154.39 88.5941 154.448C88.3967 154.506 87.9673 154.529 87.0387 154.019C86.11 153.508 85.4716 152.475 85.4716 152.475L85.3555 152.254C85.3555 152.254 85.3207 152.603 85.3207 152.777C85.3207 152.951 85.3672 153.717 85.5181 154.495C85.669 155.272 85.9824 156.677 85.9591 157.106C85.9359 157.536 85.6341 157.652 85.4832 157.675C85.3323 157.698 85.0654 157.164 84.7287 156.48C84.3921 155.795 83.8001 153.856 83.8001 153.856L83.7537 153.543C83.7537 153.543 83.6724 153.879 83.6608 154.077C83.6492 154.274 83.5912 154.913 83.7537 155.644C83.9162 156.375 83.9975 157.211 83.8814 157.362C83.7653 157.513 83.4055 157.431 83.2197 157.292C83.034 157.153 82.5813 155.992 82.4188 155.47C82.2563 154.947 82.326 152.278 82.326 152.278L82.3492 151.86C82.3492 151.86 82.1286 152.254 81.9893 152.521C81.85 152.788 81.5947 153.218 81.2116 153.81C80.8286 154.402 80.1785 154.402 80.1321 154.332C80.0857 154.263 79.7955 154.158 80.2598 153.276C80.7241 152.394 81.8849 149.794 82.5349 148.633C83.1849 147.472 84.16 146.729 85.2279 145.197C86.2958 143.665 87.6422 141.715 89.2209 138.418C90.7995 135.122 91.1245 133.543 92.1924 131.129C93.2603 128.714 94.7925 126.207 96.464 124.025C98.1355 121.842 98.9249 118.917 99.6213 116.642C100.318 114.367 100.225 112.371 100.875 109.306C101.525 106.242 102.036 104.477 103.568 102.667C105.1 100.856 108.118 100.902 109.65 100.949C111.183 100.995 111.461 100.392 113.829 98.9986C116.197 97.6057 116.022 95.2034 115.743 93.9497C115.781 94.0288 126.738 93.6018 126.738 93.6018C126.459 94.8554 126.427 97.2774 128.795 98.6703C131.163 100.063 131.442 100.667 132.974 100.62C134.506 100.574 137.524 100.528 139.057 102.338C140.589 104.149 141.099 105.913 141.749 108.978C142.4 112.042 142.307 114.039 143.003 116.314C143.7 118.589 144.489 121.514 146.16 123.696C147.832 125.879 149.364 128.386 150.432 130.8C151.5 133.215 151.825 134.793 153.404 138.09C154.982 141.386 156.329 143.336 157.397 144.869C158.464 146.401 159.439 147.144 160.09 148.304C160.74 149.465 161.9 152.065 162.365 152.948C162.829 153.83 162.539 153.934 162.492 154.004C162.446 154.073 161.796 154.073 161.413 153.481C161.03 152.89 160.774 152.46 160.635 152.193C160.496 151.926 160.275 151.531 160.275 151.531L160.298 151.949C160.298 151.949 160.368 154.619 160.206 155.141C160.043 155.664 159.59 156.824 159.405 156.964C159.219 157.103 158.859 157.184 158.743 157.033C158.627 156.883 158.708 156.047 158.871 155.316C159.033 154.584 158.975 153.946 158.964 153.748C158.952 153.551 158.871 153.215 158.871 153.215L158.824 153.528C158.824 153.528 158.232 155.466 157.896 156.151C157.559 156.836 157.292 157.37 157.141 157.347C156.99 157.324 156.688 157.208 156.665 156.778C156.642 156.349 156.955 154.944 157.106 154.166C157.257 153.389 157.304 152.623 157.304 152.448C157.304 152.274 157.269 151.926 157.269 151.926L157.153 152.147C157.153 152.147 156.514 153.18 155.586 153.69C154.657 154.201 154.228 154.178 154.03 154.12C153.833 154.062 153.787 153.76 153.937 153.598C154.088 153.435 155.133 152.82 155.377 151.961C155.621 151.102 155.725 150.336 155.539 149.918C155.354 149.5 155.226 149.28 154.913 149.28C154.599 149.28 154.135 150.057 154.135 150.464C154.135 150.87 154.181 151.833 154.193 152.193C154.204 152.553 153.996 153.087 153.763 153.342C153.531 153.598 153.218 153.702 152.997 153.481C152.777 153.261 152.858 153.307 152.858 152.588C152.858 151.868 152.556 150.812 152.44 150.405C152.324 149.999 152.37 148.827 152.568 148.246C152.765 147.666 152.962 146.749 152.765 146.087C152.568 145.426 152.022 144.462 151.07 142.454C150.119 140.446 148.807 138.601 146.718 136.372C144.628 134.143 141.982 131.729 141.192 130.289C140.403 128.85 139.985 127.597 139.799 126.668C139.614 125.739 139.382 124.857 138.731 123.975C138.081 123.093 137.664 121.839 137.339 120.957C137.014 120.075 135.724 116.801 134.68 114.97" fill="#D3E469"/>
<path d="M116.836 76.5759C115.523 77.6265 114.045 79.9247 113.881 81.3036C113.717 82.6825 113.947 84.3569 113.947 84.3569L114.308 85.0792C114.308 85.0792 113.651 84.6524 113.323 84.7181C112.995 84.7837 112.929 85.8672 113.06 86.4253C113.192 86.9834 113.586 87.4102 113.717 88.3295C113.848 89.2488 113.816 90.1024 114.341 90.562C114.866 91.0217 114.899 90.6277 115.129 90.8904C115.359 91.153 115.063 91.1858 115.227 92.1708C115.392 93.1557 115.654 94.2063 116.705 95.3554C117.755 96.5045 119.136 96.6471 121.305 96.6471C123.475 96.6471 124.577 96.5045 125.627 95.3554C126.678 94.2063 126.94 93.1557 127.105 92.1708C127.269 91.1858 126.973 91.153 127.203 90.8904C127.433 90.6277 127.466 91.0217 127.991 90.562C128.516 90.1024 128.484 89.2488 128.615 88.3295C128.746 87.4102 129.14 86.9834 129.272 86.4253C129.403 85.8672 129.337 84.7837 129.009 84.7181C128.681 84.6524 128.024 85.0792 128.024 85.0792L128.385 84.3569C128.385 84.3569 128.615 82.6825 128.451 81.3036C128.287 79.9247 126.809 77.6265 125.496 76.5759C124.183 75.5253 123.093 75 121.166 75C119.239 75 118.149 75.5253 116.836 76.5759V76.5759Z" fill="#D3E469"/>
</svg>
