<svg width="234" height="234" viewBox="0 0 234 234" fill="none" xmlns="http://www.w3.org/2000/svg">
<path d="M107.232 72.0274C105.812 72.0631 102.165 72.361 101.47 72.498C100.781 72.6351 100.341 73.9994 100.27 76.2216C100.193 78.6464 100.65 80.4754 101.446 80.8925C101.63 80.9938 103.549 81.1308 105.955 81.2261C106.917 81.2619 107.719 81.2976 107.731 81.3095C107.743 81.3214 107.755 82.8049 107.761 84.5982L107.767 87.863L107.434 87.3983C106.911 86.6655 106.21 85.9029 105.177 84.9378C104.185 84.0143 103.597 83.5437 103.044 83.2339C102.866 83.1326 102.504 82.9062 102.242 82.7394C101.791 82.4415 101.262 82.1496 101.262 82.1913C101.262 82.2032 101.387 82.2985 101.535 82.4057C101.684 82.513 101.791 82.6143 101.779 82.6262C101.767 82.6381 101.559 82.6083 101.316 82.5487C100.918 82.4594 100.888 82.4474 101.042 82.3998C101.131 82.364 101.203 82.3164 101.203 82.2866C101.203 82.1376 100.84 82.1019 99.6583 82.1317C97.1277 82.2032 91.3477 83.0373 90.0528 83.5198C89.7854 83.6152 89.7439 83.6807 89.8745 83.7641C89.9221 83.7879 89.9696 83.8594 89.9933 83.9131C90.0468 84.068 90.4805 84.3539 91.318 84.8008C91.7279 85.0212 92.1556 85.2893 92.2744 85.3965C92.9754 86.0698 95.5594 89.2095 96.3139 90.3057L96.4386 90.4904L93.0467 91.1636C91.1755 91.539 89.4884 91.8964 89.2983 91.956C89.1023 92.0215 88.7934 92.1705 88.6152 92.2896C88.431 92.4088 88.1815 92.5577 88.0568 92.6173C87.7004 92.802 87.6172 92.9569 87.3915 93.8803C86.9935 95.483 86.9163 96.2217 86.9697 98.1103C86.9875 98.8968 87.0351 99.9155 87.0707 100.374C87.1182 100.988 87.1123 101.667 87.0648 102.936C87.0232 103.889 87.0054 105.236 87.0291 105.945C87.0469 106.648 87.0707 107.655 87.0707 108.173L87.0826 109.126L86.4648 109.257C84.6827 109.633 83.2629 110.062 81.9323 110.628C80.5126 111.229 80.0195 111.628 79.7166 112.409C79.5384 112.88 79.2889 113.851 79.17 114.554C78.9443 115.864 78.9443 117.64 79.1641 121.018C79.2651 122.62 79.2829 123.395 79.271 126.32L79.2532 129.746L79.4195 130.121C79.9423 131.307 81.0888 132.403 83.1204 133.66C83.9758 134.19 85.3302 135.042 87.1539 136.192C91.4666 138.909 96.4267 141.453 102.284 143.931C104.345 144.807 106.169 145.504 109.026 146.511C111.39 147.345 112.032 147.554 112.62 147.679C112.858 147.732 113.279 147.834 113.559 147.899C114.26 148.072 115.127 148.024 116.648 147.744C118.537 147.387 118.941 147.274 125.885 145.016C131.837 143.085 137.427 140.887 142.429 138.504C143.231 138.122 144.342 137.628 144.894 137.402C150.365 135.197 152.694 133.97 154.101 132.546C154.547 132.099 154.589 132.04 154.755 131.533L154.933 130.997V126.976C154.933 124.765 154.957 122.192 154.987 121.256C155.04 119.415 154.927 116.758 154.761 115.805C154.606 114.941 154.315 114.28 153.894 113.827C153.638 113.553 153.953 113.678 146.367 110.824C144.567 110.145 143.629 109.764 143.646 109.716C143.658 109.674 143.712 109.448 143.759 109.21C144.08 107.649 144.044 105.7 143.617 101.059C143.581 100.714 143.557 100.243 143.557 100.005C143.557 99.1649 143.361 98.6287 142.845 98.0627C142.381 97.5563 141.401 97.0379 140.29 96.7103C140.047 96.6388 139.298 96.3945 138.627 96.1741C137.956 95.9477 136.791 95.6021 136.043 95.4115C133.94 94.8634 129.419 93.4037 128.956 93.1237C128.202 92.665 127.465 92.0871 125.38 90.3355C124.905 89.9363 124.281 89.424 123.984 89.1976C123.693 88.9712 123.224 88.6137 122.944 88.3992C122.362 87.9464 120.948 87.2196 120.105 86.9396C119.196 86.6357 118.347 86.463 117.539 86.4272L116.796 86.3915L114.574 86.8443C113.351 87.0885 112.335 87.2851 112.323 87.2673C112.311 87.2553 112.335 86.9932 112.377 86.6894C112.543 85.5514 112.454 82.8049 112.216 81.4823L112.181 81.2976L113.452 81.2559C114.824 81.2142 117.586 81.0653 118.477 80.9878C118.964 80.9461 119.053 80.9163 119.202 80.7733C119.725 80.2729 120.057 78.7417 120.057 76.8114C120.057 74.5534 119.606 72.9032 118.893 72.5636C118.584 72.4146 115.471 72.1584 112.668 72.0452C111.361 71.9916 108.848 71.9857 107.232 72.0274ZM111.949 82.1257C111.943 82.5964 111.925 83.1266 111.895 83.3054C111.866 83.5318 111.848 83.2696 111.842 82.4534C111.842 81.7087 111.86 81.2797 111.895 81.2797C111.931 81.2797 111.955 81.6015 111.949 82.1257ZM90.3141 83.9369C90.2963 83.9548 90.2428 83.9607 90.2013 83.9428C90.1537 83.925 90.1716 83.9071 90.2369 83.9071C90.3022 83.9011 90.3379 83.919 90.3141 83.9369ZM108.082 87.3566C108.076 88.0596 108.07 88.0775 108.034 87.6545C107.969 86.9515 107.969 86.4213 108.034 86.5225C108.064 86.5702 108.088 86.9455 108.082 87.3566ZM88.3716 92.8199C88.235 92.939 88.039 93.1475 87.9499 93.2727C87.7598 93.5348 87.7301 93.5229 87.8667 93.2607C87.9618 93.0761 88.4667 92.5994 88.5677 92.5994C88.6033 92.5994 88.5142 92.7007 88.3716 92.8199ZM87.8608 93.0463C87.8073 93.1297 87.7538 93.1952 87.736 93.1952C87.7063 93.1952 87.7657 93.088 87.8548 92.9688C87.9558 92.8377 87.9618 92.8914 87.8608 93.0463Z" fill="#BE7EC9"/>
</svg>
