<svg width="234" height="234" viewBox="0 0 234 234" fill="none" xmlns="http://www.w3.org/2000/svg">
<g filter="url(#filter0_f)">
<path d="M126.135 134.545C126.135 134.545 124.57 135.083 123.005 135.546C121.393 136.024 119.664 136.337 119.664 136.337L118.023 133.309C118.023 133.309 119.842 132.521 121.11 131.666C122.43 130.777 123.623 129.91 123.623 129.91L126.135 134.545Z" fill="#FF6972"/>
<path d="M126.135 134.545C126.135 134.545 124.57 135.083 123.005 135.546C121.393 136.024 119.664 136.337 119.664 136.337L118.023 133.309C118.023 133.309 119.842 132.521 121.11 131.666C122.43 130.777 123.623 129.91 123.623 129.91L126.135 134.545Z" fill="url(#paint0_linear)"/>
</g>
<path d="M82.2188 120.021L94.7886 119.425L94.7853 119.425L95.7344 139.458L83.1679 140.053L82.2188 120.021Z" fill="#FF6972"/>
<path d="M62.9023 132.292L67.1758 128.816L72.0349 131.621L72.7587 141.478L63.6261 142.149L62.9023 132.292Z" fill="#FF6972"/>
<path d="M74.3048 128.516L79.1169 123.86L84.685 127.902L85.4411 140.697L75.0609 141.311L74.3048 128.516Z" fill="#FF6972"/>
<path d="M88.6584 129.878L96.1888 124.346L104.318 128.953L104.917 139.09L89.2575 140.015L88.6584 129.878Z" fill="#FF6972"/>
<path d="M116.502 122.495L114.793 123.777L114.793 122.495L114.793 120.786L116.502 120.786L116.502 122.495Z" fill="#FF6972"/>
<path d="M143.05 126.439L141.283 127.277L141.345 126.326L141.429 125.059L143.134 125.171L143.05 126.439Z" fill="#FF6972"/>
<path d="M150.146 122.663L165.128 123.316L165.124 123.316L164.381 140.34L149.404 139.687L150.146 122.663Z" fill="#FF6972"/>
<path d="M154.1 122.836L152.391 122.761L152.439 121.641L154.147 121.716L154.1 122.836Z" fill="#FF6972"/>
<path d="M90.895 128.476L89.2058 129.784L89.1862 128.502L89.1601 126.794L90.8689 126.768L90.895 128.476Z" fill="#FF6972"/>
<path d="M102.179 110.875L113.607 110.333L113.604 110.333L114.953 138.809L103.528 139.351L102.179 110.875Z" fill="#FF6972"/>
<path d="M130.35 106.26L141.452 106.612L141.449 106.612L140.42 139.066L129.32 138.714L130.35 106.26Z" fill="#FF6972"/>
<path d="M170.198 131.195L176.445 131.687L176.445 131.685L175.727 140.836L169.48 140.345L170.198 131.195Z" fill="#FF6972"/>
<path d="M113.085 125.053L120.742 118.223L129.31 124.148L129.31 138.73L113.148 138.641L113.085 125.053Z" fill="#FF6972"/>
<path d="M129.309 127.579L134.447 131.428L134.436 138.73H129.31L129.309 127.579Z" fill="#FF6972"/>
<path d="M139.177 128.422L147.241 123.703L154.848 129.128L154.391 139.273L138.719 138.567L139.177 128.422Z" fill="#FF6972"/>
<path d="M185.716 142.148C185.716 142.148 165.68 138.657 124.194 138.731C83.7055 138.803 49.0002 143.857 49.0002 143.857" stroke="#FE7D85"/>
<path d="M127.495 140.333C163.86 140.257 180.071 145.62 180.071 145.62C180.071 145.62 161.139 141.94 140.125 144.152C123.624 145.888 113.286 147.583 100.731 149.642L100.178 149.732C82.261 152.669 60.5254 155.313 61.9941 149.732C63.4627 144.151 92.0042 140.408 127.495 140.333Z" fill="#FF6972" stroke="#FE7D85"/>
<path d="M60.1074 138.012L61.194 137.876L61.6967 141.875L60.6101 142.012L60.1074 138.012Z" fill="#FF6972"/>
<circle cx="60.5351" cy="136.594" r="2.13618" fill="#FF6972"/>
<path d="M58.2061 139.319L59.1697 139.198L59.6155 142.745L58.6519 142.866L58.2061 139.319Z" fill="#FF6972"/>
<circle cx="58.585" cy="138.061" r="1.89455" fill="#FF6972"/>
<path d="M54.5132 137.962L55.8455 137.795L56.462 142.699L55.1296 142.866L54.5132 137.962Z" fill="#FF6972"/>
<circle cx="55.0374" cy="136.223" r="2.61944" fill="#FF6972"/>
<path d="M179.543 137.399L180.637 137.452L180.443 141.478L179.35 141.426L179.543 137.399Z" fill="#FF6972"/>
<circle cx="180.208" cy="136.076" r="2.13618" transform="rotate(9.92148 180.208 136.076)" fill="#FF6972"/>
<path d="M176.735 137.212L177.706 137.234L177.625 140.808L176.654 140.786L176.735 137.212Z" fill="#FF6972"/>
<circle cx="177.295" cy="136.023" r="1.89455" transform="rotate(8.4667 177.295 136.023)" fill="#FF6972"/>
<path d="M182.943 138.712L183.678 138.813L183.306 141.516L182.571 141.415L182.943 138.712Z" fill="#FF6972"/>
<circle cx="183.471" cy="137.86" r="1.44585" transform="rotate(15 183.471 137.86)" fill="#FF6972"/>
<path d="M167.536 134.97L168.878 135.004L168.751 139.946L167.408 139.911L167.536 134.97Z" fill="#FF6972"/>
<circle cx="168.315" cy="133.329" r="2.61944" transform="rotate(8.64157 168.315 133.329)" fill="#FF6972"/>
<path d="M129.822 134.679L130.878 134.706L130.778 138.595L129.721 138.568L129.822 134.679Z" fill="#FF6972"/>
<circle cx="130.434" cy="133.388" r="2.06148" transform="rotate(8.64157 130.434 133.388)" fill="#FF6972"/>
<path d="M133.033 136.981L133.568 137.001L133.548 138.775L133.012 138.754L133.033 136.981Z" fill="#FF6972"/>
<ellipse cx="133.334" cy="136.397" rx="1.04674" ry="0.937848" transform="rotate(8.64157 133.334 136.397)" fill="#FF6972"/>
<path d="M129.592 93.3262C128.809 95.8435 124.47 99.3679 122.875 98.8722C121.281 98.3766 119.703 93.0137 120.485 90.4964C121.268 87.9791 123.94 86.5719 126.455 87.3533C128.97 88.1347 130.374 90.8089 129.592 93.3262Z" fill="#FF6972"/>
<path d="M129.592 93.3262C128.809 95.8435 124.47 99.3679 122.875 98.8722C121.281 98.3766 119.703 93.0137 120.485 90.4964C121.268 87.9791 123.94 86.5719 126.455 87.3533C128.97 88.1347 130.374 90.8089 129.592 93.3262Z" fill="#FF6972"/>
<path d="M123.118 89.0651C122.081 89.9006 121.821 91.2879 121.422 90.7931C121.023 90.2983 121.54 89.2198 122.577 88.3843C123.613 87.5488 124.777 87.2727 125.176 87.7675C125.575 88.2623 124.155 88.2296 123.118 89.0651Z" fill="#FF6972"/>
<path d="M122.983 98.8649C122.983 98.8649 122.299 99.3963 122.178 100.244C122.038 101.229 122.221 101.818 122.164 102.811C122.116 103.648 121.464 104.581 121.464 104.581" stroke="#FE7D85" stroke-width="0.5"/>
<path d="M122.426 98.7391C122.719 98.5471 123.11 98.7445 123.13 99.0945L123.164 99.6971C123.168 99.7793 123.082 99.8356 123.009 99.7985V99.7985C123 99.7943 122.992 99.7889 122.985 99.7825L122.754 99.5735C122.617 99.4504 122.442 99.3786 122.258 99.3704L122.018 99.3597C121.978 99.3579 121.94 99.3414 121.911 99.3132V99.3132C121.836 99.2403 121.848 99.1171 121.936 99.06L122.426 98.7391Z" fill="#FF6972"/>
<path d="M114.866 90.7943C115.875 93.2296 114.794 98.7143 113.251 99.3536C111.709 99.993 107.065 96.8801 106.056 94.4448C105.047 92.0096 106.201 89.2182 108.634 88.2102C111.066 87.2021 113.856 88.3591 114.866 90.7943Z" fill="#FF6972"/>
<path d="M114.866 90.7943C115.875 93.2296 114.794 98.7143 113.251 99.3536C111.709 99.993 107.065 96.8801 106.056 94.4448C105.047 92.0096 106.201 89.2182 108.634 88.2102C111.066 87.2021 113.856 88.3591 114.866 90.7943Z" fill="#FF6972"/>
<path d="M107.165 91.6606C106.903 92.9659 107.59 94.1991 106.967 94.0739C106.343 93.9487 106.051 92.789 106.313 91.4837C106.575 90.1784 107.293 89.2217 107.916 89.3469C108.539 89.4721 107.427 90.3553 107.165 91.6606Z" fill="#FF6972"/>
<path d="M113.33 99.279C113.33 99.279 113.144 100.125 113.593 100.854C114.115 101.701 114.632 102.036 115.224 102.836C115.723 103.51 115.818 104.644 115.818 104.644" stroke="#FE7D85" stroke-width="0.5"/>
<path d="M112.821 99.5393C112.923 99.2041 113.35 99.1056 113.589 99.362L114.001 99.8035C114.057 99.8637 114.027 99.9621 113.946 99.9805V99.9805C113.937 99.9827 113.928 99.9836 113.918 99.9832L113.606 99.9709C113.423 99.9636 113.242 100.02 113.096 100.132L112.904 100.277C112.872 100.301 112.832 100.313 112.792 100.31V100.31C112.688 100.301 112.619 100.199 112.649 100.099L112.821 99.5393Z" fill="#FF6972"/>
<path d="M122.898 87.7547C123.198 91.09 119.808 97.3302 117.695 97.5202C115.582 97.7103 111.133 92.1753 110.833 88.8399C110.533 85.5046 112.99 82.5579 116.322 82.2582C119.654 81.9585 122.598 84.4194 122.898 87.7547Z" fill="#FF6972"/>
<path d="M122.898 87.7547C123.198 91.09 119.808 97.3302 117.695 97.5202C115.582 97.7103 111.133 92.1753 110.833 88.8399C110.533 85.5046 112.99 82.5579 116.322 82.2582C119.654 81.9585 122.598 84.4194 122.898 87.7547Z" fill="#FF6972"/>
<path d="M117.818 97.4594C117.818 97.4594 117.243 98.8071 117.512 99.8611C117.823 101.086 118.998 101.279 119.412 102.473C119.761 103.479 118.8 104.908 118.8 104.908" stroke="#FE7D85" stroke-width="0.5"/>
<path d="M117.156 97.4367C117.407 97.0692 117.962 97.1117 118.155 97.5132L118.486 98.2046C118.532 98.2989 118.458 98.4067 118.354 98.3987V98.3987C118.342 98.3978 118.33 98.3953 118.318 98.3912L117.945 98.258C117.725 98.1795 117.485 98.1799 117.265 98.2592L116.977 98.363C116.929 98.3804 116.877 98.3794 116.829 98.3602V98.3602C116.706 98.3106 116.661 98.1601 116.736 98.0508L117.156 97.4367Z" fill="#FF6972"/>
<path d="M113.229 86.2336C112.416 87.7167 112.781 89.4724 112.073 89.0844C111.365 88.6963 111.45 87.1793 112.263 85.6961C113.076 84.213 114.309 83.3252 115.017 83.7133C115.725 84.1014 114.042 84.7504 113.229 86.2336Z" fill="#FF6972"/>
<path d="M96.6068 119.841C96.6068 119.841 98.0837 120.608 99.5444 121.319C101.049 122.052 102.62 122.69 102.62 122.69L103.381 120.819C103.381 120.819 101.628 119.806 100.339 118.872C98.9978 117.901 97.7713 116.976 97.7713 116.976L96.6068 119.841Z" fill="#FF6972"/>
<path d="M96.6068 119.841C96.6068 119.841 98.0837 120.608 99.5444 121.319C101.049 122.052 102.62 122.69 102.62 122.69L103.381 120.819C103.381 120.819 101.628 119.806 100.339 118.872C98.9978 117.901 97.7713 116.976 97.7713 116.976L96.6068 119.841Z" fill="url(#paint1_linear)"/>
<defs>
<filter id="filter0_f" x="117.523" y="129.41" width="9.11143" height="7.42713" filterUnits="userSpaceOnUse" color-interpolation-filters="sRGB">
<feFlood flood-opacity="0" result="BackgroundImageFix"/>
<feBlend mode="normal" in="SourceGraphic" in2="BackgroundImageFix" result="shape"/>
<feGaussianBlur stdDeviation="0.25" result="effect1_foregroundBlur"/>
</filter>
<linearGradient id="paint0_linear" x1="131.01" y1="131.364" x2="118.93" y2="137.063" gradientUnits="userSpaceOnUse">
<stop stop-color="white"/>
<stop offset="1" stop-color="white" stop-opacity="0"/>
</linearGradient>
<linearGradient id="paint1_linear" x1="91.6753" y1="116.33" x2="104.393" y2="120.147" gradientUnits="userSpaceOnUse">
<stop stop-color="white"/>
<stop offset="1" stop-color="white" stop-opacity="0"/>
</linearGradient>
</defs>
</svg>
