<svg width="234" height="234" viewBox="0 0 234 234" fill="none" xmlns="http://www.w3.org/2000/svg">
<path d="M141.215 87.0004C140.589 86.9913 139.971 87.1457 139.345 87.679C138.448 88.4843 137.804 88.618 138.254 89.9612C138.663 90.8569 138.44 91.6081 140.113 91.4938C140.306 93.6267 140.023 95.212 139.16 96.3161C137.843 96.6541 136.773 96.0051 135.637 95.6221C134.951 95.0112 133.872 94.7928 132.809 94.5578C131.05 94.3907 130.07 95.0006 129.271 95.7917L128.576 94.7275L126.629 93.324L126.984 91.0259L128.576 89.098V88.0337C125.044 87.975 121.16 87.8779 117.976 87.8641L117.621 88.9129C119.025 89.3476 120.329 89.412 121.854 90.3318C122.313 91.2196 123.041 92.8939 122.04 94.3882C120.943 94.709 120.186 94.5069 118.332 95.9614C118.13 96.6293 118.346 97.3622 117.266 97.9047C115.621 98.4164 113.663 98.7292 111.61 98.9689C109.428 99.1045 107.46 99.3121 104.905 99.3237C101.589 99.1939 99.9235 98.7676 97.1328 97.3803C95.6494 96.6282 94.0568 95.6938 91.4931 93.324L87.5994 90.6866C84.6629 89.6624 83.5123 90.352 83.7212 91.9204L86.3634 98.0898C86.3634 98.0898 85.8388 97.8284 84.7719 97.3803C83.705 96.9322 82.6307 96.1111 81.7744 95.9614C80.918 95.8116 79.7304 95.4172 78.5915 96.5012C77.4525 97.5852 77.3538 98.3348 77.5408 99.663C77.7278 100.991 77.687 101.383 78.5915 102.485C79.4959 103.587 80.7083 104.034 81.9443 103.55C83.1804 103.065 83.5137 101.417 83.5358 100.558C83.5579 99.6983 82.037 100.11 82.0371 100.11C82.1955 100.867 82.2946 101.149 82.0371 101.437C81.7795 101.724 81.3865 101.8 81.0636 101.514C80.7408 101.227 80.4327 100.813 80.5383 100.203C80.6439 99.5926 80.8032 98.8346 81.7744 98.6142C82.7456 98.3939 83.1804 98.7949 84.4165 99.3237C85.6526 99.8525 86.7187 100.727 86.7187 100.727C86.7187 100.727 87.7827 102.27 88.6656 104.429C89.5485 106.588 90.257 109.364 90.257 109.364L90.9523 112.711L91.1056 116.106C90.5585 114.768 90.0114 114.499 89.4643 114.09C88.7637 114.618 87.93 115.014 87.9708 116.283L88.1248 119.76C88.3424 120.81 88.9179 121.264 89.7162 121.348C90.2467 121.453 90.7772 120.597 91.3077 119.76V122.767V125.235L92.8992 125.929L93.7026 126.993L93.8571 133.81L91.3231 133.857C90.4604 133.886 90.3171 133.408 89.8244 133.163L89.33 134.304C89.7013 134.458 89.9276 135.088 91.1686 135.06L94.1043 135.013L94.3223 139.281L94.3533 135.013L96.8392 134.983L96.8083 133.795L94.676 133.733L94.5215 126.731L95.3713 122.058L95.5413 116.598L96.9628 114.3C99.6734 112.851 102.284 112.653 105.971 112.356C108.89 112.507 111.014 112.78 113.743 113.066C116.089 113.452 118.043 114.028 119.568 114.824C120.582 114.746 122.452 117.415 122.395 118.526C122.319 120.039 122.812 124.479 122.565 124.171C122.599 124.341 121.945 129.915 121.854 130.51C121.577 132.322 120.706 134.495 120.016 135.461C119.584 136.065 117.5 138.263 116.122 138.453C116.122 138.453 109.501 140.021 108.798 140.211C108.146 140.387 101.518 141.636 100.146 141.969C98.1783 142.447 95.0068 143.209 93.7799 143.203C93.7799 143.203 83.1746 144.182 81.249 144.437C77.2885 144.962 77.1248 146.884 77 148C93.4149 144.287 141.197 143.435 154.178 147.614C157.769 148.77 155.245 145.752 153.467 145.147C151.602 144.512 150.478 144.233 147.457 142.849C144.435 141.464 142.722 139.898 141.276 138.453C139.831 137.008 139.03 135.658 137.924 133.517C136.817 131.377 136.386 130.457 135.807 127.703C135.227 124.949 135.451 119.235 135.451 119.235C135.488 117.269 135.919 115.796 136.332 114.3C136.446 113.846 136.571 113.383 136.688 112.927L136.811 112.434C137.065 111.466 137.353 110.478 137.754 109.364L138.804 107.776C139.891 108.806 140.589 110.234 140.581 112.356C139.501 113.255 138.14 112.775 136.811 112.434L136.688 112.927C137.052 113.997 137.643 114.774 138.634 115.009C139.289 115.758 140.259 115.879 141.462 115.534C142.424 115.319 142.992 114.705 143.409 113.945C144.347 113.409 144.364 111.044 144.815 109.534C145.348 103.61 145.09 97.2988 143.934 90.8562C143.609 89.0106 142.922 88.2408 142.343 87.1546C141.967 87.07 141.59 87.0058 141.215 87.0004ZM90.7494 94.2123C94.0464 96.9628 98.0292 99.1047 102.568 100.265C103.169 100.516 103.571 101.188 102.363 100.932C97.8578 99.889 93.2182 97.3903 90.2612 94.8022C89.9627 94.4552 90.2406 94.1168 90.7494 94.2123ZM129.718 96.9132C130.976 95.5725 132.365 95.2989 134.441 95.9338C135.704 96.3201 136.384 97.3989 135.876 97.2759C135.369 97.1529 135.081 96.7882 134.078 96.4416C131.967 95.7125 130.53 96.9973 130.226 97.2033C129.627 97.6101 129.676 96.8843 129.718 96.9132ZM133.85 120.853C133.75 119.563 133.875 116.315 135.157 112.731C135.898 110.661 136.93 110.047 136.52 110.835C136.11 111.622 135.921 111.671 135.409 113.338C134.159 117.412 134.326 119.908 134.311 120.86C134.295 121.812 133.949 122.143 133.85 120.853ZM143.063 95.7501C144.089 100.618 143.862 103.626 143.121 108.039C143.093 108.688 142.481 109.23 142.303 108.01C142.848 103.48 142.946 100.158 142.449 95.7326C142.672 95.3328 142.976 95.2406 143.063 95.7501Z" fill="#61E0E8"/>
</svg>
