<svg width="214" height="211" viewBox="0 0 214 211" fill="none" xmlns="http://www.w3.org/2000/svg">
<path d="M142.374 30H187.137L119.992 181.021H75.229L142.374 30Z" fill="#C4C4C4" fill-opacity="0.04"/>
<path d="M76.8474 41.9514H110.746L59.8983 158.205H26L76.8474 41.9514Z" fill="#C4C4C4" fill-opacity="0.04"/>
<path d="M21 7C21 7 16.1421 7.35786 12 11.5C7.85786 15.6421 8 21 8 21" stroke="#282828" stroke-width="8"/>
<path d="M192.5 7C192.5 7 197.358 7.35786 201.5 11.5C205.642 15.6421 205.5 21 205.5 21" stroke="#282828" stroke-width="8"/>
<path d="M21 204C21 204 16.1421 203.642 12 199.5C7.85786 195.358 8 190 8 190" stroke="#282828" stroke-width="8"/>
<path d="M192.5 204C192.5 204 197.358 203.642 201.5 199.5C205.642 195.358 205.5 190 205.5 190" stroke="#282828" stroke-width="8"/>
</svg>
