<svg width="128" height="64" viewBox="0 0 128 64" fill="none" xmlns="http://www.w3.org/2000/svg">
<rect width="64" height="64" fill="#1C1C1C"/>
<rect x="64" width="64" height="64" fill="#1C1C1C"/>
<path d="M110 30.7873C110 38.0182 103.508 40.5746 95.5 40.5746C94.3952 40.5746 92.8161 40.5874 91.7821 40.5C91.7821 40.5 90.6795 42.3359 88.8733 43.6422C86.8271 45.1221 84.9528 45.0519 84.4774 44.957C84.4774 44.957 85.253 44.1731 86.1177 42.5466C86.9778 40.9289 87.0752 39.4184 86.6426 39.2465C83.2104 37.8828 81 35.3049 81 30.7873C81 23.0451 87.4919 21 95.5 21C103.508 21 110 23.5564 110 30.7873Z" fill="#EEEEEE"/>
<path d="M87.3586 30.5391C87.3456 30.4023 87.3553 30.2884 87.3879 30.1973C87.4204 30.0996 87.4921 30.0247 87.6027 29.9727C87.7134 29.9206 87.8762 29.8848 88.091 29.8652C88.3059 29.8392 88.5891 29.8262 88.9406 29.8262C89.2922 29.8262 89.5721 29.8392 89.7805 29.8652C89.9953 29.8848 90.1581 29.9206 90.2688 29.9727C90.3859 30.0247 90.4576 30.0996 90.4836 30.1973C90.5161 30.2884 90.5292 30.4023 90.5227 30.5391L90.4152 32.4434C90.4087 32.5671 90.3859 32.6647 90.3469 32.7363C90.3143 32.8079 90.246 32.8633 90.1418 32.9023C90.0376 32.9414 89.8911 32.9674 89.7023 32.9805C89.5135 32.9935 89.2596 33 88.9406 33C88.6216 33 88.3677 32.9935 88.1789 32.9805C87.9901 32.9674 87.8436 32.9414 87.7395 32.9023C87.6418 32.8633 87.5734 32.8079 87.5344 32.7363C87.5018 32.6647 87.4823 32.5671 87.4758 32.4434L87.3586 30.5391ZM94.418 30.5391C94.4049 30.4023 94.4147 30.2884 94.4473 30.1973C94.4798 30.0996 94.5514 30.0247 94.6621 29.9727C94.7728 29.9206 94.9355 29.8848 95.1504 29.8652C95.3652 29.8392 95.6484 29.8262 96 29.8262C96.3516 29.8262 96.6315 29.8392 96.8398 29.8652C97.0547 29.8848 97.2174 29.9206 97.3281 29.9727C97.4453 30.0247 97.5169 30.0996 97.543 30.1973C97.5755 30.2884 97.5885 30.4023 97.582 30.5391L97.4746 32.4434C97.4681 32.5671 97.4453 32.6647 97.4062 32.7363C97.3737 32.8079 97.3053 32.8633 97.2012 32.9023C97.097 32.9414 96.9505 32.9674 96.7617 32.9805C96.5729 32.9935 96.319 33 96 33C95.681 33 95.4271 32.9935 95.2383 32.9805C95.0495 32.9674 94.903 32.9414 94.7988 32.9023C94.7012 32.8633 94.6328 32.8079 94.5938 32.7363C94.5612 32.6647 94.5417 32.5671 94.5352 32.4434L94.418 30.5391ZM101.477 30.5391C101.464 30.4023 101.474 30.2884 101.507 30.1973C101.539 30.0996 101.611 30.0247 101.721 29.9727C101.832 29.9206 101.995 29.8848 102.21 29.8652C102.425 29.8392 102.708 29.8262 103.059 29.8262C103.411 29.8262 103.691 29.8392 103.899 29.8652C104.114 29.8848 104.277 29.9206 104.388 29.9727C104.505 30.0247 104.576 30.0996 104.602 30.1973C104.635 30.2884 104.648 30.4023 104.641 30.5391L104.534 32.4434C104.527 32.5671 104.505 32.6647 104.466 32.7363C104.433 32.8079 104.365 32.8633 104.261 32.9023C104.156 32.9414 104.01 32.9674 103.821 32.9805C103.632 32.9935 103.378 33 103.059 33C102.74 33 102.486 32.9935 102.298 32.9805C102.109 32.9674 101.962 32.9414 101.858 32.9023C101.761 32.8633 101.692 32.8079 101.653 32.7363C101.621 32.6647 101.601 32.5671 101.595 32.4434L101.477 30.5391Z" fill="black"/>
<path d="M43 22.2308H21V35.7692H43V22.2308Z" fill="#EEEEEE" stroke="#EEEEEE" stroke-width="2" stroke-linejoin="round"/>
<path d="M38.608 45.7048L33.6324 40.8429C33.4807 40.6948 33.2552 40.6519 33.0603 40.7341C32.8643 40.8164 32.7378 41.0077 32.7378 41.2197V45.923H30.8717V41.2197C30.8717 41.0055 30.7422 40.8126 30.5441 40.7318C30.346 40.6509 30.1184 40.6984 29.9687 40.8516L25.2365 45.6959L24.52 44.9626L30.5609 39.007H33.0539L39.3256 44.9694L38.608 45.7048Z" fill="#EEEEEE" stroke="#EEEEEE" stroke-linejoin="round"/>
<path d="M33.6922 18H30.3076V19.6923H33.6922V18Z" fill="#EEEEEE" stroke="#EEEEEE" stroke-linejoin="round"/>
<path d="M29 25L36 29L29 33V25Z" fill="#1C1C1C" stroke="#1C1C1C" stroke-width="0.25" stroke-linejoin="round"/>
</svg>
