<svg width="48" height="48" viewBox="0 0 48 48" fill="none" xmlns="http://www.w3.org/2000/svg">
<path fill-rule="evenodd" clip-rule="evenodd" d="M25.4473 22.6162V22.5717L25.4186 22.6162H25.4473Z" fill="#04C4FF"/>
<path fill-rule="evenodd" clip-rule="evenodd" d="M10 12.063C10 10.9243 10.9533 10 12.1285 10H36.6715C37.8471 10 38.8 10.9243 38.8 12.063V36.7373C38.8 37.8764 37.8471 38.8 36.6715 38.8H12.1285C10.9534 38.8 10 37.8765 10 36.7377V12.063ZM18.7522 20.736V33.7018H14.4425V20.736H18.7522ZM19.0362 16.7261C19.0362 17.9704 18.1008 18.966 16.5982 18.966L16.57 18.9659C15.1236 18.9659 14.1885 17.9703 14.1885 16.726C14.1885 15.4535 15.1518 14.4857 16.6268 14.4857C18.1008 14.4857 19.0081 15.4535 19.0362 16.7261ZM25.4469 33.7018H21.1376C21.1376 33.7018 21.1941 21.9528 21.1378 20.7364H25.4473V22.5717C26.0201 21.6884 27.0454 20.432 29.3313 20.432C32.1667 20.432 34.2925 22.2852 34.2925 26.2676V33.7018H29.9833V26.7662C29.9833 25.023 29.3592 23.8341 27.8002 23.8341C26.6094 23.8341 25.9003 24.6359 25.5889 25.4104C25.475 25.6869 25.4469 26.0749 25.4469 26.4619V33.7018Z" fill="#04C4FF"/>
</svg>
