<svg width="48" height="48" viewBox="0 0 48 48" fill="none" xmlns="http://www.w3.org/2000/svg">
<path d="M9.59985 11.6634C9.59985 10.5246 10.5532 9.60034 11.7284 9.60034H36.2714C37.447 9.60034 38.3999 10.5246 38.3999 11.6634V36.3377C38.3999 37.4767 37.447 38.4003 36.2714 38.4003H11.7284C10.5533 38.4003 9.59985 37.4768 9.59985 36.338V11.663V11.6634Z" fill="#3CE000"/>
<path d="M18.352 33.7017V20.7359H14.0424V33.7017H18.3525H18.352ZM16.1981 18.9659C17.7006 18.9659 18.6361 17.9703 18.6361 16.726C18.6079 15.4534 17.7006 14.4856 16.2267 14.4856C14.7517 14.4856 13.7883 15.4534 13.7883 16.7259C13.7883 17.9702 14.7234 18.9658 16.1698 18.9658H16.1977L16.1981 18.9659ZM20.7375 33.7017H25.0468V26.4618C25.0468 26.0748 25.0749 25.6868 25.1887 25.4104C25.5001 24.6358 26.2092 23.834 27.4 23.834C28.9591 23.834 29.5831 25.0229 29.5831 26.7661V33.7017H33.8923V26.2675C33.8923 22.2851 31.7665 20.4319 28.9312 20.4319C26.6066 20.4319 25.5856 21.7312 25.0184 22.6161H25.0471V20.7363H20.7377C20.7939 21.9527 20.7373 33.7022 20.7373 33.7022L20.7375 33.7017Z" fill="white"/>
</svg>
