<svg width="48" height="48" viewBox="0 0 48 48" fill="none" xmlns="http://www.w3.org/2000/svg">
<path d="M23.0045 16.5501C23.2029 16.6275 23.3701 16.6936 23.5 16.7453V36.1437C23.4946 36.1407 23.4892 36.1377 23.4837 36.1347C23.0025 35.8701 22.3241 35.5078 21.5343 35.1166C19.9618 34.3378 17.9196 33.4302 16.1051 32.9604C14.5485 32.5573 12.5167 32.3327 10.8946 32.2079C10.0793 32.1452 9.35949 32.1072 8.84337 32.0848C8.71603 32.0793 8.60104 32.0748 8.5 32.071V13.5125C8.58709 13.5151 8.68414 13.5182 8.79018 13.5219C9.29055 13.5392 9.99019 13.5692 10.7866 13.6199C12.3858 13.7216 14.3508 13.905 15.8756 14.2298C17.402 14.5548 19.3798 15.2113 20.9915 15.7938C21.794 16.0838 22.4996 16.3533 23.0045 16.5501ZM24.5138 36.1353C24.5092 36.1378 24.5046 36.1404 24.5 36.1429V16.7448C24.6293 16.6931 24.7956 16.6271 24.9929 16.5499C25.4959 16.353 26.1989 16.0836 26.9988 15.7936C28.6054 15.2112 30.578 14.5548 32.1041 14.2298C33.6289 13.9051 35.5988 13.7216 37.2032 13.6199C38.0021 13.5692 38.7043 13.5392 39.2066 13.5219C39.3139 13.5182 39.412 13.5151 39.5 13.5124V31.6656C39.3893 31.6788 39.2601 31.6944 39.1148 31.7124C38.5989 31.7761 37.8794 31.8693 37.0645 31.9874C35.4402 32.2226 33.4173 32.5591 31.8741 32.9606C30.0635 33.4316 28.0264 34.3391 26.458 35.1177C25.6702 35.5087 24.9937 35.8708 24.5138 36.1353Z" fill="white" stroke="#C4FF00"/>
<path d="M23.0045 15.5502C23.2029 15.6275 23.3701 15.6936 23.5 15.7453V35.1438C23.4946 35.1408 23.4892 35.1378 23.4837 35.1348C23.0025 34.8702 22.3241 34.5079 21.5343 34.1167C19.9618 33.3378 17.9196 32.4303 16.1051 31.9605C14.5485 31.5574 12.5167 31.3327 10.8946 31.208C10.0793 31.1453 9.35949 31.1072 8.84337 31.0849C8.71603 31.0794 8.60104 31.0748 8.5 31.0711V12.5125C8.58709 12.5151 8.68414 12.5183 8.79018 12.5219C9.29055 12.5393 9.99019 12.5693 10.7866 12.6199C12.3858 12.7216 14.3508 12.9051 15.8756 13.2298C17.402 13.5549 19.3798 14.2114 20.9915 14.7939C21.794 15.0839 22.4996 15.3533 23.0045 15.5502ZM24.5138 35.1353C24.5092 35.1379 24.5046 35.1404 24.5 35.1429V15.7448C24.6293 15.6932 24.7956 15.6272 24.9929 15.55C25.4959 15.3531 26.1989 15.0837 26.9988 14.7937C28.6054 14.2113 30.578 13.5548 32.1041 13.2298C33.6289 12.9051 35.5988 12.7216 37.2032 12.6199C38.0021 12.5693 38.7043 12.5393 39.2066 12.5219C39.3139 12.5182 39.412 12.5151 39.5 12.5125V30.6657C39.3893 30.6788 39.2601 30.6945 39.1148 30.7124C38.5989 30.7762 37.8794 30.8694 37.0645 30.9874C35.4402 31.2226 33.4173 31.5591 31.8741 31.9606C30.0635 32.4316 28.0264 33.3392 26.458 34.1177C25.6702 34.5088 24.9937 34.8709 24.5138 35.1353Z" fill="#EEEEEE" stroke="#EEEEEE"/>
</svg>
