<svg width="48" height="48" viewBox="0 0 48 48" fill="none" xmlns="http://www.w3.org/2000/svg">
<path d="M37 13H11V29H37V13Z" fill="#EEEEEE" stroke="#EEEEEE" stroke-width="2" stroke-linejoin="round"/>
<path d="M31.8097 40.7421L25.9295 34.9962C25.7502 34.8211 25.4837 34.7704 25.2533 34.8676C25.0217 34.9648 24.8723 35.191 24.8723 35.4415V41H22.6669V35.4415C22.6669 35.1883 22.5137 34.9603 22.2796 34.8648C22.0455 34.7693 21.7765 34.8253 21.5997 35.0064L16.0071 40.7315L15.1603 39.8649L22.2995 32.8264H25.2458L32.6578 39.873L31.8097 40.7421Z" fill="#EEEEEE" stroke="#EEEEEE" stroke-linejoin="round"/>
<path d="M26 8H22V10H26V8Z" fill="#EEEEEE" stroke="#EEEEEE" stroke-linejoin="round"/>
<path d="M20 16L29 21L20 26V16Z" fill="#C4FF00" stroke="#C4FF00" stroke-width="1.2" stroke-linejoin="round"/>
</svg>
