<svg width="27" height="24" viewBox="0 0 27 24" fill="none" xmlns="http://www.w3.org/2000/svg">
<path d="M27 9.78729C27 17.0182 20.9558 19.5746 13.5 19.5746C12.4713 19.5746 11.0012 19.5874 10.0385 19.5C10.0385 19.5 9.01197 21.3359 7.33035 22.6422C5.42526 24.1221 3.68023 24.0519 3.23756 23.957C3.23756 23.957 3.95967 23.1731 4.76474 21.5466C5.56551 19.9289 5.65625 18.4184 5.25342 18.2465C2.05791 16.8828 -1.7082e-05 14.3049 1.06343e-10 9.78729C2.92748e-05 2.04511 6.04416 0 13.5 0C20.9558 0 27 2.55638 27 9.78729Z" fill="#EEEEEE"/>
<path d="M5.35871 9.53906C5.34569 9.40234 5.35546 9.28841 5.38801 9.19727C5.42056 9.09961 5.49218 9.02474 5.60285 8.97266C5.71353 8.92057 5.87629 8.88477 6.09113 8.86523C6.30598 8.83919 6.58918 8.82617 6.94074 8.82617C7.29231 8.82617 7.57225 8.83919 7.78059 8.86523C7.99543 8.88477 8.15819 8.92057 8.26887 8.97266C8.38606 9.02474 8.45767 9.09961 8.48371 9.19727C8.51626 9.28841 8.52929 9.40234 8.52277 9.53906L8.41535 11.4434C8.40884 11.5671 8.38606 11.6647 8.34699 11.7363C8.31444 11.8079 8.24608 11.8633 8.14192 11.9023C8.03775 11.9414 7.89126 11.9674 7.70246 11.9805C7.51366 11.9935 7.25975 12 6.94074 12C6.62173 12 6.36783 11.9935 6.17902 11.9805C5.99022 11.9674 5.84374 11.9414 5.73957 11.9023C5.64192 11.8633 5.57356 11.8079 5.53449 11.7363C5.50194 11.6647 5.48241 11.5671 5.4759 11.4434L5.35871 9.53906ZM12.4181 9.53906C12.4051 9.40234 12.4148 9.28841 12.4474 9.19727C12.4799 9.09961 12.5516 9.02474 12.6622 8.97266C12.7729 8.92057 12.9357 8.88477 13.1505 8.86523C13.3654 8.83919 13.6486 8.82617 14.0001 8.82617C14.3517 8.82617 14.6316 8.83919 14.84 8.86523C15.0548 8.88477 15.2176 8.92057 15.3282 8.97266C15.4454 9.02474 15.517 9.09961 15.5431 9.19727C15.5756 9.28841 15.5887 9.40234 15.5821 9.53906L15.4747 11.4434C15.4682 11.5671 15.4454 11.6647 15.4064 11.7363C15.3738 11.8079 15.3055 11.8633 15.2013 11.9023C15.0971 11.9414 14.9506 11.9674 14.7618 11.9805C14.573 11.9935 14.3191 12 14.0001 12C13.6811 12 13.4272 11.9935 13.2384 11.9805C13.0496 11.9674 12.9031 11.9414 12.7989 11.9023C12.7013 11.8633 12.6329 11.8079 12.5939 11.7363C12.5613 11.6647 12.5418 11.5671 12.5353 11.4434L12.4181 9.53906ZM19.4775 9.53906C19.4644 9.40234 19.4742 9.28841 19.5068 9.19727C19.5393 9.09961 19.6109 9.02474 19.7216 8.97266C19.8323 8.92057 19.995 8.88477 20.2099 8.86523C20.4247 8.83919 20.7079 8.82617 21.0595 8.82617C21.4111 8.82617 21.691 8.83919 21.8993 8.86523C22.1142 8.88477 22.2769 8.92057 22.3876 8.97266C22.5048 9.02474 22.5764 9.09961 22.6025 9.19727C22.635 9.28841 22.648 9.40234 22.6415 9.53906L22.5341 11.4434C22.5276 11.5671 22.5048 11.6647 22.4657 11.7363C22.4332 11.8079 22.3648 11.8633 22.2607 11.9023C22.1565 11.9414 22.01 11.9674 21.8212 11.9805C21.6324 11.9935 21.3785 12 21.0595 12C20.7405 12 20.4866 11.9935 20.2978 11.9805C20.109 11.9674 19.9625 11.9414 19.8583 11.9023C19.7607 11.8633 19.6923 11.8079 19.6532 11.7363C19.6207 11.6647 19.6012 11.5671 19.5947 11.4434L19.4775 9.53906Z" fill="black"/>
</svg>
