<svg width="48" height="48" viewBox="0 0 48 48" fill="none" xmlns="http://www.w3.org/2000/svg">
<rect x="5" y="32.282" width="16.5641" height="10" transform="rotate(-90 5 32.282)" fill="#EEEEEE"/>
<path d="M17.4482 32.1429L17.4482 15.8571L26.862 15.8571L26.862 5L36.2758 15.8571L43 24L36.2758 32.1429L26.862 43L26.862 32.1429L17.4482 32.1429Z" fill="#EEEEEE"/>
<rect x="26.1382" y="21.2859" width="5.42857" height="0.62069" transform="rotate(90 26.1382 21.2859)" fill="#1C1C1C"/>
<rect x="24.5176" y="21.2859" width="5.42857" height="1.24138" transform="rotate(90 24.5176 21.2859)" fill="#1C1C1C"/>
<rect x="22.2764" y="21.2859" width="5.42857" height="2.48276" transform="rotate(90 22.2764 21.2859)" fill="#1C1C1C"/>
<path d="M19 21.2858L19 26.7144L13.8421 26.7144L13.8421 30.3334L8.68421 26.7144L5 24.0001L8.68421 21.2858L13.8421 17.6667L13.8421 21.2858L19 21.2858Z" fill="#1C1C1C"/>
</svg>
