<svg width="24" height="24" viewBox="0 0 24 24" fill="none" xmlns="http://www.w3.org/2000/svg">
<path fill-rule="evenodd" clip-rule="evenodd" d="M13.7654 23L13.4938 6.90873H1V19.8005L13.7654 23ZM3.53814 18.0079V14.581V11.1541H6.92276H10.3074V14.9617V18.7694L6.92276 18.3887L3.53814 18.0079Z" fill="#8C8C8C"/>
<path fill-rule="evenodd" clip-rule="evenodd" d="M13.4938 6.90873L13.7654 23L23 19.8005V6.90873L18.3827 1L13.4938 6.90873ZM17.0769 21.7627V12H20.0384V20.7212L17.0769 21.7627Z" fill="#8C8C8C"/>
<path d="M13.4938 6.90873L18.3827 1L6.16049 1.80574L1 6.90873H13.4938Z" fill="#8C8C8C"/>
<path d="M13.4938 6.90873L13.7654 23M13.4938 6.90873L18.3827 1M13.4938 6.90873H1M13.7654 23L1 19.8005V6.90873M13.7654 23L23 19.8005V6.90873L18.3827 1M18.3827 1L6.16049 1.80574L1 6.90873M3.53814 14.581V18.0079L6.92276 18.3887M3.53814 14.581V11.1541H6.92276M3.53814 14.581L6.92276 14.7714M10.3074 14.9617V18.7694L6.92276 18.3887M10.3074 14.9617V11.1541H6.92276M10.3074 14.9617L6.92276 14.7714M6.92276 14.7714V11.1541M6.92276 14.7714V18.3887M17.0769 12V21.7627L20.0384 20.7212V12H17.0769Z" stroke="#8C8C8C"/>
</svg>
