<svg width="48" height="48" viewBox="0 0 48 48" fill="none" xmlns="http://www.w3.org/2000/svg">
<path d="M35.6517 45C38.293 45 40.4343 42.7614 40.4343 40C40.4343 37.2386 38.293 35 35.6517 35C33.0104 35 30.8691 37.2386 30.8691 40C30.8691 42.7614 33.0104 45 35.6517 45Z" fill="#EEEEEE"/>
<path d="M15.5651 35C20.8478 35 25.1302 30.7467 25.1302 25.5C25.1302 20.2533 20.8478 16 15.5651 16C10.2825 16 6 20.2533 6 25.5C6 30.7467 10.2825 35 15.5651 35Z" fill="#EEEEEE"/>
<path d="M35.6516 17C39.3495 17 42.3472 14.0899 42.3472 10.5C42.3472 6.91015 39.3495 4 35.6516 4C31.9538 4 28.9561 6.91015 28.9561 10.5C28.9561 14.0899 31.9538 17 35.6516 17Z" fill="#EEEEEE"/>
<path d="M35.7938 9.8595L14.7203 25.9647L35.7941 39.8769" stroke="#EEEEEE" stroke-width="2"/>
</svg>
