<svg width="56" height="56" viewBox="0 0 56 56" fill="none" xmlns="http://www.w3.org/2000/svg">
<mask id="path-1-inside-1" fill="white">
<path d="M28 4.00195C14.7452 4.00195 4 14.7471 4 28.002C4 41.2568 14.7452 52.002 28 52.002C41.2548 52.002 52 41.2568 52 28.002C52 14.7471 41.2548 4.00195 28 4.00195ZM28 49.602C16.0707 49.602 6.4 39.9313 6.4 28.002C6.4 16.0726 16.0707 6.40195 28 6.40195C39.9294 6.40195 49.6 16.0726 49.6 28.002C49.6 39.9313 39.9293 49.602 28 49.602Z"/>
</mask>
<path d="M28 4.00195C14.7452 4.00195 4 14.7471 4 28.002C4 41.2568 14.7452 52.002 28 52.002C41.2548 52.002 52 41.2568 52 28.002C52 14.7471 41.2548 4.00195 28 4.00195ZM28 49.602C16.0707 49.602 6.4 39.9313 6.4 28.002C6.4 16.0726 16.0707 6.40195 28 6.40195C39.9294 6.40195 49.6 16.0726 49.6 28.002C49.6 39.9313 39.9293 49.602 28 49.602Z" stroke="white" stroke-width="6" mask="url(#path-1-inside-1)"/>
<mask id="path-2-inside-2" fill="white">
<path d="M28 52C41.2548 52 52 41.2548 52 28C52 14.7452 41.2548 4 28 4C14.7452 4 4 14.7452 4 28C4 41.2548 14.7452 52 28 52ZM28 6.4C39.9293 6.4 49.6 16.0707 49.6 28C49.6 39.9294 39.9293 49.6 28 49.6C16.0706 49.6 6.4 39.9293 6.4 28C6.4 16.0707 16.0707 6.4 28 6.4Z"/>
</mask>
<path d="M28 52C41.2548 52 52 41.2548 52 28C52 14.7452 41.2548 4 28 4C14.7452 4 4 14.7452 4 28C4 41.2548 14.7452 52 28 52ZM28 6.4C39.9293 6.4 49.6 16.0707 49.6 28C49.6 39.9294 39.9293 49.6 28 49.6C16.0706 49.6 6.4 39.9293 6.4 28C6.4 16.0707 16.0707 6.4 28 6.4Z" stroke="white" stroke-width="6" mask="url(#path-2-inside-2)"/>
<path d="M39.8485 28.8505C40.3172 28.3819 40.3172 27.6221 39.8485 27.1534L32.2118 19.5167C31.7431 19.048 30.9833 19.048 30.5147 19.5167C30.0461 19.9853 30.0461 20.7451 30.5147 21.2137L37.3029 28.002L30.5147 34.7902C30.0461 35.2588 30.0461 36.0186 30.5147 36.4872C30.9833 36.9559 31.7431 36.9559 32.2118 36.4872L39.8485 28.8505ZM16 29.202L39 29.202L39 26.802L16 26.802L16 29.202Z" fill="white"/>
</svg>
