<svg width="48" height="48" viewBox="0 0 48 48" fill="none" xmlns="http://www.w3.org/2000/svg">
<path d="M18.4244 18.4787C18.2169 17.9399 17.8658 17.578 17.0302 17.578H11.8404C11.1253 17.578 10.7743 17.9483 10.5663 18.4612L8.00023 24.785C7.91006 25.0073 7.87928 25.2433 7.90646 25.4752C7.31751 25.8139 6.92075 26.4268 6.91616 27.125C6.91581 27.1741 6.918 27.2229 6.92146 27.2714L5.82495 27.2639C5.38724 27.2639 5.02869 27.6201 5.02565 28.0579L5.00002 31.7879C4.99854 32.0008 5.08059 32.2019 5.23084 32.3542C5.38117 32.5066 5.58114 32.5913 5.79403 32.5927L11.1243 32.6293V36.6384C11.1243 37.4917 11.8186 38.1859 12.672 38.1859C13.5253 38.1859 14.2196 37.4917 14.2196 36.6384V28.9439H14.9004V36.6384C14.9004 37.4917 15.5947 38.1859 16.4481 38.1859C17.3015 38.1859 17.9958 37.4917 17.9958 36.6384V25.1871L18.2539 25.8574C18.4556 26.3811 18.9482 26.7342 19.5088 26.7568C19.5276 26.7576 19.5464 26.758 19.5652 26.758C19.7378 26.758 19.9077 26.7264 20.0703 26.6639C20.7934 26.3855 21.1551 25.5705 20.8767 24.8474L18.4244 18.4787ZM10.0457 27.2927L7.87801 27.2779C7.87045 27.2296 7.86551 27.1809 7.86586 27.1314C7.86805 26.8002 8.05185 26.5072 8.33041 26.3283C8.45715 26.4496 8.60649 26.5476 8.77398 26.6156C8.94309 26.6842 9.12067 26.719 9.30186 26.719C9.31245 26.719 9.32311 26.7189 9.3337 26.7186C9.52597 26.7143 9.71048 26.6702 9.87909 26.5943C9.99461 26.7528 10.0615 26.9427 10.0601 27.1463C10.0598 27.1962 10.054 27.2448 10.0457 27.2927ZM11.0607 27.2997L11.0025 27.2993C11.0067 27.2509 11.0096 27.2022 11.01 27.153C11.0132 26.692 10.8457 26.2669 10.5643 25.9314C10.5786 25.9021 10.5921 25.8723 10.6045 25.8418L11.0607 24.7174V27.2997Z" fill="#EEEEEE"/>
<path d="M14.6665 17.084C16.6195 17.084 18.2085 15.4951 18.2085 13.542C18.2085 11.5889 16.6195 10 14.6665 10C12.7139 10 11.1254 11.5889 11.1254 13.542C11.1253 15.4951 12.7138 17.084 14.6665 17.084Z" fill="#EEEEEE"/>
<path d="M42.1713 28.0578C42.1683 27.6201 41.8097 27.2639 41.3664 27.264L40.2755 27.2714C40.279 27.2228 40.2812 27.1742 40.2808 27.125C40.2762 26.4207 39.8723 25.8034 39.2747 25.4666C39.3032 25.2327 39.273 24.9944 39.182 24.7703L36.6159 18.4465C36.4167 17.9553 36.0067 17.5596 35.2844 17.5596H30.1575C29.3695 17.5596 28.9888 17.9087 28.7745 18.4466L26.248 24.7862C25.961 25.5061 26.3133 26.3252 27.0332 26.6122C27.2001 26.6785 27.3752 26.7121 27.5535 26.7121C27.5668 26.7121 27.5801 26.712 27.5934 26.7115C28.1543 26.6954 28.6511 26.348 28.8587 25.8269L29.1994 24.972L29.1834 36.6384C29.1834 37.4917 29.8777 38.1859 30.7311 38.1859C31.5845 38.1859 32.2788 37.4917 32.2788 36.6384V28.6549H32.9774V36.6383C32.9774 37.4916 33.6716 38.1858 34.525 38.1858C35.3784 38.1858 36.0727 37.4916 36.0727 36.6383V32.6292L41.4029 32.5926C41.6158 32.5912 41.8158 32.5065 41.9661 32.3542C42.1164 32.2019 42.1984 32.0007 42.1969 31.7878L42.1713 28.0578ZM36.1943 27.2993L36.1378 27.2997V24.7432L36.5775 25.8271C36.5928 25.8647 36.6099 25.9011 36.6282 25.9369C36.3495 26.2715 36.1837 26.6944 36.1868 27.1532C36.1873 27.2023 36.1902 27.251 36.1943 27.2993ZM39.3188 27.2779L37.1511 27.2928C37.1428 27.2448 37.137 27.1963 37.1367 27.1465C37.1353 26.9402 37.2039 26.7479 37.3221 26.5882C37.4855 26.6589 37.6634 26.6997 37.8484 26.7039C37.859 26.7042 37.8696 26.7043 37.8802 26.7043C38.0613 26.7043 38.239 26.6695 38.4082 26.601C38.5744 26.5335 38.7225 26.4364 38.8486 26.3163C39.1374 26.4941 39.3288 26.7931 39.331 27.1315C39.3313 27.1809 39.3264 27.2297 39.3188 27.2779Z" fill="#EEEEEE"/>
<path d="M32.5305 17.084C34.4831 17.084 36.0716 15.4951 36.0716 13.542C36.0716 11.5889 34.4831 10 32.5305 10C30.5774 10 28.9884 11.5889 28.9884 13.542C28.9884 15.4951 30.5774 17.084 32.5305 17.084Z" fill="#EEEEEE"/>
<path d="M20.7303 18.0694H23.6523L23.6555 18.6583C23.6565 18.8485 23.7637 18.9764 23.9223 18.9764C23.9832 18.9764 24.0469 18.9575 24.1116 18.9202L26.2606 17.6809C26.3758 17.6146 26.439 17.5218 26.4385 17.4197C26.4379 17.3177 26.3738 17.2256 26.2578 17.1604L24.0957 15.9444C23.9571 15.8664 23.8172 15.8747 23.7297 15.9626C23.6721 16.0205 23.6419 16.1065 23.6424 16.2111L23.6456 16.7992H20.7304C20.3796 16.7992 20.0953 17.0834 20.0953 17.4342C20.0952 17.7851 20.3795 18.0694 20.7303 18.0694Z" fill="#EEEEEE"/>
<path d="M26.7024 20.7714C26.7024 20.4206 26.4181 20.1363 26.0673 20.1363H23.1452L23.142 19.5473C23.141 19.3571 23.0338 19.2292 22.8753 19.2292C22.8143 19.2292 22.7506 19.2482 22.6859 19.2855L20.5369 20.5247C20.4217 20.5911 20.3585 20.6839 20.359 20.7859C20.3595 20.8879 20.4237 20.98 20.5397 21.0453L22.7018 22.2613C22.7657 22.2972 22.8287 22.3155 22.8886 22.3155H22.8887C22.9587 22.3155 23.0206 22.2905 23.0677 22.2432C23.1254 22.1852 23.1556 22.0993 23.155 21.9946L23.1518 21.4066H26.0672C26.418 21.4064 26.7024 21.1222 26.7024 20.7714Z" fill="#EEEEEE"/>
</svg>
