<svg width="56" height="56" viewBox="0 0 56 56" fill="none" xmlns="http://www.w3.org/2000/svg">
<mask id="path-1-inside-1" fill="white">
<path d="M28 51.9981C41.2548 51.9981 52 41.2529 52 27.9981C52 14.7432 41.2548 3.99805 28 3.99805C14.7452 3.99805 4 14.7432 4 27.998C4 41.2529 14.7452 51.998 28 51.9981ZM28 6.39805C39.9293 6.39805 49.6 16.0687 49.6 27.9981C49.6 39.9274 39.9293 49.5981 28 49.598C16.0706 49.598 6.4 39.9274 6.4 27.998C6.4 16.0687 16.0706 6.39805 28 6.39805Z"/>
</mask>
<path d="M28 51.9981C41.2548 51.9981 52 41.2529 52 27.9981C52 14.7432 41.2548 3.99805 28 3.99805C14.7452 3.99805 4 14.7432 4 27.998C4 41.2529 14.7452 51.998 28 51.9981ZM28 6.39805C39.9293 6.39805 49.6 16.0687 49.6 27.9981C49.6 39.9274 39.9293 49.5981 28 49.598C16.0706 49.598 6.4 39.9274 6.4 27.998C6.4 16.0687 16.0706 6.39805 28 6.39805Z" stroke="white" stroke-width="6" mask="url(#path-1-inside-1)"/>
<mask id="path-2-inside-2" fill="white">
<path d="M28 4C14.7452 4 4 14.7452 4 28C4 41.2548 14.7452 52 28 52C41.2548 52 52 41.2548 52 28C52 14.7452 41.2548 4 28 4ZM28 49.6C16.0707 49.6 6.4 39.9293 6.4 28C6.40001 16.0706 16.0707 6.4 28 6.4C39.9294 6.4 49.6 16.0706 49.6 28C49.6 39.9293 39.9294 49.6 28 49.6Z"/>
</mask>
<path d="M28 4C14.7452 4 4 14.7452 4 28C4 41.2548 14.7452 52 28 52C41.2548 52 52 41.2548 52 28C52 14.7452 41.2548 4 28 4ZM28 49.6C16.0707 49.6 6.4 39.9293 6.4 28C6.40001 16.0706 16.0707 6.4 28 6.4C39.9294 6.4 49.6 16.0706 49.6 28C49.6 39.9293 39.9294 49.6 28 49.6Z" stroke="white" stroke-width="6" mask="url(#path-2-inside-2)"/>
<path d="M16.1515 27.1495C15.6828 27.6181 15.6828 28.3779 16.1515 28.8466L23.7882 36.4833C24.2569 36.952 25.0167 36.952 25.4853 36.4833C25.9539 36.0147 25.9539 35.2549 25.4853 34.7863L18.6971 27.998L25.4853 21.2098C25.9539 20.7412 25.9539 19.9814 25.4853 19.5128C25.0167 19.0441 24.2569 19.0441 23.7882 19.5128L16.1515 27.1495ZM40 26.798L17 26.798L17 29.198L40 29.198L40 26.798Z" fill="white"/>
</svg>
