<svg width="60" height="60" viewBox="0 0 60 60" fill="none" xmlns="http://www.w3.org/2000/svg">
<path d="M19 14C19 12.3431 20.3431 11 22 11L37.84 11C39.4969 11 40.84 12.3431 40.84 14V47C40.84 48.6568 39.4969 50 37.84 50H22C20.3431 50 19 48.6568 19 47L19 14Z" fill="#1C1C1C" stroke="#44FF00" stroke-width="2" stroke-linecap="round" stroke-linejoin="round"/>
<path d="M21.479 29.8303C21.479 30.3826 21.9267 30.8303 22.479 30.8303H37.8306C38.3829 30.8303 38.8306 30.3826 38.8306 29.8303V16.1313C38.8306 15.579 38.3829 15.1313 37.8306 15.1313H34.4927H32.3237L30.1548 15.1313H27.9858H25.8169H22.479C21.9267 15.1313 21.479 15.579 21.479 16.1313V29.8303Z" fill="#44FF00"/>
<rect x="27.2632" y="12.6526" width="6.61012" height="1.65253" rx="0.826265" fill="#44FF00"/>
<circle cx="30.1543" cy="47.7687" r="0.413132" fill="#44FF00"/>
<rect x="21.479" y="32.4828" width="17.3516" height="13.2202" rx="1" fill="#44FF00"/>
</svg>
