<svg width="60" height="60" viewBox="0 0 60 60" fill="none" xmlns="http://www.w3.org/2000/svg">
<path d="M30 12C20.0595 12 12 20.0595 12 30C12 39.9416 20.0595 48 30 48C39.9405 48 48 39.9416 48 30C47.9999 20.0595 39.9404 12 30 12ZM35.0421 43.7125C34.9386 42.304 34.8228 40.5592 34.816 39.8527C34.771 39.3104 34.7124 37.9312 33.403 37.0504C38.6016 36.615 41.0754 33.7417 41.2533 29.9449C41.4018 27.7827 40.5422 25.8814 39.0157 24.3469C39.0933 22.7056 38.9661 20.7604 38.8605 19.9055C37.6882 19.568 34.9545 21.0114 34.1906 21.629C32.5795 21.0035 28.6365 20.7841 26.2402 21.629C24.5414 20.4343 22.6076 19.6963 21.5535 19.9022C20.5803 22.0588 21.2059 24.0973 21.3959 24.3402C20.1426 25.4855 18.3944 26.8952 18.8692 29.8482C19.6308 34.1783 22.6773 36.5139 27.5822 37.0853C26.5361 37.2991 26.3593 38.0799 26.2716 38.4185C22.9776 39.7774 22.0361 37.5793 21.6197 37.0066C20.2372 35.2955 18.9962 35.7916 18.9197 35.8186C18.8455 35.8455 18.7892 35.9535 18.7971 36.0053C18.8668 36.3743 19.6195 36.7489 19.6566 36.7792C20.677 37.5397 21.055 38.9134 21.2878 39.3049C22.7514 41.7112 26.1535 40.7134 26.1861 40.7336C26.1883 40.944 26.1625 42.7148 26.1422 44.0929C19.9391 42.3986 15.375 36.7398 15.375 30C15.375 21.9225 21.9225 15.3751 29.9999 15.3751C38.0773 15.3751 44.6249 21.9225 44.6249 30C44.6249 36.3033 40.6312 41.6571 35.0421 43.7125Z" fill="#04C4FF"/>
</svg>
