<svg width="64" height="64" viewBox="0 0 64 64" fill="none" xmlns="http://www.w3.org/2000/svg">
<circle cx="32" cy="32" r="32" fill="#444444"/>
<mask id="path-2-inside-1" fill="white">
<path d="M17.4715 18.8331C17.6021 18.837 17.7197 18.9006 17.7783 19.0135C17.7867 19.0298 17.7936 19.0465 17.7991 19.0636C18.1442 19.3827 18.34 19.8607 18.2864 20.3712C18.1972 21.2208 17.451 21.8389 16.6197 21.7516C15.7884 21.6643 15.1869 20.9048 15.2761 20.0551C15.3653 19.2055 16.1115 18.5874 16.9428 18.6747C17.1329 18.6947 17.311 18.7498 17.4715 18.8331Z"/>
<path d="M36.3414 41.1593C40.8925 40.5045 44.0625 36.3642 43.4219 31.9117C42.7813 27.4591 38.5727 24.3804 34.0216 25.0352C29.4706 25.6899 26.3005 29.8302 26.9411 34.2828C27.5817 38.7353 31.7904 41.814 36.3414 41.1593Z"/>
<path d="M21.6512 45.7095C23.3777 44.7469 24.0138 42.5972 23.0721 40.9081C22.1303 39.2189 19.9672 38.63 18.2407 39.5926C16.5142 40.5552 15.878 42.7049 16.8198 44.394C17.7616 46.0832 19.9247 46.6721 21.6512 45.7095Z"/>
<path d="M22.7545 34.4832C23.5481 33.1088 23.1013 31.3651 21.7565 30.5887C20.4118 29.8123 18.6783 30.2972 17.8848 31.6717C17.0912 33.0462 17.538 34.7898 18.8828 35.5662C20.2275 36.3426 21.961 35.8577 22.7545 34.4832Z"/>
<path d="M14.9869 27.8373C15.1146 26.6214 14.2537 25.5344 13.0641 25.4095C11.8746 25.2846 10.8067 26.169 10.6791 27.3849C10.5514 28.6009 11.4123 29.6878 12.6018 29.8127C13.7914 29.9376 14.8593 29.0532 14.9869 27.8373Z"/>
<path d="M33.6059 46.2938L31.9865 44.7769C31.626 44.4392 31.0362 44.5972 30.8928 45.07L30.2488 47.1934C30.1984 47.3597 30.0849 47.4998 29.9327 47.5837L27.9896 48.6551C27.557 48.8936 27.525 49.5034 27.9304 49.7858L29.7508 51.0545C29.8934 51.1538 29.9916 51.305 30.0244 51.4757L30.4429 53.6548C30.536 54.1399 31.1061 54.3588 31.5 54.0606L33.2691 52.7212C33.4077 52.6163 33.5817 52.5696 33.7542 52.5912L35.956 52.8666C36.4462 52.9279 36.8304 52.4534 36.6686 51.9866L35.9414 49.8902C35.8845 49.726 35.8939 49.546 35.9677 49.3887L36.91 47.3798C37.1198 46.9325 36.7872 46.4204 36.2933 46.4301L34.0748 46.4738C33.901 46.4772 33.7328 46.4127 33.6059 46.2938Z"/>
<path d="M52.7905 39.7754L52.7444 38.7491C52.7222 38.2556 52.1897 37.9568 51.7569 38.195L50.8569 38.6904C50.7047 38.7742 50.5257 38.7952 50.3581 38.749L49.3678 38.4757C48.8916 38.3442 48.4429 38.7583 48.5357 39.2435L48.7287 40.2526C48.7613 40.4233 48.726 40.6 48.6303 40.7451L48.0643 41.6025C47.7922 42.0148 48.0473 42.5695 48.5375 42.6312L49.5568 42.7594C49.7292 42.7811 49.8864 42.8693 49.9948 43.0052L50.6353 43.8084C50.9433 44.1946 51.5497 44.1234 51.7598 43.6763L52.1968 42.7465C52.2707 42.5892 52.4032 42.467 52.5659 42.4059L53.5277 42.0449C53.9902 41.8714 54.1099 41.2726 53.7496 40.9346L53.0004 40.2317C52.8736 40.1128 52.7983 39.9491 52.7905 39.7754Z"/>
<path d="M47.5735 33.176L47.3524 32.1727C47.2461 31.6903 47.6831 31.2638 48.1628 31.3819L49.1603 31.6275C49.3291 31.669 49.5075 31.643 49.6573 31.555L50.5431 31.0347C50.9691 30.7845 51.5098 31.0683 51.5457 31.561L51.6204 32.5856C51.6331 32.759 51.7129 32.9205 51.8429 33.0359L52.6115 33.7175C52.9811 34.0454 52.8782 34.6472 52.4207 34.8337L51.4694 35.2214C51.3084 35.2869 51.1794 35.4128 51.1099 35.5721L50.6991 36.5137C50.5015 36.9665 49.8973 37.0547 49.5786 36.6772L48.916 35.8922C48.8038 35.7594 48.6443 35.6756 48.4713 35.6587L47.4488 35.559C46.9571 35.511 46.6866 34.9636 46.9471 34.5439L47.4889 33.671C47.5806 33.5234 47.6109 33.3457 47.5735 33.176Z"/>
</mask>
<path d="M17.4715 18.8331C17.6021 18.837 17.7197 18.9006 17.7783 19.0135C17.7867 19.0298 17.7936 19.0465 17.7991 19.0636C18.1442 19.3827 18.34 19.8607 18.2864 20.3712C18.1972 21.2208 17.451 21.8389 16.6197 21.7516C15.7884 21.6643 15.1869 20.9048 15.2761 20.0551C15.3653 19.2055 16.1115 18.5874 16.9428 18.6747C17.1329 18.6947 17.311 18.7498 17.4715 18.8331Z" stroke="#04C4FF" stroke-width="6" mask="url(#path-2-inside-1)"/>
<path d="M36.3414 41.1593C40.8925 40.5045 44.0625 36.3642 43.4219 31.9117C42.7813 27.4591 38.5727 24.3804 34.0216 25.0352C29.4706 25.6899 26.3005 29.8302 26.9411 34.2828C27.5817 38.7353 31.7904 41.814 36.3414 41.1593Z" stroke="#04C4FF" stroke-width="6" mask="url(#path-2-inside-1)"/>
<path d="M21.6512 45.7095C23.3777 44.7469 24.0138 42.5972 23.0721 40.9081C22.1303 39.2189 19.9672 38.63 18.2407 39.5926C16.5142 40.5552 15.878 42.7049 16.8198 44.394C17.7616 46.0832 19.9247 46.6721 21.6512 45.7095Z" stroke="#04C4FF" stroke-width="6" mask="url(#path-2-inside-1)"/>
<path d="M22.7545 34.4832C23.5481 33.1088 23.1013 31.3651 21.7565 30.5887C20.4118 29.8123 18.6783 30.2972 17.8848 31.6717C17.0912 33.0462 17.538 34.7898 18.8828 35.5662C20.2275 36.3426 21.961 35.8577 22.7545 34.4832Z" stroke="#04C4FF" stroke-width="6" mask="url(#path-2-inside-1)"/>
<path d="M14.9869 27.8373C15.1146 26.6214 14.2537 25.5344 13.0641 25.4095C11.8746 25.2846 10.8067 26.169 10.6791 27.3849C10.5514 28.6009 11.4123 29.6878 12.6018 29.8127C13.7914 29.9376 14.8593 29.0532 14.9869 27.8373Z" stroke="#04C4FF" stroke-width="6" mask="url(#path-2-inside-1)"/>
<path d="M33.6059 46.2938L31.9865 44.7769C31.626 44.4392 31.0362 44.5972 30.8928 45.07L30.2488 47.1934C30.1984 47.3597 30.0849 47.4998 29.9327 47.5837L27.9896 48.6551C27.557 48.8936 27.525 49.5034 27.9304 49.7858L29.7508 51.0545C29.8934 51.1538 29.9916 51.305 30.0244 51.4757L30.4429 53.6548C30.536 54.1399 31.1061 54.3588 31.5 54.0606L33.2691 52.7212C33.4077 52.6163 33.5817 52.5696 33.7542 52.5912L35.956 52.8666C36.4462 52.9279 36.8304 52.4534 36.6686 51.9866L35.9414 49.8902C35.8845 49.726 35.8939 49.546 35.9677 49.3887L36.91 47.3798C37.1198 46.9325 36.7872 46.4204 36.2933 46.4301L34.0748 46.4738C33.901 46.4772 33.7328 46.4127 33.6059 46.2938Z" stroke="#04C4FF" stroke-width="6" mask="url(#path-2-inside-1)"/>
<path d="M52.7905 39.7754L52.7444 38.7491C52.7222 38.2556 52.1897 37.9568 51.7569 38.195L50.8569 38.6904C50.7047 38.7742 50.5257 38.7952 50.3581 38.749L49.3678 38.4757C48.8916 38.3442 48.4429 38.7583 48.5357 39.2435L48.7287 40.2526C48.7613 40.4233 48.726 40.6 48.6303 40.7451L48.0643 41.6025C47.7922 42.0148 48.0473 42.5695 48.5375 42.6312L49.5568 42.7594C49.7292 42.7811 49.8864 42.8693 49.9948 43.0052L50.6353 43.8084C50.9433 44.1946 51.5497 44.1234 51.7598 43.6763L52.1968 42.7465C52.2707 42.5892 52.4032 42.467 52.5659 42.4059L53.5277 42.0449C53.9902 41.8714 54.1099 41.2726 53.7496 40.9346L53.0004 40.2317C52.8736 40.1128 52.7983 39.9491 52.7905 39.7754Z" stroke="#04C4FF" stroke-width="6" mask="url(#path-2-inside-1)"/>
<path d="M47.5735 33.176L47.3524 32.1727C47.2461 31.6903 47.6831 31.2638 48.1628 31.3819L49.1603 31.6275C49.3291 31.669 49.5075 31.643 49.6573 31.555L50.5431 31.0347C50.9691 30.7845 51.5098 31.0683 51.5457 31.561L51.6204 32.5856C51.6331 32.759 51.7129 32.9205 51.8429 33.0359L52.6115 33.7175C52.9811 34.0454 52.8782 34.6472 52.4207 34.8337L51.4694 35.2214C51.3084 35.2869 51.1794 35.4128 51.1099 35.5721L50.6991 36.5137C50.5015 36.9665 49.8973 37.0547 49.5786 36.6772L48.916 35.8922C48.8038 35.7594 48.6443 35.6756 48.4713 35.6587L47.4488 35.559C46.9571 35.511 46.6866 34.9636 46.9471 34.5439L47.4889 33.671C47.5806 33.5234 47.6109 33.3457 47.5735 33.176Z" stroke="#04C4FF" stroke-width="6" mask="url(#path-2-inside-1)"/>
</svg>
