<svg width="64" height="64" viewBox="0 0 64 64" fill="none" xmlns="http://www.w3.org/2000/svg">
<g clip-path="url(#clip0)">
<path d="M53.2224 61.6502C53.0494 61.047 52.8309 60.3186 52.5744 59.4863C52.3172 58.6547 52.0395 57.7109 51.7125 56.6911C51.3848 55.6714 51.0327 54.5667 50.6571 53.3997C50.2922 52.2275 49.8642 51.0112 49.4439 49.7411C49.0167 48.4763 48.5744 47.1682 48.126 45.8397C47.6632 44.5172 47.1912 43.1743 46.7193 41.8321C46.3247 40.6985 45.9241 39.5718 45.5243 38.458H48.1761V36.3039H44.7458C44.4567 35.5141 44.1692 34.7326 43.8877 33.9693C42.9658 31.4678 42.0872 29.1422 41.327 27.1513C40.5591 25.1634 39.9203 23.5063 39.4719 22.347C39.2511 21.7939 39.0993 21.35 38.9559 21.0503C39.5933 19.8842 39.9552 18.5457 39.9552 17.1246C39.9552 13.1967 37.1866 9.90831 33.4961 9.0995V0H29.974V9.10026C26.2873 9.90907 23.5157 13.1974 23.5157 17.1254C23.5157 18.7066 23.9732 20.1808 24.7494 21.4365C24.7297 21.4449 24.7077 21.4532 24.6925 21.4661C24.5445 21.7643 24.3882 22.2279 24.1576 22.8045C23.7099 23.9639 23.0695 25.6202 22.3032 27.6081C21.5422 29.599 20.6636 31.9253 19.7417 34.4261C19.5134 35.0421 19.2835 35.6704 19.0505 36.3054H15.2971V38.4602H18.269C17.8123 39.7213 17.3563 41.0035 16.9101 42.2896C16.439 43.6333 15.967 44.9763 15.5034 46.2972C15.055 47.6258 14.6134 48.9346 14.1855 50.2001C13.7652 51.4688 13.3388 52.6865 12.9731 53.8572C12.5975 55.0249 12.2454 56.1289 11.9177 57.1486C11.5906 58.1684 11.313 59.1122 11.0557 59.9446C10.7993 60.7769 10.58 61.5045 10.4078 62.1077C10.0626 63.3126 9.86377 64.0008 9.86377 64.0008C9.86377 64.0008 10.2447 63.3938 10.9093 62.3316C11.2416 61.8012 11.6384 61.1502 12.0838 60.4036C12.5307 59.657 13.0482 58.8194 13.5861 57.8937C14.1241 56.9688 14.709 55.9673 15.3282 54.9081C15.9541 53.8519 16.574 52.7207 17.2379 51.5606C17.8919 50.3967 18.5702 49.1941 19.2577 47.9717C19.9291 46.7434 20.6128 45.4937 21.2964 44.2448C22.3707 42.301 23.4178 40.3457 24.4155 38.461H30.757V42.3746H32.7146V38.461H39.4552C40.3808 40.2053 41.3459 42.0013 42.333 43.7896C43.0159 45.0385 43.7003 46.2866 44.3718 47.515C45.0592 48.7373 45.7382 49.9407 46.3915 51.1038C47.0554 52.2639 47.6745 53.3959 48.302 54.4513C48.9196 55.5105 49.5054 56.5128 50.0441 57.4362C50.5828 58.3626 51.1002 59.198 51.5456 59.9476C51.9917 60.695 52.387 61.3437 52.7209 61.8748C53.3855 62.937 53.7664 63.5448 53.7664 63.5448C53.7664 63.5448 53.5676 62.8551 53.2224 61.6502ZM31.7358 11.2535C34.9726 11.2535 37.6069 13.8879 37.6069 17.1254C37.6069 20.3629 34.9718 22.9965 31.7358 22.9965C28.4975 22.9965 25.864 20.3622 25.864 17.1254C25.864 13.8879 28.4983 11.2535 31.7358 11.2535ZM32.7153 36.3054V33.3691H30.7578V36.3047H25.5521C26.6766 34.1666 27.716 32.1559 28.6075 30.4161C29.5719 28.517 30.3762 26.9336 30.9384 25.8258C31.0302 25.6399 31.1152 25.4737 31.1971 25.3174C31.3746 25.3296 31.5545 25.3448 31.7366 25.3448C32.0461 25.3448 32.3511 25.3243 32.6516 25.2909C32.6653 25.3182 32.6766 25.3417 32.6918 25.3698C33.254 26.4768 34.0598 28.0603 35.0226 29.9601C35.9786 31.8244 37.097 33.9913 38.3178 36.3039L32.7153 36.3054Z" fill="#505050"/>
<path d="M31.8146 20.1019C33.5635 20.1019 34.9877 18.6792 34.9877 16.9296C34.9877 15.18 33.5635 13.7573 31.8146 13.7573C30.0657 13.7573 28.6416 15.1807 28.6416 16.9304C28.6416 18.68 30.0657 20.1019 31.8146 20.1019ZM31.8146 14.3438C33.2395 14.3438 34.4004 15.5039 34.4004 16.9296C34.4004 18.3553 33.2403 19.5154 31.8146 19.5154C30.389 19.5154 29.2296 18.356 29.2296 16.9304C29.2296 15.5047 30.389 14.3438 31.8146 14.3438Z" fill="#04C4FF"/>
</g>
<defs>
<clipPath id="clip0">
<rect width="64" height="64" fill="white"/>
</clipPath>
</defs>
</svg>
