<svg width="80" height="80" viewBox="0 0 80 80" fill="none" xmlns="http://www.w3.org/2000/svg">
<rect width="80" height="80" rx="8" fill="#444444"/>
<mask id="path-2-inside-1" fill="white">
<path d="M19.5063 18.2083C19.6695 18.2131 19.8165 18.2926 19.8897 18.4338C19.9003 18.4541 19.9089 18.475 19.9157 18.4963C20.3471 18.8953 20.5918 19.4927 20.5248 20.1308C20.4133 21.1929 19.4806 21.9654 18.4415 21.8564C17.4024 21.7473 16.6505 20.7978 16.762 19.7358C16.8735 18.6737 17.8062 17.9012 18.8453 18.0103C19.083 18.0352 19.3056 18.1041 19.5063 18.2083Z"/>
<path d="M43.0936 46.116C48.7824 45.2975 52.745 40.1221 51.9442 34.5564C51.1435 28.9908 45.8827 25.1424 40.1939 25.9608C34.5051 26.7793 30.5425 31.9547 31.3433 37.5204C32.144 43.086 37.4049 46.9344 43.0936 46.116Z"/>
<path d="M24.7309 51.8038C26.889 50.6005 27.6842 47.9134 26.5069 45.802C25.3297 43.6905 22.6259 42.9543 20.4677 44.1576C18.3096 45.3609 17.5144 48.048 18.6916 50.1594C19.8689 52.2708 22.5727 53.007 24.7309 51.8038Z"/>
<path d="M26.11 37.7709C27.102 36.0528 26.5435 33.8733 24.8625 32.9028C23.1816 31.9323 21.0148 32.5384 20.0228 34.2565C19.0309 35.9746 19.5894 38.1541 21.2703 39.1246C22.9513 40.0951 25.1181 39.489 26.11 37.7709Z"/>
<path d="M16.4005 29.4634C16.5601 27.9436 15.484 26.5849 13.9971 26.4288C12.5101 26.2726 11.1753 27.3782 11.0157 28.8981C10.8561 30.4179 11.9322 31.7766 13.4192 31.9327C14.9062 32.0889 16.241 30.9833 16.4005 29.4634Z"/>
<path d="M39.6743 52.5342L37.65 50.638C37.1993 50.2158 36.4621 50.4134 36.2828 51.0043L35.4779 53.6586C35.4148 53.8665 35.273 54.0416 35.0828 54.1465L32.6539 55.4857C32.1131 55.7839 32.0732 56.5461 32.5798 56.8992L34.8554 58.485C35.0337 58.6092 35.1564 58.7981 35.1973 59.0115L35.7205 61.7353C35.8369 62.3418 36.5495 62.6153 37.0418 62.2426L39.2532 60.5684C39.4264 60.4372 39.644 60.3789 39.8596 60.4059L42.6118 60.7501C43.2246 60.8267 43.7049 60.2336 43.5026 59.6501L42.5937 57.0296C42.5225 56.8244 42.5343 56.5994 42.6265 56.4027L43.8044 53.8916C44.0666 53.3325 43.6509 52.6923 43.0335 52.7045L40.2604 52.7591C40.0432 52.7634 39.8328 52.6827 39.6743 52.5342Z"/>
<path d="M63.655 44.3861L63.5973 43.1033C63.5696 42.4864 62.904 42.1128 62.363 42.4106L61.238 43.0298C61.0477 43.1346 60.824 43.1609 60.6145 43.1031L59.3766 42.7614C58.7814 42.5972 58.2204 43.1148 58.3365 43.7213L58.5777 44.9826C58.6185 45.196 58.5744 45.4169 58.4547 45.5982L57.7473 46.6699C57.4071 47.1853 57.726 47.8787 58.3387 47.9558L59.6128 48.1161C59.8284 48.1433 60.0248 48.2535 60.1603 48.4234L60.961 49.4274C61.346 49.9102 62.104 49.8211 62.3667 49.2622L62.9129 48.1C63.0053 47.9034 63.1708 47.7506 63.3742 47.6743L64.5765 47.223C65.1547 47.0061 65.3042 46.2576 64.8538 45.8351L63.9173 44.9565C63.7588 44.8078 63.6647 44.6032 63.655 44.3861Z"/>
<path d="M57.1338 36.1368L56.8574 34.8828C56.7245 34.2797 57.2707 33.7467 57.8704 33.8943L59.1173 34.2012C59.3283 34.2531 59.5512 34.2206 59.7385 34.1106L60.8458 33.4602C61.3783 33.1474 62.0541 33.5022 62.099 34.1181L62.1924 35.3989C62.2082 35.6156 62.308 35.8175 62.4706 35.9617L63.4313 36.8138C63.8932 37.2236 63.7646 37.9759 63.1928 38.209L62.0036 38.6936C61.8024 38.7756 61.6411 38.9329 61.5543 39.132L61.0407 40.309C60.7938 40.875 60.0385 40.9852 59.6402 40.5133L58.8118 39.5321C58.6716 39.3661 58.4722 39.2614 58.2559 39.2403L56.9779 39.1156C56.3633 39.0556 56.0251 38.3714 56.3507 37.8467L57.028 36.7557C57.1426 36.5711 57.1805 36.349 57.1338 36.1368Z"/>
</mask>
<path d="M19.211 18.2811L18.7329 17.4028L18.7329 17.4028L19.211 18.2811ZM19.5063 18.2083L19.9669 17.3207L19.7641 17.2154L19.5357 17.2087L19.5063 18.2083ZM19.9157 18.4963L20.8682 18.1917L20.788 17.9409L20.5947 17.7621L19.9157 18.4963ZM19.6331 19.0955L20.1112 19.9738L19.6331 19.0955ZM18.9544 18.9429L19.8422 18.4827L19.8422 18.4827L18.9544 18.9429ZM43.1408 28.2109L43.8045 28.9589L43.8045 28.9589L43.1408 28.2109ZM24.9011 33.78L23.9028 33.8392L23.9028 33.8392L24.9011 33.78ZM22.9289 33.9371L21.9306 33.9963L21.9306 33.9963L22.9289 33.9371ZM12.9605 27.7627L12.0727 28.2229L12.0727 28.2229L12.9605 27.7627ZM19.6891 19.1594C19.6333 19.1898 19.561 19.2103 19.4768 19.2078L19.5357 17.2087C19.2581 17.2005 18.9809 17.2678 18.7329 17.4028L19.6891 19.1594ZM18.9632 18.8009C18.9108 18.637 18.9404 18.4949 18.9819 18.4061C19.0238 18.3161 19.0877 18.2539 19.155 18.2173L20.1112 19.9738C20.6818 19.6632 21.1109 18.9505 20.8682 18.1917L18.9632 18.8009ZM19.155 18.2173C19.2286 18.1772 19.335 18.1526 19.46 18.1807C19.5888 18.2096 19.7484 18.3018 19.8422 18.4827L18.0666 19.4031C18.5049 20.2488 19.4924 20.3107 20.1112 19.9738L19.155 18.2173ZM19.8422 18.4827C19.9345 18.6608 19.9163 18.834 19.8745 18.9419C19.8332 19.0483 19.7624 19.1195 19.6891 19.1594L18.7329 17.4028C18.1202 17.7363 17.6393 18.5788 18.0666 19.4031L19.8422 18.4827ZM46.1979 29.3559C46.9935 30.2168 46.8639 31.2313 46.3671 31.6721L47.6945 33.1681C49.2373 31.7993 49.0195 29.4623 47.6667 27.9985L46.1979 29.3559ZM46.3671 31.6721C45.8524 32.1288 44.7741 32.1411 43.9738 31.2751L42.505 32.6325C43.853 34.0912 46.1697 34.521 47.6945 33.1681L46.3671 31.6721ZM43.9738 31.2751C43.1782 30.4142 43.3078 29.3997 43.8045 28.9589L42.4771 27.4629C40.9343 28.8318 41.1522 31.1687 42.505 32.6325L43.9738 31.2751ZM43.8045 28.9589C44.3192 28.5023 45.3975 28.4899 46.1979 29.3559L47.6667 27.9985C46.3186 26.5399 44.002 26.11 42.4771 27.4629L43.8045 28.9589ZM23.1478 45.1087C23.2459 45.1571 23.2902 45.2216 23.3044 45.2561C23.3112 45.2725 23.3097 45.2778 23.3099 45.2713C23.31 45.2632 23.3126 45.2503 23.3187 45.2386L25.0933 46.1609C25.6861 45.0205 25.012 43.7991 24.034 43.3157L23.1478 45.1087ZM23.3187 45.2386C23.3344 45.2082 23.3469 45.2224 23.2954 45.2352C23.2424 45.2483 23.1535 45.2476 23.0552 45.199L22.169 46.992C23.1406 47.4722 24.5116 47.2801 25.0933 46.1609L23.3187 45.2386ZM23.0552 45.199C22.9571 45.1505 22.9128 45.0861 22.8986 45.0516C22.8918 45.0352 22.8932 45.0299 22.8931 45.0363C22.893 45.0445 22.8904 45.0574 22.8843 45.0691L21.1097 44.1467C20.5169 45.2872 21.191 46.5086 22.169 46.992L23.0552 45.199ZM22.8843 45.0691C22.8685 45.0995 22.8561 45.0853 22.9076 45.0725C22.9606 45.0593 23.0495 45.06 23.1478 45.1087L24.034 43.3157C23.0624 42.8354 21.6914 43.0276 21.1097 44.1467L22.8843 45.0691ZM23.944 34.0048C23.9862 34.0014 23.9953 34.0155 23.9792 34.0035C23.9704 33.997 23.9528 33.9812 23.9359 33.9516C23.9181 33.9205 23.9053 33.8811 23.9028 33.8392L25.8993 33.7207C25.83 32.553 24.7389 31.9351 23.7851 32.0111L23.944 34.0048ZM23.9028 33.8392C23.9003 33.7975 23.9085 33.7607 23.9195 33.7341C23.93 33.7089 23.941 33.6971 23.9433 33.6949C23.9461 33.6921 23.9285 33.7089 23.886 33.7123L24.0449 35.706C24.9916 35.6305 25.9671 34.8645 25.8993 33.7207L23.9028 33.8392ZM23.886 33.7123C23.8438 33.7156 23.8346 33.7016 23.8507 33.7136C23.8595 33.7201 23.8771 33.7359 23.8941 33.7655C23.9118 33.7966 23.9247 33.8359 23.9271 33.8779L21.9306 33.9963C21.9999 35.1641 23.0911 35.782 24.0449 35.706L23.886 33.7123ZM23.9271 33.8779C23.9296 33.9196 23.9215 33.9564 23.9104 33.983C23.9 34.0082 23.889 34.0199 23.8867 34.0222C23.8839 34.025 23.9014 34.0082 23.944 34.0048L23.7851 32.0111C22.8383 32.0866 21.8628 32.8525 21.9306 33.9963L23.9271 33.8779ZM13.8058 27.6939C13.7879 27.7036 13.742 27.7205 13.67 27.7043C13.5941 27.6872 13.4798 27.6267 13.4112 27.4942L15.1868 26.5738C14.6982 25.6312 13.5797 25.5398 12.8496 25.9373L13.8058 27.6939ZM13.4112 27.4942C13.344 27.3646 13.3624 27.2475 13.3842 27.1913C13.4054 27.1365 13.436 27.1124 13.4537 27.1028L14.4099 28.8594C15.1339 28.4653 15.6644 27.4951 15.1868 26.5738L13.4112 27.4942ZM13.4537 27.1028C13.4716 27.093 13.5175 27.0762 13.5895 27.0924C13.6654 27.1094 13.7796 27.17 13.8483 27.3024L12.0727 28.2229C12.5613 29.1655 13.6798 29.2568 14.4099 28.8594L13.4537 27.1028ZM13.8483 27.3024C13.9155 27.4321 13.8971 27.5491 13.8753 27.6054C13.854 27.6602 13.8234 27.6843 13.8058 27.6939L12.8496 25.9373C12.1256 26.3314 11.5951 27.3016 12.0727 28.2229L13.8483 27.3024ZM19.0457 19.0959C19.1145 19.1316 19.1788 19.1768 19.2368 19.2305L20.5947 17.7621C20.4079 17.5894 20.1973 17.4402 19.9669 17.3207L19.0457 19.0959ZM19.5063 18.2083L18.5851 19.9835L18.9907 20.194L19.4474 20.2074L19.5063 18.2083ZM19.8897 18.4338L18.1141 19.3542L18.1141 19.3542L19.8897 18.4338ZM19.9157 18.4963L18.0108 19.1056L18.1712 19.6071L18.5578 19.9647L19.9157 18.4963ZM40.1939 25.9608L40.4787 27.9404L40.4787 27.9404L40.1939 25.9608ZM18.6916 50.1594L16.9448 51.1334L16.9448 51.1334L18.6916 50.1594ZM13.9971 26.4288L14.2059 24.4397L14.2059 24.4397L13.9971 26.4288ZM13.4192 31.9327L13.2103 33.9218L13.4192 31.9327ZM11.0157 28.8981L13.0048 29.1069L11.0157 28.8981ZM18.8453 18.0103L18.6365 19.9993L18.8453 18.0103ZM20.5248 20.1308L18.5358 19.922L18.5358 19.922L20.5248 20.1308ZM18.4415 21.8564L18.2327 23.8454L18.2327 23.8454L18.4415 21.8564ZM37.65 50.638L36.2827 52.0976L36.2827 52.0976L37.65 50.638ZM39.6743 52.5342L41.0416 51.0745L41.0415 51.0745L39.6743 52.5342ZM40.2604 52.7591L40.221 50.7595L40.221 50.7595L40.2604 52.7591ZM43.0335 52.7045L43.0729 54.7041L43.0729 54.7041L43.0335 52.7045ZM43.8044 53.8916L45.6151 54.7409L45.6151 54.7409L43.8044 53.8916ZM42.6265 56.4027L44.4372 57.252L44.4372 57.252L42.6265 56.4027ZM42.5937 57.0296L40.7041 57.685L40.7041 57.685L42.5937 57.0296ZM43.5026 59.6501L45.3921 58.9947L45.3921 58.9947L43.5026 59.6501ZM42.6118 60.7501L42.3636 62.7346L42.3636 62.7346L42.6118 60.7501ZM39.8596 60.4059L40.1078 58.4214L40.1078 58.4214L39.8596 60.4059ZM39.2532 60.5684L38.046 58.9738L38.046 58.9738L39.2532 60.5684ZM37.0418 62.2426L35.8346 60.648L35.8346 60.648L37.0418 62.2426ZM35.7205 61.7353L37.6846 61.3581L37.6846 61.3581L35.7205 61.7353ZM35.1973 59.0115L37.1614 58.6343L37.1614 58.6343L35.1973 59.0115ZM34.8554 58.485L33.7119 60.1258L33.7119 60.1258L34.8554 58.485ZM32.5798 56.8992L31.4363 58.54L31.4363 58.54L32.5798 56.8992ZM32.6539 55.4857L33.6196 57.2371L33.6196 57.2371L32.6539 55.4857ZM35.0828 54.1465L34.1171 52.3951L34.1171 52.3951L35.0828 54.1465ZM35.4779 53.6586L33.564 53.0781L33.564 53.0781L35.4779 53.6586ZM36.2828 51.0043L34.3689 50.4239L34.3689 50.4239L36.2828 51.0043ZM63.5973 43.1033L65.5953 43.0136L65.5953 43.0135L63.5973 43.1033ZM63.655 44.3861L65.6529 44.2964L65.6529 44.2964L63.655 44.3861ZM63.9173 44.9565L65.2857 43.4979L65.2857 43.4979L63.9173 44.9565ZM64.8538 45.8351L63.4855 47.2937L63.4855 47.2937L64.8538 45.8351ZM64.5765 47.223L65.2793 49.0955L65.2793 49.0955L64.5765 47.223ZM63.3742 47.6743L64.077 49.5467L64.077 49.5467L63.3742 47.6743ZM62.9129 48.1L64.7229 48.9507L64.7229 48.9507L62.9129 48.1ZM62.3667 49.2622L60.5566 48.4116L60.5566 48.4116L62.3667 49.2622ZM60.961 49.4274L62.5246 48.1804L62.5246 48.1804L60.961 49.4274ZM60.1603 48.4234L61.724 47.1764L61.724 47.1764L60.1603 48.4234ZM59.6128 48.1161L59.3631 50.1005L59.3631 50.1005L59.6128 48.1161ZM58.3387 47.9558L58.5884 45.9715L58.5884 45.9715L58.3387 47.9558ZM57.7473 46.6699L56.0781 45.5681L56.0781 45.5681L57.7473 46.6699ZM58.4547 45.5982L60.1238 46.7L60.1238 46.7L58.4547 45.5982ZM58.5777 44.9826L56.6133 45.3583L56.6133 45.3583L58.5777 44.9826ZM58.3365 43.7213L56.3721 44.097L56.3721 44.0971L58.3365 43.7213ZM59.3766 42.7614L58.8446 44.6894L58.8446 44.6894L59.3766 42.7614ZM60.6145 43.1031L61.1466 41.1751L61.1466 41.1751L60.6145 43.1031ZM61.238 43.0298L62.2024 44.782L62.2024 44.7819L61.238 43.0298ZM62.363 42.4106L63.3274 44.1627L63.3274 44.1627L62.363 42.4106ZM56.8574 34.8828L54.9043 35.3132L54.9043 35.3132L56.8574 34.8828ZM57.1338 36.1368L59.0869 35.7064L59.0869 35.7064L57.1338 36.1368ZM57.028 36.7557L58.7272 37.8104L58.7272 37.8104L57.028 36.7557ZM56.3507 37.8467L54.6515 36.792L54.6515 36.792L56.3507 37.8467ZM56.9779 39.1156L57.172 37.1251L57.172 37.1251L56.9779 39.1156ZM58.2559 39.2403L58.4501 37.2497L58.4501 37.2497L58.2559 39.2403ZM58.8118 39.5321L57.2836 40.8222L57.2836 40.8223L58.8118 39.5321ZM59.6402 40.5133L58.1119 41.8035L58.1119 41.8035L59.6402 40.5133ZM61.0407 40.309L59.2076 39.5092L59.2076 39.5093L61.0407 40.309ZM61.5543 39.132L59.7211 38.3322L59.7211 38.3322L61.5543 39.132ZM62.0036 38.6936L61.2488 36.8414L61.2488 36.8414L62.0036 38.6936ZM63.1928 38.209L63.9475 40.0611L63.9475 40.0611L63.1928 38.209ZM63.4313 36.8138L64.7584 35.3175L64.7584 35.3175L63.4313 36.8138ZM62.4706 35.9617L61.1434 37.458L61.1434 37.458L62.4706 35.9617ZM62.1924 35.3989L60.1977 35.5444L60.1977 35.5444L62.1924 35.3989ZM62.099 34.1181L60.1043 34.2636L60.1043 34.2636L62.099 34.1181ZM60.8458 33.4602L59.8329 31.7357L59.8329 31.7357L60.8458 33.4602ZM59.7385 34.1106L60.7515 35.8351L60.7515 35.8351L59.7385 34.1106ZM59.1173 34.2012L59.5953 32.2592L59.5953 32.2592L59.1173 34.2012ZM57.8704 33.8943L58.3484 31.9522L58.3484 31.9522L57.8704 33.8943ZM19.4474 20.2074C19.0103 20.1945 18.429 19.9616 18.1141 19.3542L21.6653 17.5133C21.2041 16.6235 20.3287 16.2316 19.5652 16.2091L19.4474 20.2074ZM18.1141 19.3542C18.0723 19.2736 18.0379 19.1903 18.0108 19.1056L21.8207 17.887C21.7799 17.7597 21.7282 17.6346 21.6653 17.5133L18.1141 19.3542ZM49.9646 34.8413C50.6022 39.273 47.4454 43.4693 42.8088 44.1364L43.3785 48.0956C50.1195 47.1257 54.8877 40.9712 53.9239 34.2716L49.9646 34.8413ZM42.8088 44.1364C38.1723 44.8034 33.9605 41.6673 33.3229 37.2355L29.3637 37.8052C30.3276 44.5048 36.6374 49.0654 43.3785 48.0956L42.8088 44.1364ZM33.3229 37.2355C32.6853 32.8038 35.8422 28.6075 40.4787 27.9404L39.9091 23.9812C33.168 24.9511 28.3998 31.1056 29.3637 37.8052L33.3229 37.2355ZM40.4787 27.9404C45.1152 27.2734 49.327 30.4095 49.9646 34.8413L53.9239 34.2716C52.96 27.572 46.6501 23.0114 39.9091 23.9812L40.4787 27.9404ZM24.7601 46.7759C25.3795 47.8868 24.9865 49.3714 23.7569 50.0569L25.7048 53.5506C28.7915 51.8296 29.9889 47.94 28.2538 44.828L24.7601 46.7759ZM23.7569 50.0569C22.5273 50.7425 21.0578 50.2963 20.4385 49.1855L16.9448 51.1334C18.6799 54.2454 22.6182 55.2716 25.7048 53.5506L23.7569 50.0569ZM20.4385 49.1855C19.8191 48.0746 20.2121 46.59 21.4417 45.9044L19.4938 42.4108C16.4071 44.1317 15.2097 48.0213 16.9448 51.1334L20.4385 49.1855ZM21.4417 45.9044C22.6713 45.2189 24.1408 45.6651 24.7601 46.7759L28.2538 44.828C26.5187 41.716 22.5804 40.6898 19.4938 42.4108L21.4417 45.9044ZM23.8625 34.6348C24.5514 35.0325 24.8384 35.9735 24.378 36.7709L27.8421 38.7709C29.3656 36.1321 28.5356 32.714 25.8625 31.1707L23.8625 34.6348ZM24.378 36.7709C23.9176 37.5684 22.9592 37.7903 22.2703 37.3926L20.2703 40.8567C22.9434 42.4 26.3186 41.4097 27.8421 38.7709L24.378 36.7709ZM22.2703 37.3926C21.5815 36.9949 21.2945 36.0539 21.7549 35.2565L18.2908 33.2565C16.7673 35.8953 17.5973 39.3134 20.2703 40.8567L22.2703 37.3926ZM21.7549 35.2565C22.2153 34.459 23.1737 34.2371 23.8625 34.6348L25.8625 31.1707C23.1895 29.6274 19.8143 30.6177 18.2908 33.2565L21.7549 35.2565ZM13.7882 28.4178C14.1359 28.4543 14.46 28.792 14.4115 29.2546L18.3896 29.6723C18.6602 27.0951 16.8322 24.7154 14.2059 24.4397L13.7882 28.4178ZM14.4115 29.2546C14.3629 29.7172 13.9757 29.9802 13.628 29.9437L13.2103 33.9218C15.8366 34.1975 18.119 32.2494 18.3896 29.6723L14.4115 29.2546ZM13.628 29.9437C13.2804 29.9072 12.9562 29.5695 13.0048 29.1069L9.02662 28.6892C8.75603 31.2664 10.584 33.646 13.2103 33.9218L13.628 29.9437ZM13.0048 29.1069C13.0533 28.6443 13.4406 28.3813 13.7882 28.4178L14.2059 24.4397C11.5796 24.1639 9.29721 26.1121 9.02662 28.6892L13.0048 29.1069ZM18.6365 19.9993C18.6208 19.9977 18.6022 19.9924 18.5851 19.9835L20.4275 16.4331C20.0089 16.2159 19.5451 16.0728 19.0542 16.0212L18.6365 19.9993ZM18.5578 19.9647C18.5472 19.9549 18.542 19.9458 18.5392 19.9385C18.5376 19.9343 18.5366 19.9303 18.5361 19.9266C18.5356 19.9228 18.5359 19.9209 18.5358 19.922L22.5139 20.3397C22.6484 19.0582 22.1562 17.8441 21.2736 17.028L18.5578 19.9647ZM18.5358 19.922C18.5357 19.9227 18.5364 19.9175 18.5403 19.9103C18.5436 19.9043 18.5483 19.8982 18.5553 19.8925C18.5622 19.8867 18.5741 19.8791 18.5921 19.8735C18.6117 19.8674 18.6328 19.8654 18.6503 19.8673L18.2327 23.8454C20.4111 24.0741 22.2914 22.459 22.5139 20.3397L18.5358 19.922ZM18.6503 19.8673C18.6679 19.8691 18.6882 19.8754 18.706 19.8855C18.7225 19.8947 18.7325 19.9046 18.7381 19.9117C18.7437 19.9188 18.7471 19.9256 18.749 19.9322C18.7513 19.9401 18.751 19.9453 18.7511 19.9446L14.7729 19.5269C14.5504 21.6463 16.0542 23.6167 18.2327 23.8454L18.6503 19.8673ZM18.7511 19.9446C18.7511 19.9439 18.7504 19.9491 18.7465 19.9563C18.7432 19.9623 18.7385 19.9684 18.7315 19.9741C18.7246 19.9799 18.7128 19.9875 18.6947 19.9931C18.6752 19.9993 18.654 20.0012 18.6365 19.9993L19.0542 16.0212C16.8757 15.7925 14.9954 17.4076 14.7729 19.5269L18.7511 19.9446ZM36.2827 52.0976L38.307 53.9938L41.0415 51.0745L39.0173 49.1783L36.2827 52.0976ZM40.2998 54.7588L43.0729 54.7041L42.9941 50.7049L40.221 50.7595L40.2998 54.7588ZM41.9936 53.0423L40.8158 55.5534L44.4372 57.252L45.6151 54.7409L41.9936 53.0423ZM40.7041 57.685L41.613 60.3055L45.3921 58.9947L44.4832 56.3743L40.7041 57.685ZM42.86 58.7656L40.1078 58.4214L39.6114 62.3904L42.3636 62.7346L42.86 58.7656ZM38.046 58.9738L35.8346 60.648L38.2491 63.8371L40.4604 62.1629L38.046 58.9738ZM37.6846 61.3581L37.1614 58.6343L33.2332 59.3887L33.7564 62.1125L37.6846 61.3581ZM35.9989 56.8441L33.7233 55.2583L31.4363 58.54L33.7119 60.1258L35.9989 56.8441ZM33.6196 57.2371L36.0485 55.8979L34.1171 52.3951L31.6882 53.7343L33.6196 57.2371ZM37.3918 54.239L38.1968 51.5848L34.3689 50.4239L33.564 53.0781L37.3918 54.239ZM36.0485 55.8979C36.6954 55.5412 37.1774 54.946 37.3918 54.239L33.564 53.0781C33.6522 52.787 33.8507 52.5419 34.1171 52.3951L36.0485 55.8979ZM33.7233 55.2583C34.4326 55.7526 34.3767 56.8197 33.6196 57.2371L31.6882 53.7343C29.8496 54.7481 29.7138 57.3396 31.4363 58.54L33.7233 55.2583ZM37.1614 58.6343C37.0221 57.9088 36.605 57.2664 35.9989 56.8441L33.7119 60.1258C33.4624 59.9519 33.2906 59.6874 33.2332 59.3887L37.1614 58.6343ZM35.8346 60.648C36.5239 60.1262 37.5215 60.5091 37.6846 61.3581L33.7564 62.1125C34.1523 64.1745 36.5751 65.1045 38.2491 63.8371L35.8346 60.648ZM40.1078 58.4214C39.3748 58.3297 38.635 58.5279 38.046 58.9738L40.4604 62.163C40.2179 62.3466 39.9133 62.4282 39.6114 62.3904L40.1078 58.4214ZM41.613 60.3055C41.3297 59.4887 42.0022 58.6583 42.86 58.7656L42.3636 62.7346C44.447 62.9952 46.0801 60.9784 45.3921 58.9947L41.613 60.3055ZM40.8158 55.5534C40.5021 56.2222 40.462 56.9871 40.7041 57.685L44.4832 56.3743C44.5829 56.6616 44.5664 56.9766 44.4372 57.252L40.8158 55.5534ZM43.0729 54.7041C42.2085 54.7212 41.6265 53.825 41.9936 53.0423L45.6151 54.7409C46.5067 52.84 45.0933 50.6635 42.9941 50.7049L43.0729 54.7041ZM38.307 53.9938C38.8461 54.4988 39.5612 54.7733 40.2998 54.7588L40.221 50.7595C40.5251 50.7535 40.8196 50.8666 41.0416 51.0745L38.307 53.9938ZM39.0173 49.1783C37.4849 47.743 34.9783 48.4147 34.3689 50.4239L38.1968 51.5848C37.9459 52.4121 36.9137 52.6887 36.2827 52.0976L39.0173 49.1783ZM61.5994 43.193L61.657 44.4759L65.6529 44.2964L65.5953 43.0136L61.5994 43.193ZM62.5489 46.4151L63.4855 47.2937L66.2222 44.3765L65.2857 43.4979L62.5489 46.4151ZM63.8738 45.3506L62.6715 45.8018L64.077 49.5467L65.2793 49.0955L63.8738 45.3506ZM61.1028 47.2494L60.5566 48.4116L64.1768 50.1129L64.7229 48.9507L61.1028 47.2494ZM62.5246 48.1804L61.724 47.1764L58.5966 49.6704L59.3973 50.6743L62.5246 48.1804ZM59.8625 46.1318L58.5884 45.9715L58.089 49.9402L59.3631 50.1005L59.8625 46.1318ZM59.4164 47.7717L60.1238 46.7L56.7855 44.4964L56.0781 45.5681L59.4164 47.7717ZM60.5421 44.6068L60.3008 43.3456L56.3721 44.0971L56.6133 45.3583L60.5421 44.6068ZM58.8446 44.6894L60.0824 45.031L61.1466 41.1751L59.9087 40.8335L58.8446 44.6894ZM62.2024 44.7819L63.3274 44.1627L61.3986 40.6585L60.2736 41.2777L62.2024 44.7819ZM60.0824 45.031C60.7945 45.2275 61.5552 45.1382 62.2024 44.782L60.2737 41.2777C60.5401 41.131 60.8534 41.0942 61.1466 41.1751L60.0824 45.031ZM60.3008 43.3456C60.4633 44.1947 59.678 44.9194 58.8446 44.6894L59.9087 40.8335C57.8848 40.2749 55.9776 42.0348 56.3721 44.097L60.3008 43.3456ZM60.1238 46.7C60.5308 46.0835 60.6809 45.3324 60.5421 44.6068L56.6133 45.3583C56.5562 45.0596 56.618 44.7503 56.7855 44.4964L60.1238 46.7ZM58.5884 45.9715C59.4462 46.0794 59.8927 47.0502 59.4164 47.7717L56.0781 45.5681C54.9215 47.3204 56.0058 49.6781 58.089 49.9402L58.5884 45.9715ZM61.724 47.1764C61.2634 46.5988 60.5954 46.224 59.8625 46.1318L59.3631 50.1005C59.0613 50.0625 58.7863 49.9082 58.5966 49.6704L61.724 47.1764ZM60.5566 48.4116C60.9243 47.6291 61.9856 47.5044 62.5246 48.1804L59.3973 50.6743C60.7064 52.3159 63.2838 52.0131 64.1768 50.1129L60.5566 48.4116ZM62.6715 45.8018C61.9799 46.0614 61.417 46.5808 61.1028 47.2494L64.7229 48.9507C64.5936 49.226 64.3618 49.4398 64.077 49.5467L62.6715 45.8018ZM63.4855 47.2937C62.855 46.7022 63.0643 45.6544 63.8738 45.3506L65.2793 49.0955C67.245 48.3578 67.7534 45.813 66.2222 44.3765L63.4855 47.2937ZM61.657 44.4758C61.6901 45.2139 62.0102 45.9097 62.5489 46.4151L65.2857 43.4979C65.5075 43.706 65.6393 43.9925 65.6529 44.2964L61.657 44.4758ZM65.5953 43.0135C65.5011 40.9161 63.238 39.6461 61.3986 40.6585L63.3274 44.1627C62.57 44.5796 61.6381 44.0567 61.5994 43.193L65.5953 43.0135ZM54.9043 35.3132L55.1806 36.5673L59.0869 35.7064L58.8105 34.4524L54.9043 35.3132ZM55.3287 35.7009L54.6515 36.792L58.05 38.9015L58.7272 37.8104L55.3287 35.7009ZM56.7837 41.1062L58.0618 41.2308L58.4501 37.2497L57.172 37.1251L56.7837 41.1062ZM57.2836 40.8223L58.1119 41.8035L61.1684 39.2232L60.34 38.242L57.2836 40.8223ZM62.8739 41.1088L63.3874 39.9318L59.7211 38.3322L59.2076 39.5092L62.8739 41.1088ZM62.7583 40.5457L63.9475 40.0611L62.438 36.3568L61.2488 36.8414L62.7583 40.5457ZM64.7584 35.3175L63.7977 34.4654L61.1434 37.458L62.1041 38.3101L64.7584 35.3175ZM64.1871 35.2534L64.0937 33.9727L60.1043 34.2636L60.1977 35.5444L64.1871 35.2534ZM59.8329 31.7357L58.7256 32.386L60.7515 35.8351L61.8587 35.1847L59.8329 31.7357ZM59.5953 32.2592L58.3484 31.9522L57.3923 35.8363L58.6393 36.1432L59.5953 32.2592ZM58.7256 32.386C58.9879 32.232 59.3 32.1865 59.5953 32.2592L58.6393 36.1432C59.3566 36.3198 60.1145 36.2092 60.7515 35.8351L58.7256 32.386ZM64.0937 33.9727C63.941 31.8786 61.6433 30.6723 59.8329 31.7357L61.8587 35.1847C61.1133 35.6226 60.1672 35.1259 60.1043 34.2636L64.0937 33.9727ZM63.7977 34.4654C64.0252 34.6673 64.165 34.95 64.1871 35.2534L60.1977 35.5444C60.2514 36.2811 60.5908 36.9678 61.1434 37.458L63.7977 34.4654ZM63.9475 40.0611C65.8919 39.2687 66.3291 36.7108 64.7584 35.3175L62.1041 38.3101C61.4574 37.7364 61.6374 36.6831 62.438 36.3568L63.9475 40.0611ZM63.3874 39.9318C63.2657 40.2106 63.04 40.4309 62.7583 40.5457L61.2488 36.8414C60.5647 37.1202 60.0166 37.6552 59.7211 38.3322L63.3874 39.9318ZM58.1119 41.8035C59.4663 43.4078 62.0343 43.0332 62.8739 41.1088L59.2076 39.5093C59.5533 38.7168 60.6107 38.5626 61.1684 39.2232L58.1119 41.8035ZM58.0618 41.2308C57.759 41.2013 57.4798 41.0547 57.2836 40.8222L60.3401 38.242C59.8635 37.6775 59.1853 37.3214 58.4501 37.2497L58.0618 41.2308ZM54.6515 36.792C53.5442 38.5759 54.694 40.9023 56.7837 41.1062L57.172 37.1251C58.0325 37.209 58.506 38.1669 58.05 38.9015L54.6515 36.792ZM55.1806 36.5673C55.1152 36.2703 55.1683 35.9594 55.3287 35.7009L58.7272 37.8104C59.1169 37.1828 59.2459 36.4278 59.0869 35.7064L55.1806 36.5673ZM58.8105 34.4524C58.9966 35.2966 58.2318 36.0429 57.3923 35.8363L58.3484 31.9522C56.3097 31.4504 54.4524 33.2628 54.9043 35.3132L58.8105 34.4524Z" fill="#646464" mask="url(#path-2-inside-1)"/>
</svg>
