<svg width="80" height="80" viewBox="0 0 80 80" fill="none" xmlns="http://www.w3.org/2000/svg">
<rect width="80" height="80" rx="8" fill="#04C4FF"/>
<path d="M23.1597 23.4363C23.1597 22.884 23.6074 22.4363 24.1597 22.4363H31.239C31.7912 22.4363 32.239 22.884 32.239 23.4363V30.5156C32.239 31.0679 31.7912 31.5156 31.239 31.5156H24.1597C23.6074 31.5156 23.1597 31.0679 23.1597 30.5156V23.4363Z" fill="#505050"/>
<path d="M32.2368 66.8324C32.2368 67.3847 31.7891 67.8324 31.2368 67.8324L24.1575 67.8324C23.6052 67.8324 23.1575 67.3847 23.1575 66.8324L23.1575 59.7531C23.1575 59.2008 23.6052 58.7531 24.1575 58.7531L31.2368 58.7531C31.7891 58.7531 32.2368 59.2008 32.2368 59.7531L32.2368 66.8324Z" fill="#505050"/>
<path d="M49.397 40.5947C49.9493 40.5947 50.397 41.0424 50.397 41.5947L50.397 48.674C50.397 49.2263 49.9493 49.674 49.397 49.674L42.3177 49.674C41.7654 49.674 41.3177 49.2263 41.3177 48.674L41.3177 41.5947C41.3177 41.0424 41.7654 40.5947 42.3177 40.5947L49.397 40.5947Z" fill="#505050"/>
<path d="M6 49.6742C5.44772 49.6742 5 49.2265 5 48.6742L5 41.5949C5 41.0426 5.44772 40.5949 6 40.5949L13.0793 40.5949C13.6316 40.5949 14.0793 41.0426 14.0793 41.5949L14.0793 48.6742C14.0793 49.2265 13.6316 49.6742 13.0793 49.6742L6 49.6742Z" fill="#505050"/>
<path d="M39.828 26.5811C40.2186 26.1906 40.8517 26.1906 41.2423 26.5811L46.2481 31.5869C46.6386 31.9775 46.6386 32.6106 46.2481 33.0012L41.2423 38.007C40.8517 38.3975 40.2186 38.3975 39.828 38.007L34.8222 33.0012C34.4317 32.6106 34.4317 31.9775 34.8222 31.5869L39.828 26.5811Z" fill="#505050"/>
<path d="M15.567 63.6875C15.1764 64.0781 14.5433 64.0781 14.1528 63.6875L9.14694 58.6817C8.75642 58.2912 8.75642 57.658 9.14694 57.2675L14.1528 52.2617C14.5433 51.8712 15.1764 51.8712 15.567 52.2617L20.5728 57.2675C20.9633 57.658 20.9633 58.2912 20.5728 58.6817L15.567 63.6875Z" fill="#505050"/>
<path d="M46.2509 57.2653C46.6414 57.6558 46.6414 58.289 46.2509 58.6795L41.2451 63.6853C40.8546 64.0759 40.2214 64.0759 39.8309 63.6853L34.8251 58.6795C34.4345 58.289 34.4345 57.6558 34.8251 57.2653L39.8309 52.2595C40.2214 51.869 40.8546 51.869 41.2451 52.2595L46.2509 57.2653Z" fill="#505050"/>
<path d="M9.14412 33.0023C8.75359 32.6117 8.75359 31.9786 9.14412 31.5881L14.1499 26.5822C14.5405 26.1917 15.1736 26.1917 15.5641 26.5822L20.57 31.5881C20.9605 31.9786 20.9605 32.6117 20.57 33.0023L15.5641 38.0081C15.1736 38.3986 14.5405 38.3986 14.1499 38.0081L9.14412 33.0023Z" fill="#505050"/>
<path d="M44.3435 45.1346C44.3435 54.3276 36.8911 61.78 27.6981 61.78C18.5051 61.78 11.0527 54.3276 11.0527 45.1346C11.0527 35.9416 18.5051 28.4893 27.6981 28.4893C36.8911 28.4893 44.3435 35.9416 44.3435 45.1346ZM15.5504 45.1346C15.5504 51.8436 20.9891 57.2823 27.6981 57.2823C34.4071 57.2823 39.8458 51.8436 39.8458 45.1346C39.8458 38.4256 34.4071 32.9869 27.6981 32.9869C20.9891 32.9869 15.5504 38.4256 15.5504 45.1346Z" fill="#505050"/>
<path d="M57.769 12.6665C57.769 12.1142 58.2168 11.6665 58.769 11.6665H62.5129C63.0652 11.6665 63.5129 12.1142 63.5129 12.6665V16.4103C63.5129 16.9626 63.0652 17.4103 62.5129 17.4103H58.769C58.2168 17.4103 57.769 16.9626 57.769 16.4103V12.6665Z" fill="#505050"/>
<path d="M63.5132 39.3856C63.5132 39.9379 63.0655 40.3856 62.5132 40.3856L58.7694 40.3856C58.2171 40.3856 57.7694 39.9379 57.7694 39.3856L57.7694 35.6418C57.7694 35.0895 58.2171 34.6418 58.7694 34.6418L62.5132 34.6418C63.0655 34.6418 63.5132 35.0895 63.5132 35.6418L63.5132 39.3856Z" fill="#505050"/>
<path d="M74.0005 23.1541C74.5528 23.1541 75.0005 23.6018 75.0005 24.1541L75.0005 27.8979C75.0005 28.4502 74.5528 28.8979 74.0005 28.8979L70.2567 28.8979C69.7044 28.8979 69.2567 28.4502 69.2567 27.8979L69.2567 24.1541C69.2567 23.6018 69.7044 23.1541 70.2567 23.1541L74.0005 23.1541Z" fill="#505050"/>
<path d="M47.2822 28.8982C46.7299 28.8982 46.2822 28.4505 46.2822 27.8982L46.2822 24.1544C46.2822 23.6021 46.7299 23.1544 47.2822 23.1544L51.0261 23.1544C51.5783 23.1544 52.0261 23.6021 52.0261 24.1544L52.0261 27.8982C52.0261 28.4505 51.5783 28.8982 51.0261 28.8982L47.2822 28.8982Z" fill="#505050"/>
<path d="M68.058 14.5484C68.4486 14.1579 69.0817 14.1579 69.4722 14.5484L72.1195 17.1957C72.5101 17.5862 72.5101 18.2194 72.1195 18.6099L69.4722 21.2572C69.0817 21.6477 68.4486 21.6477 68.058 21.2572L65.4107 18.6099C65.0202 18.2194 65.0202 17.5862 65.4107 17.1957L68.058 14.5484Z" fill="#505050"/>
<path d="M53.2276 37.5036C52.8371 37.8941 52.2039 37.8941 51.8134 37.5036L49.1661 34.8563C48.7756 34.4658 48.7756 33.8326 49.1661 33.4421L51.8134 30.7948C52.2039 30.4043 52.8371 30.4043 53.2276 30.7948L55.8749 33.4421C56.2654 33.8326 56.2654 34.4658 55.8749 34.8563L53.2276 37.5036Z" fill="#505050"/>
<path d="M72.1191 33.4406C72.5096 33.8311 72.5096 34.4643 72.1191 34.8548L69.4718 37.5021C69.0813 37.8926 68.4481 37.8926 68.0576 37.5021L65.4103 34.8548C65.0198 34.4643 65.0198 33.8311 65.4103 33.4406L68.0576 30.7933C68.4481 30.4028 69.0813 30.4028 69.4718 30.7933L72.1191 33.4406Z" fill="#505050"/>
<path d="M49.1617 18.6104C48.7712 18.2199 48.7712 17.5867 49.1617 17.1962L51.809 14.5489C52.1995 14.1584 52.8327 14.1584 53.2232 14.5489L55.8705 17.1962C56.261 17.5867 56.261 18.2199 55.8705 18.6104L53.2232 21.2577C52.8327 21.6482 52.1995 21.6482 51.809 21.2577L49.1617 18.6104Z" fill="#505050"/>
<path d="M71.172 26.026C71.172 31.8417 66.4574 36.5563 60.6417 36.5563C54.8259 36.5563 50.1113 31.8417 50.1113 26.026C50.1113 20.2102 54.8259 15.4956 60.6417 15.4956C66.4574 15.4956 71.172 20.2102 71.172 26.026ZM57.4826 26.026C57.4826 27.7707 58.897 29.1851 60.6417 29.1851C62.3864 29.1851 63.8008 27.7707 63.8008 26.026C63.8008 24.2812 62.3864 22.8669 60.6417 22.8669C58.897 22.8669 57.4826 24.2812 57.4826 26.026Z" fill="#505050"/>
<path d="M33.5298 37.6531C33.7039 37.4769 33.9106 37.337 34.138 37.2416C34.3655 37.1462 34.6093 37.0971 34.8555 37.0971C35.1017 37.0971 35.3454 37.1462 35.5729 37.2416C35.8003 37.337 36.007 37.4769 36.1811 37.6531C36.3552 37.8294 36.4933 38.0387 36.5875 38.269C36.6817 38.4993 36.7302 38.7462 36.7302 38.9954C36.7302 39.2447 36.6817 39.4916 36.5875 39.7219C36.4933 39.9522 36.3552 40.1615 36.1811 40.3378L34.8555 38.9954L33.5298 37.6531Z" fill="#505050"/>
<path d="M25.7163 34.8838H29.0702V36.5814L27.4417 36.3015L25.7163 36.5814V34.8838Z" fill="#505050"/>
<path fill-rule="evenodd" clip-rule="evenodd" d="M27.4417 54.4187C32.3224 54.4187 36.2789 50.363 36.2789 45.3601C36.2789 40.3572 32.3224 36.3015 27.4417 36.3015C22.561 36.3015 18.6045 40.3572 18.6045 45.3601C18.6045 50.363 22.561 54.4187 27.4417 54.4187ZM27.2663 52.195C30.9008 52.195 33.8472 49.1748 33.8472 45.4492C33.8472 41.7236 30.9008 38.7035 27.2663 38.7035C23.6317 38.7035 20.6854 41.7236 20.6854 45.4492C20.6854 49.1748 23.6317 52.195 27.2663 52.195Z" fill="#505050"/>
<path d="M30.4383 43.2488C30.4383 43.2488 28.7689 46.0265 28.2217 46.457C27.6745 46.8874 26.9172 46.8276 26.5303 46.3232C26.1433 45.8189 26.2732 45.0611 26.8204 44.6306C27.3675 44.2001 30.4383 43.2488 30.4383 43.2488Z" fill="#505050"/>
</svg>
