<svg width="64" height="64" viewBox="0 0 64 64" fill="none" xmlns="http://www.w3.org/2000/svg">
<path d="M24.8008 34.5889H19.8674" stroke="#505050" stroke-width="4"/>
<path d="M23.9785 36.0001H20.6896" stroke="#505050" stroke-width="4"/>
<path d="M22.2422 11.3335L22.2422 16.4572" stroke="#505050" stroke-width="4"/>
<path d="M29.375 14.0662L26.5274 18.0851" stroke="#505050" stroke-width="4"/>
<path d="M34.666 21.9229L30.0597 22.7771" stroke="#505050" stroke-width="4"/>
<path d="M10 21.8738L14.5264 22.9103" stroke="#505050" stroke-width="4"/>
<path d="M14.5898 14.0662L17.4374 18.0851" stroke="#505050" stroke-width="4"/>
<path d="M28.5141 23.3287C28.5141 24.8812 27.7948 26.2811 26.6423 27.2688C26.1035 27.7306 26.3718 29.8669 25.3006 31.2333C24.2294 32.5997 21.1828 32.5519 20.0977 31.3699C18.7413 29.8924 19.5188 28.1848 18.45 27.2688C17.2974 26.2811 16.5781 24.8812 16.5781 23.3287C16.5781 20.3367 19.2501 17.9111 22.5461 17.9111C25.8422 17.9111 28.5141 20.3367 28.5141 23.3287Z" fill="#505050"/>
<path d="M19.2497 21.7342C18.4016 22.9978 18.8527 23.6963 17.7377 23.6963C16.8214 23.0812 17.2095 21.2111 18.0059 20.4147C19.1209 19.1404 20.1663 18.6213 21.0827 19.2363C21.9991 19.8514 20.0978 20.4706 19.2497 21.7342Z" fill="#646464" fill-opacity="0.9"/>
<path d="M43.334 25C43.334 36.598 33.932 46 22.334 46C10.736 46 1.33398 36.598 1.33398 25C1.33398 13.402 10.736 4 22.334 4C33.932 4 43.334 13.402 43.334 25ZM4.34587 25C4.34587 34.9346 12.3994 42.9881 22.334 42.9881C32.2685 42.9881 40.3221 34.9346 40.3221 25C40.3221 15.0654 32.2685 7.01189 22.334 7.01189C12.3994 7.01189 4.34587 15.0654 4.34587 25Z" fill="#505050"/>
<path d="M21.8534 29.1741C22.4412 29.1741 22.8412 29.419 23.0534 29.9088C23.1024 30.0557 23.1269 30.2517 23.1269 30.4966C23.1269 30.7415 23.0208 30.9619 22.8085 31.1578C22.433 31.5006 22.0085 31.5741 21.5351 31.3782C21.0779 31.1823 20.8493 30.8639 20.8493 30.4231C20.8493 29.966 20.9555 29.6476 21.1677 29.468C21.38 29.2721 21.6085 29.1741 21.8534 29.1741ZM22.4902 26.6027C22.4902 27.1251 22.5718 27.6068 22.7351 28.0476H22.0983C21.6575 27.7864 21.3228 27.4272 21.0942 26.97C21.0289 26.8231 20.9963 26.6353 20.9963 26.4068C20.9963 26.1782 21.0616 25.9496 21.1922 25.7211C21.4534 25.3129 21.8371 24.8721 22.3432 24.3986C23.2412 23.566 23.6902 22.7741 23.6902 22.0231C23.6902 21.5006 23.5514 21.0762 23.2738 20.7496C23.0126 20.4231 22.6453 20.2598 22.1718 20.2598C21.0289 20.2598 20.3596 20.7088 20.1636 21.6068H19.0126C19.0126 20.7415 19.3881 20.0966 20.1391 19.6721C20.7269 19.3292 21.3391 19.1578 21.9759 19.1578C23.1024 19.1578 23.9759 19.419 24.5963 19.9415C25.2167 20.4639 25.5269 21.1904 25.5269 22.1211C25.5269 23.0353 25.0126 23.9333 23.984 24.8149C23.3473 25.3864 22.9391 25.7864 22.7596 26.0149C22.58 26.2272 22.4902 26.4231 22.4902 26.6027Z" fill="#04C4FF"/>
<path d="M37.0194 41.4884L41.0085 36.7344L42.8825 38.3069L38.8934 43.0608L37.0194 41.4884Z" fill="#505050"/>
<path d="M39.9598 45.9271C39.1053 45.2101 39.0025 43.9327 39.7313 43.0883L41.7044 40.8022L43.1384 39.0356C43.8425 38.1681 45.1209 38.0457 45.9768 38.7639L61.5516 51.8327C62.3977 52.5427 62.5081 53.8042 61.7981 54.6504L58.356 58.7525C57.646 59.5987 56.3845 59.709 55.5383 58.999L39.9598 45.9271Z" fill="#505050"/>
</svg>
