<svg width="80" height="80" viewBox="0 0 80 80" fill="none" xmlns="http://www.w3.org/2000/svg">
<rect width="80" height="80" rx="8" fill="#444444"/>
<path d="M32.8008 42.5889H27.8674" stroke="#646464" stroke-width="4"/>
<path d="M31.9785 44.0001H28.6896" stroke="#646464" stroke-width="4"/>
<path d="M30.2422 19.3335L30.2422 24.4572" stroke="#646464" stroke-width="4"/>
<path d="M37.375 22.0662L34.5274 26.0851" stroke="#646464" stroke-width="4"/>
<path d="M42.666 29.9229L38.0597 30.7771" stroke="#646464" stroke-width="4"/>
<path d="M18 29.8738L22.5264 30.9103" stroke="#646464" stroke-width="4"/>
<path d="M22.5898 22.0662L25.4374 26.0851" stroke="#646464" stroke-width="4"/>
<path d="M36.5141 31.3287C36.5141 32.8812 35.7948 34.2811 34.6423 35.2688C34.1035 35.7306 34.3718 37.8669 33.3006 39.2333C32.2294 40.5997 29.1828 40.5519 28.0977 39.3699C26.7413 37.8924 27.5188 36.1848 26.45 35.2688C25.2974 34.2811 24.5781 32.8812 24.5781 31.3287C24.5781 28.3367 27.2501 25.9111 30.5461 25.9111C33.8422 25.9111 36.5141 28.3367 36.5141 31.3287Z" fill="#646464"/>
<path d="M27.2497 29.7342C26.4016 30.9978 26.8527 31.6963 25.7377 31.6963C24.8214 31.0812 25.2095 29.2111 26.0059 28.4147C27.1209 27.1404 28.1663 26.6213 29.0827 27.2363C29.9991 27.8514 28.0978 28.4706 27.2497 29.7342Z" fill="#646464" fill-opacity="0.9"/>
<path d="M51.334 33C51.334 44.598 41.932 54 30.334 54C18.736 54 9.33398 44.598 9.33398 33C9.33398 21.402 18.736 12 30.334 12C41.932 12 51.334 21.402 51.334 33ZM12.3459 33C12.3459 42.9346 20.3994 50.9881 30.334 50.9881C40.2685 50.9881 48.3221 42.9346 48.3221 33C48.3221 23.0654 40.2685 15.0119 30.334 15.0119C20.3994 15.0119 12.3459 23.0654 12.3459 33Z" fill="#646464"/>
<path d="M29.8534 37.1741C30.4412 37.1741 30.8412 37.419 31.0534 37.9088C31.1024 38.0557 31.1269 38.2517 31.1269 38.4966C31.1269 38.7415 31.0208 38.9619 30.8085 39.1578C30.433 39.5006 30.0085 39.5741 29.5351 39.3782C29.0779 39.1823 28.8493 38.8639 28.8493 38.4231C28.8493 37.966 28.9555 37.6476 29.1677 37.468C29.38 37.2721 29.6085 37.1741 29.8534 37.1741ZM30.4902 34.6027C30.4902 35.1251 30.5718 35.6068 30.7351 36.0476H30.0983C29.6575 35.7864 29.3228 35.4272 29.0942 34.97C29.0289 34.8231 28.9963 34.6353 28.9963 34.4068C28.9963 34.1782 29.0616 33.9496 29.1922 33.7211C29.4534 33.3129 29.8371 32.8721 30.3432 32.3986C31.2412 31.566 31.6902 30.7741 31.6902 30.0231C31.6902 29.5006 31.5514 29.0762 31.2738 28.7496C31.0126 28.4231 30.6453 28.2598 30.1718 28.2598C29.0289 28.2598 28.3596 28.7088 28.1636 29.6068H27.0126C27.0126 28.7415 27.3881 28.0966 28.1391 27.6721C28.7269 27.3292 29.3391 27.1578 29.9759 27.1578C31.1024 27.1578 31.9759 27.419 32.5963 27.9415C33.2167 28.4639 33.5269 29.1904 33.5269 30.1211C33.5269 31.0353 33.0126 31.9333 31.984 32.8149C31.3473 33.3864 30.9391 33.7864 30.7596 34.0149C30.58 34.2272 30.4902 34.4231 30.4902 34.6027Z" fill="#444444"/>
<path d="M45.0194 49.4884L49.0085 44.7344L50.8825 46.3069L46.8934 51.0608L45.0194 49.4884Z" fill="#646464"/>
<path d="M47.9598 53.9271C47.1053 53.2101 47.0025 51.9327 47.7313 51.0883L49.7044 48.8022L51.1384 47.0356C51.8425 46.1681 53.1209 46.0457 53.9768 46.7639L69.5516 59.8327C70.3977 60.5427 70.5081 61.8042 69.7981 62.6504L66.356 66.7525C65.646 67.5987 64.3845 67.709 63.5383 66.999L47.9598 53.9271Z" fill="#646464"/>
</svg>
