<svg width="80" height="80" viewBox="0 0 80 80" fill="none" xmlns="http://www.w3.org/2000/svg">
<rect width="80" height="80" rx="8" fill="#04C4FF"/>
<g clip-path="url(#clip0)">
<path d="M61.2224 69.6502C61.0494 69.047 60.8309 68.3186 60.5744 67.4863C60.3172 66.6547 60.0395 65.7109 59.7125 64.6911C59.3848 63.6714 59.0327 62.5667 58.6571 61.3997C58.2922 60.2275 57.8642 59.0112 57.4439 57.7411C57.0167 56.4763 56.5744 55.1682 56.126 53.8397C55.6632 52.5172 55.1912 51.1743 54.7193 49.8321C54.3247 48.6985 53.9241 47.5718 53.5243 46.458H56.1761V44.3039H52.7458C52.4567 43.5141 52.1692 42.7326 51.8877 41.9693C50.9658 39.4678 50.0872 37.1422 49.327 35.1513C48.5591 33.1634 47.9203 31.5063 47.4719 30.347C47.2511 29.7939 47.0993 29.35 46.9559 29.0503C47.5933 27.8842 47.9552 26.5457 47.9552 25.1246C47.9552 21.1967 45.1866 17.9083 41.4961 17.0995V8H37.974V17.1003C34.2873 17.9091 31.5157 21.1974 31.5157 25.1254C31.5157 26.7066 31.9732 28.1808 32.7494 29.4365C32.7297 29.4449 32.7077 29.4532 32.6925 29.4661C32.5445 29.7643 32.3882 30.2279 32.1576 30.8045C31.7099 31.9639 31.0695 33.6202 30.3032 35.6081C29.5422 37.599 28.6636 39.9253 27.7417 42.4261C27.5134 43.0421 27.2835 43.6704 27.0505 44.3054H23.2971V46.4602H26.269C25.8123 47.7213 25.3563 49.0035 24.9101 50.2896C24.439 51.6333 23.967 52.9763 23.5034 54.2972C23.055 55.6258 22.6134 56.9346 22.1855 58.2001C21.7652 59.4688 21.3388 60.6865 20.9731 61.8572C20.5975 63.0249 20.2454 64.1289 19.9177 65.1486C19.5906 66.1684 19.313 67.1122 19.0557 67.9446C18.7993 68.7769 18.58 69.5045 18.4078 70.1077C18.0626 71.3126 17.8638 72.0008 17.8638 72.0008C17.8638 72.0008 18.2447 71.3938 18.9093 70.3316C19.2416 69.8012 19.6384 69.1502 20.0838 68.4036C20.5307 67.657 21.0482 66.8194 21.5861 65.8937C22.1241 64.9688 22.709 63.9673 23.3282 62.9081C23.9541 61.8519 24.574 60.7207 25.2379 59.5606C25.8919 58.3967 26.5702 57.1941 27.2577 55.9717C27.9291 54.7434 28.6128 53.4937 29.2964 52.2448C30.3707 50.301 31.4178 48.3457 32.4155 46.461H38.757V50.3746H40.7146V46.461H47.4552C48.3808 48.2053 49.3459 50.0013 50.333 51.7896C51.0159 53.0385 51.7003 54.2866 52.3718 55.515C53.0592 56.7373 53.7382 57.9407 54.3915 59.1038C55.0554 60.2639 55.6745 61.3959 56.302 62.4513C56.9196 63.5105 57.5054 64.5128 58.0441 65.4362C58.5828 66.3626 59.1002 67.198 59.5456 67.9476C59.9917 68.695 60.387 69.3437 60.7209 69.8748C61.3855 70.937 61.7664 71.5448 61.7664 71.5448C61.7664 71.5448 61.5676 70.8551 61.2224 69.6502ZM39.7358 19.2535C42.9726 19.2535 45.6069 21.8879 45.6069 25.1254C45.6069 28.3629 42.9718 30.9965 39.7358 30.9965C36.4975 30.9965 33.864 28.3622 33.864 25.1254C33.864 21.8879 36.4983 19.2535 39.7358 19.2535ZM40.7153 44.3054V41.3691H38.7578V44.3047H33.5521C34.6766 42.1666 35.716 40.1559 36.6075 38.4161C37.5719 36.517 38.3762 34.9336 38.9384 33.8258C39.0302 33.6399 39.1152 33.4737 39.1971 33.3174C39.3746 33.3296 39.5545 33.3448 39.7366 33.3448C40.0461 33.3448 40.3511 33.3243 40.6516 33.2909C40.6653 33.3182 40.6766 33.3417 40.6918 33.3698C41.254 34.4768 42.0598 36.0603 43.0226 37.9601C43.9786 39.8244 45.097 41.9913 46.3178 44.3039L40.7153 44.3054Z" fill="#505050"/>
<path d="M39.8146 28.1019C41.5635 28.1019 42.9877 26.6792 42.9877 24.9296C42.9877 23.18 41.5635 21.7573 39.8146 21.7573C38.0657 21.7573 36.6416 23.1807 36.6416 24.9304C36.6416 26.68 38.0657 28.1019 39.8146 28.1019ZM39.8146 22.3438C41.2395 22.3438 42.4004 23.5039 42.4004 24.9296C42.4004 26.3553 41.2403 27.5154 39.8146 27.5154C38.389 27.5154 37.2296 26.356 37.2296 24.9304C37.2296 23.5047 38.389 22.3438 39.8146 22.3438Z" fill="#505050"/>
</g>
<defs>
<clipPath id="clip0">
<rect width="64" height="64" fill="white" transform="translate(8 8)"/>
</clipPath>
</defs>
</svg>
