<svg width="64" height="64" viewBox="0 0 64 64" fill="none" xmlns="http://www.w3.org/2000/svg">
<path fill-rule="evenodd" clip-rule="evenodd" d="M37.4199 4.17408C35.8968 -1.39136 28.1032 -1.39136 26.5801 4.17408C25.5484 7.94371 21.157 9.56218 17.9737 7.34594C13.274 4.07392 7.30371 9.14656 9.66991 14.4013C11.2726 17.9605 8.93594 22.0586 5.09054 22.4327C-0.586751 22.9851 -1.9401 30.7569 3.20823 33.2421C6.69534 34.9255 7.50685 39.5857 4.79862 42.3751C0.800231 46.4935 4.69704 53.3279 10.2185 51.8808C13.9584 50.9006 17.5384 53.9424 17.2345 57.8419C16.7859 63.5992 24.1095 66.2983 27.4206 61.596C29.6633 58.411 34.3367 58.411 36.5794 61.596C39.8905 66.2983 47.2141 63.5992 46.7655 57.8419C46.4616 53.9424 50.0416 50.9006 53.7815 51.8808C59.303 53.3279 63.1998 46.4935 59.2014 42.3751C56.4931 39.5857 57.3047 34.9255 60.7918 33.2421C65.9401 30.7569 64.5868 22.9851 58.9095 22.4327C55.0641 22.0586 52.7274 17.9605 54.3301 14.4013C56.6963 9.14656 50.726 4.07392 46.0263 7.34594C42.843 9.56218 38.4516 7.94371 37.4199 4.17408ZM32.2781 53.2007C43.8371 53.2007 53.2075 43.7125 53.2075 32.0081C53.2075 20.3037 43.8371 10.8155 32.2781 10.8155C20.7191 10.8155 11.3486 20.3037 11.3486 32.0081C11.3486 43.7125 20.7191 53.2007 32.2781 53.2007Z" fill="#505050"/>
<path d="M41.469 19.6836C41.7424 19.4067 42.067 19.1871 42.4243 19.0373C42.7816 18.8874 43.1645 18.8103 43.5513 18.8103C43.938 18.8103 44.3209 18.8874 44.6782 19.0373C45.0355 19.1871 45.3601 19.4067 45.6336 19.6836C45.907 19.9605 46.124 20.2893 46.2719 20.651C46.4199 21.0128 46.4961 21.4006 46.4961 21.7921C46.4961 22.1837 46.4199 22.5715 46.2719 22.9333C46.124 23.295 45.907 23.6238 45.6336 23.9007L43.5513 21.7921L41.469 19.6836Z" fill="#04C4FF"/>
<path d="M29.3328 15.3335H34.6662V18.0002L32.0765 17.5604L29.3328 18.0002V15.3335Z" fill="#505050"/>
<path fill-rule="evenodd" clip-rule="evenodd" d="M32.0765 46.0191C39.8376 46.0191 46.1291 39.6484 46.1291 31.7898C46.1291 23.9311 39.8376 17.5604 32.0765 17.5604C24.3155 17.5604 18.0239 23.9311 18.0239 31.7898C18.0239 39.6484 24.3155 46.0191 32.0765 46.0191ZM31.7976 42.5261C37.5771 42.5261 42.2623 37.782 42.2623 31.9298C42.2623 26.0776 37.5771 21.3335 31.7976 21.3335C26.0181 21.3335 21.3328 26.0776 21.3328 31.9298C21.3328 37.782 26.0181 42.5261 31.7976 42.5261Z" fill="#505050"/>
<path d="M36.6124 28.4731C36.6124 28.4731 33.9901 32.8364 33.1306 33.5126C32.2711 34.1888 31.0815 34.0947 30.4737 33.3025C29.8658 32.5103 30.0698 31.3199 30.9293 30.6437C31.7889 29.9675 36.6124 28.4731 36.6124 28.4731Z" fill="#04C4FF"/>
</svg>
