<svg width="29" height="16" viewBox="0 0 29 16" fill="none" xmlns="http://www.w3.org/2000/svg">
<path d="M4.63464 13L14.4001 3.64607L24.1657 13L24.1476 13L24.1182 13L24.0887 13L24.0592 13L24.0296 13L23.9998 13L23.9701 13L23.9402 13L23.9103 13L23.8803 13L23.8502 13L23.82 13L23.7898 13L23.7595 13L23.7292 13L23.6987 13L23.6682 13L23.6376 13L23.607 13L23.5763 13L23.5455 13L23.5147 13L23.4837 13L23.4528 13L23.4217 13L23.3906 13L23.3594 13L23.3282 13L23.2968 13L23.2655 13L23.234 13L23.2025 13L23.171 13L23.1393 13L23.1077 13L23.0759 13L23.0441 13L23.0122 13L22.9803 13L22.9483 13L22.9162 13L22.8841 13L22.852 13L22.8198 13L22.7875 13L22.7551 13L22.7227 13L22.6903 13L22.6578 13L22.6252 13L22.5926 13L22.56 13L22.5272 13L22.4945 13L22.4616 13L22.4288 13L22.3958 13L22.3629 13L22.3298 13L22.2968 13L22.2636 13L22.2305 13L22.1972 13L22.164 13L22.1306 13L22.0973 13L22.0639 13L22.0304 13L21.9969 13L21.9634 13L21.9298 13L21.8961 13L21.8624 13L21.8287 13L21.7949 13L21.7611 13L21.7273 13L21.6934 13L21.6595 13L21.6255 13L21.5915 13L21.5574 13L21.5233 13L21.4892 13L21.455 13L21.4208 13L21.3866 13L21.3523 13L21.318 13L21.2836 13L21.2492 13L21.2148 13L21.1803 13L21.1459 13L21.1113 13L21.0768 13L21.0422 13L21.0076 13L20.9729 13L20.9382 13L20.9035 13L20.8688 13L20.834 13L20.7992 13L20.7644 13L20.7295 13L20.6946 13L20.6597 13L20.6248 13L20.5898 13L20.5548 13L20.5198 13L20.4847 13L20.4497 13L20.4146 13L20.3795 13L20.3443 13L20.3092 13L20.274 13L20.2388 13L20.2035 13L20.1683 13L20.133 13L20.0978 13L20.0625 13L20.0271 13L19.9918 13L19.9564 13L19.9211 13L19.8857 13L19.8503 13L19.8148 13L19.7794 13L19.7439 13L19.7085 13L19.673 13L19.6375 13L19.602 13L19.5665 13L19.5309 13L19.4954 13L19.4598 13L19.4243 13L19.3887 13L19.3531 13L19.3175 13L19.2819 13L19.2463 13L19.2107 13L19.175 13L19.1394 13L19.1038 13L19.0681 13L19.0325 13L18.9968 13L18.9611 13L18.9255 13L18.8898 13L18.8541 13L18.8185 13L18.7828 13L18.7471 13L18.7114 13L18.6757 13L18.6401 13L18.6044 13L18.5687 13L18.533 13L18.4973 13L18.4617 13L18.426 13L18.3903 13L18.3547 13L18.319 13L18.2833 13L18.2477 13L18.212 13L18.1764 13L18.1408 13L18.1051 13L18.0695 13L18.0339 13L17.9983 13L17.9627 13L17.9271 13L17.8916 13L17.856 13L17.8204 13L17.7849 13L17.7494 13L17.7138 13L17.6783 13L17.6428 13L17.6074 13L17.5719 13L17.5364 13L17.501 13L17.4656 13L17.4302 13L17.3948 13L17.3594 13L17.3241 13L17.2887 13L17.2534 13L17.2181 13L17.1828 13L17.1476 13L17.1123 13L17.0771 13L17.0419 13L17.0067 13L16.9716 13L16.9364 13L16.9013 13L16.8662 13L16.8312 13L16.7961 13L16.7611 13L16.7261 13L16.6912 13L16.6562 13L16.6213 13L16.5864 13L16.5516 13L16.5168 13L16.482 13L16.4472 13L16.4124 13L16.3777 13L16.3431 13L16.3084 13L16.2738 13L16.2392 13L16.2047 13L16.1701 13L16.1357 13L16.1012 13L16.0668 13L16.0324 13L15.9981 13L15.9637 13L15.9295 13L15.8952 13L15.861 13L15.8269 13L15.7927 13L15.7587 13L15.7246 13L15.6906 13L15.6566 13L15.6227 13L15.5888 13L15.555 13L15.5212 13L15.4874 13L15.4537 13L15.42 13L15.3864 13L15.3528 13L15.3192 13L15.2858 13L15.2523 13L15.2189 13L15.1855 13L15.1522 13L15.119 13L15.0857 13L15.0526 13L15.0195 13L14.9864 13L14.9534 13L14.9204 13L14.8875 13L14.8546 13L14.8218 13L14.789 13L14.7563 13L14.7237 13L14.6911 13L14.6585 13L14.626 13L14.5936 13L14.5612 13L14.5289 13L14.4966 13L14.4644 13L14.4322 13L14.4001 13L14.368 13L14.3359 13L14.3037 13L14.2714 13L14.2391 13L14.2067 13L14.1743 13L14.1418 13L14.1092 13L14.0766 13L14.044 13L14.0113 13L13.9785 13L13.9457 13L13.9128 13L13.8799 13L13.8469 13L13.8139 13L13.7808 13L13.7477 13L13.7145 13L13.6813 13L13.6481 13L13.6148 13L13.5814 13L13.548 13L13.5145 13L13.481 13L13.4475 13L13.4139 13L13.3803 13L13.3466 13L13.3129 13L13.2791 13L13.2453 13L13.2115 13L13.1776 13L13.1437 13L13.1097 13L13.0757 13L13.0416 13L13.0075 13L12.9734 13L12.9393 13L12.9051 13L12.8708 13L12.8365 13L12.8022 13L12.7679 13L12.7335 13L12.6991 13L12.6646 13L12.6301 13L12.5956 13L12.5611 13L12.5265 13L12.4919 13L12.4572 13L12.4226 13L12.3878 13L12.3531 13L12.3183 13L12.2835 13L12.2487 13L12.2139 13L12.179 13L12.1441 13L12.1091 13L12.0742 13L12.0392 13L12.0042 13L11.9691 13L11.9341 13L11.899 13L11.8639 13L11.8287 13L11.7936 13L11.7584 13L11.7232 13L11.688 13L11.6527 13L11.6175 13L11.5822 13L11.5469 13L11.5116 13L11.4762 13L11.4409 13L11.4055 13L11.3701 13L11.3347 13L11.2993 13L11.2638 13L11.2284 13L11.1929 13L11.1574 13L11.122 13L11.0864 13L11.0509 13L11.0154 13L10.9799 13L10.9443 13L10.9087 13L10.8732 13L10.8376 13L10.802 13L10.7664 13L10.7308 13L10.6951 13L10.6595 13L10.6239 13L10.5882 13L10.5526 13L10.5169 13L10.4813 13L10.4456 13L10.41 13L10.3743 13L10.3386 13L10.3029 13L10.2673 13L10.2316 13L10.1959 13L10.1602 13L10.1246 13L10.0889 13L10.0532 13L10.0175 13L9.98184 13L9.94616 13L9.91049 13L9.87482 13L9.83915 13L9.80349 13L9.76784 13L9.73218 13L9.69654 13L9.66089 13L9.62526 13L9.58963 13L9.55401 13L9.5184 13L9.48279 13L9.4472 13L9.41161 13L9.37603 13L9.34047 13L9.30491 13L9.26937 13L9.23383 13L9.19831 13L9.1628 13L9.12731 13L9.09182 13L9.05635 13L9.0209 13L8.98546 13L8.95004 13L8.91463 13L8.87923 13L8.84386 13L8.8085 13L8.77316 13L8.73784 13L8.70253 13L8.66725 13L8.63198 13L8.59674 13L8.56152 13L8.52631 13L8.49113 13L8.45597 13L8.42083 13L8.38572 13L8.35063 13L8.31556 13L8.28052 13L8.2455 13L8.21051 13L8.17554 13L8.1406 13L8.10568 13L8.0708 13L8.03594 13L8.0011 13L7.9663 13L7.93153 13L7.89678 13L7.86207 13L7.82739 13L7.79273 13L7.75811 13L7.72352 13L7.68896 13L7.65444 13L7.61995 13L7.58549 13L7.55107 13L7.51668 13L7.48233 13L7.44801 13L7.41373 13L7.37948 13L7.34528 13L7.31111 13L7.27697 13L7.24288 13L7.20883 13L7.17481 13L7.14084 13L7.1069 13L7.07301 13L7.03915 13L7.00534 13L6.97158 13L6.93785 13L6.90417 13L6.87053 13L6.83693 13L6.80338 13L6.76988 13L6.73642 13L6.70301 13L6.66964 13L6.63632 13L6.60305 13L6.56983 13L6.53665 13L6.50352 13L6.47045 13L6.43742 13L6.40444 13L6.37152 13L6.33864 13L6.30582 13L6.27305 13L6.24033 13L6.20766 13L6.17505 13L6.14249 13L6.10999 13L6.07754 13L6.04515 13L6.01282 13L5.98054 13L5.94831 13L5.91615 13L5.88404 13L5.85199 13L5.82 13L5.78807 13L5.7562 13L5.72439 13L5.69264 13L5.66095 13L5.62932 13L5.59776 13L5.56626 13L5.53482 13L5.50344 13L5.47213 13L5.44088 13L5.4097 13L5.37859 13L5.34754 13L5.31655 13L5.28563 13L5.25478 13L5.224 13L5.19329 13L5.16264 13L5.13207 13L5.10156 13L5.07113 13L5.04076 13L5.01047 13L4.98024 13L4.95009 13L4.92002 13L4.89001 13L4.86008 13L4.83022 13L4.80044 13L4.77073 13L4.7411 13L4.71154 13L4.68206 13L4.65266 13L4.63464 13Z" fill="#505050" stroke="#505050" stroke-width="3"/>
</svg>
