<svg width="150" height="150" viewBox="0 0 150 150" fill="none" xmlns="http://www.w3.org/2000/svg">
<path d="M30.6633 61.2143C29.0986 69.3797 30.4551 77.808 33.132 85.7992L49.1633 78.7143C47.1633 73.7143 46.1633 69.2143 47.1633 64.2143C48.1633 59.2143 48.0208 55.7143 54.1633 50.0248C59.6633 44.9304 62.7359 44.1666 68.1633 43.2143C73.5908 42.262 76.6633 42.2143 86.1633 44.2143L81.8815 53.6158L112.851 50.0248L94.2563 25L90.1633 35.2143C82.6633 29.7631 71.882 28.2723 63.6633 29.7143C55.3625 31.1707 48.3462 34.9874 42.1633 40.7143C35.9805 46.4412 32.7502 53.0491 30.6633 61.2143Z" fill="#04C4FF" fill-opacity="0.64"/>
<path d="M119.85 87.7994C121.415 79.634 120.059 71.2057 117.382 63.2144L101.35 70.2994C103.35 75.2994 104.35 79.7994 103.35 84.7994C102.35 89.7994 102.493 93.2994 96.3503 98.9889C90.8503 104.083 87.7778 104.847 82.3503 105.799C76.9229 106.752 73.8503 106.799 64.3503 104.799L68.6322 95.3978L37.6628 98.9889L56.2574 124.014L60.3503 113.799C67.8503 119.251 78.6316 120.741 86.8503 119.299C95.1512 117.843 102.167 114.026 108.35 108.299C114.533 102.572 117.764 95.9646 119.85 87.7994Z" fill="#04C4FF" fill-opacity="0.64"/>
<rect x="6" y="6" width="138" height="138" rx="69" stroke="#04C4FF" stroke-opacity="0.64" stroke-width="12" stroke-miterlimit="16" stroke-dasharray="48 5"/>
</svg>
